<svg width="85" height="48" viewBox="0 0 85 48" fill="none" xmlns="http://www.w3.org/2000/svg">
<path d="M26.2905 0.0128342C26.9062 0.256684 27.5475 0.269519 28.2016 0.282353C28.1246 0.641711 27.8296 0.539037 27.5988 0.551872C27.4192 0.564706 27.2396 0.385027 27.0472 0.513369C25.9186 0.641711 24.8668 0.0898396 23.751 0.115508C23.6997 0.102674 23.674 0.0770053 23.6869 0.0513369C23.6997 0.0256684 23.7125 0 23.7253 0C24.5847 0.0128342 25.444 0.0128342 26.2905 0.0128342Z" fill="#4688AA"/>
<path d="M0.0117188 21.818C0.306714 21.5742 -0.0524107 21.0993 0.358018 20.8555C0.499102 21.6127 0.293888 22.3186 0.229759 23.0373C0.216933 23.1143 0.088674 23.1656 0.0117188 23.2298C0.0117187 22.7549 0.0117188 22.2929 0.0117188 21.818Z" fill="#C5A46D"/>
<path d="M22.5724 47.9862C22.3416 47.6397 21.867 48.0247 21.5977 47.6525C22.38 47.4343 23.0342 47.845 23.7268 47.9862C23.342 47.9862 22.9572 47.9862 22.5724 47.9862Z" fill="#749CBD"/>
<path d="M0.178455 26.4112C0.127152 26.424 0.0630223 26.424 0.0117188 26.4369C0.0117188 25.7951 0.0117188 25.1534 0.0117188 24.5117C0.191281 24.5759 0.0758481 24.8454 0.268236 24.8967C0.409321 25.4101 0.588883 25.9363 0.178455 26.4112Z" fill="#CAB4A9"/>
<path d="M23.7277 0.0117188C23.7406 0.0502214 23.7534 0.0758899 23.7534 0.114393C23.6251 0.165729 23.484 0.217066 23.3558 0.268403C22.7017 0.306906 22.0219 0.602093 21.4062 0.114393C21.4062 0.0758899 21.4191 0.0502214 21.4191 0.0117188C22.1886 0.0117187 22.9582 0.0117188 23.7277 0.0117188Z" fill="#BFCDE0"/>
<path d="M63.4112 21.1756C63.2188 21.3938 63.1418 21.4451 63.1162 21.5221C62.7699 22.1766 62.3723 22.3948 61.6027 21.997C60.846 21.6119 59.9354 22.0355 59.448 22.7799C58.9734 23.4986 59.0375 24.551 59.6147 25.2312C60.1662 25.8857 61.1025 26.0783 61.8849 25.7189C62.1157 25.6034 62.3723 25.321 62.6288 25.6162C62.9366 25.9884 63.3214 26.3349 63.4368 26.8226C63.4881 27.0408 63.1803 27.1307 63.0007 27.2333C61.3975 28.1574 59.3838 27.8494 58.1526 26.4889C56.9854 25.2055 56.8828 23.0622 57.9089 21.6248C58.9606 20.1617 60.9101 19.6355 62.5903 20.3542C62.7699 20.4312 62.9366 20.5339 63.1033 20.6109C63.2059 20.6622 63.3599 20.7777 63.3983 20.5724C63.5138 20.0975 63.8729 20.1745 64.2192 20.1745C65.7198 20.1745 67.2076 20.1873 68.7083 20.1617C69.1956 20.1488 69.388 20.3157 69.3239 20.7906C69.3239 20.8291 69.3239 20.8804 69.3239 20.9189C69.3111 22.1253 69.4393 21.9841 68.2593 21.9841C67.3231 21.9841 67.3231 21.9841 67.3231 22.9082C67.3231 24.2686 67.3102 25.6419 67.3359 27.0023C67.3487 27.4772 67.1948 27.6312 66.7074 27.6184C65.3992 27.5799 65.3992 27.6055 65.3992 26.2836C65.3992 25.0387 65.3864 23.8066 65.412 22.5617C65.4248 22.074 65.2453 21.9071 64.7835 21.9585C64.5527 21.9841 64.309 21.9456 64.0781 21.9713C63.6164 22.0098 63.3086 21.8943 63.4112 21.1756Z" fill="#304B78"/>
<path d="M38.5924 23.4859C38.5924 24.6666 38.5796 25.8346 38.5924 27.0153C38.6053 27.4517 38.4642 27.6314 38.0025 27.6057C36.5531 27.5287 36.6814 27.9394 36.6814 26.2838C36.6814 24.4613 36.707 22.6517 36.6686 20.8292C36.6557 20.2773 36.8481 20.0977 37.374 20.149C37.6049 20.1747 37.8485 20.1747 38.0794 20.149C38.5411 20.0977 38.8361 20.2902 39.067 20.688C39.7468 21.8303 40.465 22.9597 41.2859 24.0634C41.2859 22.9854 41.3115 21.9073 41.2731 20.842C41.2602 20.3158 41.4141 20.1233 41.9528 20.149C43.3252 20.1875 43.1456 19.9822 43.1585 21.3426C43.1713 23.2035 43.1456 25.0645 43.1841 26.9255C43.1969 27.4388 43.043 27.58 42.5043 27.6314C41.5809 27.7212 41.0678 27.3875 40.6318 26.5918C40.0546 25.5137 39.3364 24.4998 38.6822 23.4602C38.6694 23.4602 38.6309 23.4731 38.5924 23.4859Z" fill="#304B78"/>
<path d="M46.0321 23.4883C46.0321 24.6433 46.0193 25.7856 46.045 26.9407C46.0578 27.4284 45.9295 27.6209 45.3909 27.608C44.1339 27.5695 44.1339 27.5952 44.1339 26.3631C44.1339 24.5022 44.1467 22.6412 44.1211 20.7931C44.1211 20.331 44.2622 20.2027 44.7367 20.1514C45.7756 20.0358 46.4426 20.3567 46.9171 21.3321C47.3917 22.2947 48.0458 23.1802 48.7384 24.0915C48.7384 23.0647 48.7384 22.038 48.7384 21.0112C48.7384 20.177 48.7384 20.177 49.5849 20.177C49.7773 20.177 49.9697 20.1899 50.1621 20.177C50.4956 20.1514 50.6238 20.331 50.6238 20.6391C50.6238 22.8209 50.6238 25.0027 50.6238 27.1717C50.6238 27.4925 50.4956 27.6594 50.1621 27.608C50.1236 27.608 50.0723 27.5952 50.0338 27.608C49.0975 27.7749 48.5075 27.4027 48.0586 26.5428C47.5071 25.4776 46.7889 24.4893 46.1476 23.4626C46.1091 23.4626 46.0706 23.4754 46.0321 23.4883Z" fill="#304B78"/>
<path d="M79.4553 23.8832C79.4553 22.818 79.4682 21.7527 79.4553 20.6746C79.4553 20.3024 79.5708 20.1484 79.9684 20.1484C81.4177 20.1613 82.867 20.1613 84.3292 20.1484C84.714 20.1484 84.8807 20.2768 84.855 20.6746C84.7909 22.0222 85.0987 21.9196 83.6366 21.9196C83.0338 21.9196 82.4438 21.9324 81.841 21.9067C81.5203 21.8939 81.3536 21.9837 81.3792 22.3303C81.4049 22.6511 81.3536 23.0105 81.841 23.0105C82.3925 23.0105 82.9568 23.0361 83.5083 23.0105C83.9829 22.9848 84.1753 23.1773 84.124 23.6522C84.1111 23.7934 84.1111 23.9474 84.124 24.1014C84.1624 24.5121 83.9957 24.6918 83.5724 24.6661C83.0209 24.6404 82.4566 24.6918 81.9051 24.6404C81.251 24.5891 81.3792 25.0383 81.3536 25.3976C81.3279 25.834 81.5716 25.911 81.9692 25.8982C82.8029 25.8725 83.6366 25.8853 84.4703 25.8725C84.8037 25.8597 84.9063 25.988 84.9063 26.3217C84.9448 27.5923 84.9576 27.5923 83.6879 27.5923C82.4694 27.5923 81.251 27.5795 80.0325 27.6051C79.5836 27.618 79.4297 27.4639 79.4297 27.0147C79.4553 25.9752 79.4425 24.9356 79.4553 23.8832Z" fill="#304B78"/>
<path d="M51.5592 23.8839C51.5592 22.8186 51.572 21.7534 51.5592 20.6753C51.5592 20.3031 51.6746 20.1363 52.0722 20.1491C53.5216 20.162 54.9709 20.162 56.433 20.1491C56.8691 20.1491 56.9845 20.316 56.9717 20.7267C56.9076 21.9973 57.2667 21.9202 55.7917 21.9202C55.2146 21.9202 54.6374 21.9202 54.0602 21.9074C53.7268 21.8946 53.4831 21.9202 53.4959 22.3694C53.5087 22.7801 53.6113 23.024 54.0731 23.0112C54.5476 22.9983 55.0094 23.0368 55.4839 23.0112C56.0354 22.9727 56.3432 23.1267 56.2406 23.7555C56.215 23.8839 56.2278 24.0122 56.2406 24.1406C56.2791 24.5256 56.1252 24.6796 55.7276 24.6668C55.1504 24.6411 54.5733 24.6796 53.9961 24.6539C53.4446 24.6154 53.5087 24.9748 53.4959 25.3213C53.4831 25.6935 53.5472 25.9374 54.0089 25.9245C54.817 25.886 55.625 25.9117 56.4459 25.886C56.8948 25.8732 57.1 25.9759 57.0871 26.4892C57.0487 27.7855 57.2154 27.593 55.9456 27.6058C54.7015 27.6186 53.4703 27.593 52.2261 27.6186C51.7388 27.6315 51.5464 27.5031 51.5592 26.9769C51.5848 25.9374 51.5592 24.9106 51.5592 23.8839Z" fill="#304B78"/>
<path d="M29.3846 24.7811C29.949 24.6912 30.4492 24.9223 30.8981 25.3458C31.642 26.0517 32.7835 25.9875 33.5274 25.2175C34.2585 24.4731 34.2713 23.2025 33.5402 22.4324C32.8091 21.6752 31.5779 21.5212 30.9109 22.2912C30.2696 23.0485 29.5129 22.8688 28.7562 22.8816C28.2944 22.8816 28.474 22.5736 28.5638 22.3426C29.2564 20.533 31.3726 19.5832 33.335 20.1993C34.9895 20.7126 36.0797 22.3554 35.9643 24.1522C35.8617 25.7822 34.438 27.3223 32.822 27.5789C31.0392 27.8613 29.2564 26.9244 28.6023 25.3843C28.3457 24.7939 28.3457 24.7939 29.3846 24.7811Z" fill="#304B78"/>
<path d="M75.558 24.8721C76.0582 23.3962 76.5199 22.1128 76.9175 20.8037C77.0714 20.3031 77.3023 20.1363 77.8153 20.1491C79.2133 20.1748 79.2133 20.1491 78.726 21.4325C78.0077 23.3063 77.251 25.1673 76.5969 27.0539C76.3275 27.824 75.776 27.5288 75.3014 27.6058C74.8397 27.6828 74.673 27.4261 74.5319 27.0411C73.7495 24.962 72.9671 22.8956 72.1591 20.8293C71.9539 20.316 72.0437 20.1363 72.608 20.162C74.1471 20.2133 73.8778 19.9053 74.4036 21.4454C74.7499 22.5235 75.1219 23.6144 75.558 24.8721Z" fill="#304B78"/>
<path d="M22.4434 23.8185C22.3793 21.0848 25.3934 19.0441 28.1766 20.5072C28.5229 20.6869 28.587 20.8537 28.3305 21.1874C28.0868 21.5083 28.0099 22.0217 27.7021 22.2013C27.3686 22.4067 27.0095 21.919 26.6247 21.842C25.8936 21.7008 25.1112 22.0088 24.6751 22.6634C24.2006 23.3693 24.2262 24.3832 24.7393 25.0634C25.2138 25.6794 25.9706 25.9361 26.7401 25.7179C27.6764 25.4484 27.6764 25.4484 28.2151 26.2955C28.6383 26.95 28.6383 26.9628 27.9457 27.2709C25.2523 28.4773 22.3537 26.4751 22.4434 23.8185Z" fill="#304B78"/>
<path d="M71.6708 23.9236C71.6708 24.9632 71.658 26.0156 71.6836 27.0552C71.6965 27.4659 71.5554 27.607 71.1321 27.607C69.7469 27.607 69.7598 27.6199 69.7598 26.2338C69.7598 24.4627 69.7726 22.6915 69.7469 20.9204C69.7341 20.3557 69.8624 20.1247 70.4908 20.1504C71.6965 20.2145 71.7093 19.8937 71.6965 21.3568C71.6965 21.7803 71.6965 22.2167 71.6965 22.6402C71.6708 23.0637 71.6708 23.5001 71.6708 23.9236Z" fill="#304B78"/>
<path d="M9.74651 21.0469C10.3365 21.0084 10.6315 21.3678 10.8367 21.817C11.1958 22.587 10.9778 23.7036 10.3878 24.3068C9.79781 24.9229 9.02826 24.8459 8.56653 24.14C8.02784 23.3186 8.32283 21.817 9.11804 21.2523C9.31043 21.1239 9.51564 21.0213 9.74651 21.0469Z" fill="#76B989"/>
<path d="M12.0547 24.6015C12.0547 23.5747 12.7473 22.7148 13.581 22.7148C14.312 22.7148 14.8892 23.4207 14.8764 24.3191C14.8636 25.3715 14.1966 26.1801 13.3501 26.1801C12.5934 26.1801 12.0675 25.5255 12.0547 24.6015Z" fill="#5DBB9C"/>
<path d="M14.0701 14.5545C13.9418 15.4785 13.5955 16.2229 12.749 16.6464C11.8768 17.0828 11.056 16.5566 11.0431 15.5812C11.0303 14.7085 11.7229 13.7459 12.5438 13.4764C13.3903 13.194 14.0829 13.7074 14.0701 14.5545Z" fill="#61BB99"/>
<path d="M13.1584 17.7109C13.8894 17.7109 14.441 18.3783 14.3512 19.1997C14.287 19.7772 14.069 20.3035 13.6457 20.727C13.2738 21.0992 12.8249 21.3045 12.3247 21.1377C11.8116 20.9708 11.5936 20.5345 11.5038 20.0211C11.3243 18.9559 12.2092 17.7238 13.1584 17.7109Z" fill="#61BB99"/>
<path d="M17.853 16.5183C17.853 17.0445 17.4426 17.6092 16.7885 18.0071C16.0446 18.4563 15.2878 18.1868 14.98 17.3911C14.6081 16.4413 15.4546 15.0296 16.455 14.9012C17.3143 14.7857 17.9171 15.3633 17.853 16.5183Z" fill="#56BCA1"/>
<path d="M10.6587 17.5174C10.5946 18.172 10.3765 18.8009 9.88913 19.3142C9.51718 19.7121 9.05545 19.9046 8.56806 19.7121C8.02937 19.5067 7.87546 18.9549 7.90112 18.4287C7.92677 17.7613 8.17046 17.1324 8.67067 16.6575C9.01697 16.3239 9.41457 16.0287 9.9276 16.2212C10.4406 16.4394 10.6202 16.9271 10.6587 17.5174Z" fill="#7DB984"/>
<path d="M18.3638 20.957C18.3895 21.3548 18.1971 21.7912 17.8508 22.1634C17.5045 22.5484 17.0812 22.8051 16.5554 22.6896C16.0039 22.5741 15.7089 22.1634 15.5678 21.6244C15.3498 20.803 15.9654 19.6479 16.7606 19.404C17.6712 19.1345 18.3895 19.7891 18.3638 20.957Z" fill="#56BBA1"/>
<path d="M21.9819 17.8412C21.9947 18.8038 21.2123 19.7279 20.3658 19.7407C19.6861 19.7407 19.1345 19.1503 19.1217 18.3931C19.0961 17.4177 19.8656 16.545 20.7506 16.5321C21.4689 16.5065 21.9691 17.0455 21.9819 17.8412Z" fill="#2C9AA2"/>
<path d="M5.94922 25.8233C5.94922 25.7206 5.94922 25.6821 5.94922 25.6308C6.039 24.6297 6.59051 23.911 7.23181 24.0137C7.86028 24.1035 8.42461 25.1431 8.28353 25.9901C8.2194 26.3623 8.1681 26.7474 7.95006 27.0682C7.48832 27.7484 6.82138 27.7741 6.34682 27.0939C6.05183 26.696 6.00052 26.2212 5.94922 25.8233Z" fill="#94B772"/>
<path d="M11.8109 27.3259C11.8109 27.4157 11.8109 27.4927 11.8109 27.5826C11.7853 28.3526 11.2466 29.0072 10.631 29.0072C10.0025 29.0072 9.4125 28.3655 9.38685 27.6339C9.37402 27.3002 9.32272 26.9537 9.4638 26.62C9.69467 26.081 9.98966 25.6318 10.6694 25.6703C11.1953 25.6959 11.7083 26.2478 11.8109 26.8767C11.8238 27.0179 11.7981 27.1719 11.8109 27.3259C11.7981 27.3259 11.7981 27.3259 11.8109 27.3259Z" fill="#6EBA8F"/>
<path d="M14.875 12.5021C14.875 11.5652 15.8241 10.6027 16.7604 10.5898C17.376 10.5898 17.8378 11.0904 17.7737 11.7193C17.6967 12.5791 16.9913 13.362 16.1319 13.5289C15.4137 13.6701 14.875 13.2337 14.875 12.5021Z" fill="#56BCA1"/>
<path d="M14.4935 27.3867C15.1733 27.3867 15.7889 28.1439 15.7761 28.9525C15.7761 29.8124 15.1605 30.5439 14.4422 30.5439C13.6983 30.5439 13.2109 29.9022 13.2109 28.9268C13.2238 28.0413 13.7625 27.3867 14.4935 27.3867Z" fill="#5ABC9F"/>
<path d="M26.2263 23.0907C26.2904 23.1035 26.4572 23.0907 26.5341 23.1677C27.1113 23.7324 27.8424 23.5784 28.535 23.5912C29.2019 23.604 29.856 23.5912 30.523 23.604C30.9462 23.6169 31.3054 23.5527 31.6388 23.2575C31.9723 22.9623 32.3827 23.0137 32.6777 23.3345C32.9727 23.6554 32.9599 24.0661 32.6905 24.3869C32.3956 24.7463 31.9723 24.7976 31.6132 24.4768C31.3182 24.2072 30.9847 24.1431 30.6128 24.1559C29.7534 24.1687 28.9069 24.1687 28.0476 24.1559C27.5345 24.1559 27.0472 24.1302 26.6111 24.5281C26.3674 24.7591 26.0083 24.7334 25.7261 24.5024C25.4696 24.2842 25.3413 23.9891 25.4568 23.6425C25.5722 23.3088 25.7902 23.0907 26.2263 23.0907Z" fill="#DAB13D"/>
<path d="M11.4262 11.3822C11.439 10.4324 12.542 9.36719 13.4783 9.36719C14.0298 9.36719 14.2992 9.67521 14.3248 10.1886C14.3633 11.0741 13.3244 12.2421 12.4394 12.3191C11.7084 12.3832 11.4134 12.1009 11.4262 11.3822Z" fill="#61BB99"/>
<path d="M21.5603 13.1943C21.5603 14.1055 20.7908 14.9013 19.9314 14.8884C19.2388 14.8756 18.8156 14.4136 18.8284 13.6948C18.8541 12.7964 19.6236 12.0264 20.5086 12.0392C21.1884 12.0521 21.5603 12.4628 21.5603 13.1943Z" fill="#309DA1"/>
<path d="M9.37629 30.7122C9.41477 30.9689 9.36346 31.2641 9.2352 31.5336C8.96586 32.124 8.37587 32.2651 7.86283 31.8801C7.19589 31.3539 6.91372 30.0063 7.32415 29.2491C7.63197 28.6844 8.15783 28.5689 8.65804 28.9796C9.1839 29.4159 9.40194 29.9935 9.37629 30.7122Z" fill="#88B77B"/>
<path d="M10.5306 31.8656C10.5306 31.0827 10.9026 30.518 11.4669 30.4282C12.0184 30.3383 12.6597 30.8517 12.8264 31.5448C12.9034 31.8271 13.006 32.1095 12.9162 32.4175C12.7623 32.9437 12.5956 33.4442 11.9415 33.5341C11.4284 33.5982 10.9026 33.2004 10.6589 32.5843C10.5691 32.3405 10.4793 32.0966 10.5306 31.8656Z" fill="#68BA94"/>
<path d="M15.8535 9.89578C15.225 9.88294 14.8787 9.47225 15.007 8.8562C15.1737 7.99631 16.3152 7.12358 17.1745 7.21342C17.7389 7.26476 18.0723 7.68829 17.9569 8.22733C17.7902 9.03588 16.7 9.90861 15.8535 9.89578Z" fill="#56BCA1"/>
<path d="M19.5583 11.037C18.9299 11.037 18.5066 10.6648 18.481 10.1129C18.4553 9.31722 19.4301 8.38032 20.3022 8.36749C20.8922 8.35465 21.2898 8.75252 21.2898 9.35573C21.3027 10.2413 20.469 11.037 19.5583 11.037Z" fill="#339FA1"/>
<path d="M5.25901 21.7784C5.31032 21.1111 5.4514 20.4694 5.99009 19.9945C6.41334 19.6095 6.86225 19.6865 7.17007 20.1742C7.64463 20.9314 7.34963 22.4458 6.61856 22.972C6.22096 23.2544 5.78488 23.1774 5.52836 22.7538C5.33597 22.4587 5.24619 22.1378 5.25901 21.7784Z" fill="#9BB66C"/>
<path d="M25.5752 14.7854C25.5752 15.6453 24.9339 16.3383 24.1259 16.3511C23.4589 16.3511 22.9844 15.8634 22.9844 15.1704C22.9844 14.349 23.6641 13.6174 24.4465 13.6174C25.1263 13.6046 25.5624 14.0666 25.5752 14.7854Z" fill="#2594A1"/>
<path d="M16.6871 33.6374C16.6871 34.4331 16.1484 35.0492 15.4943 35.0235C14.8145 34.9978 14.2374 34.2919 14.2502 33.4962C14.263 32.7647 14.8017 32.1358 15.4302 32.1486C16.1228 32.1486 16.6871 32.816 16.6871 33.6374Z" fill="#57BCA1"/>
<path d="M10.5179 13.1425C10.5435 13.9125 9.8381 14.9906 9.13268 15.2986C8.47856 15.5681 7.99117 15.2601 7.96552 14.5414C7.93987 13.7842 8.64529 12.7061 9.36354 12.4109C9.97919 12.1542 10.4922 12.4879 10.5179 13.1425Z" fill="#79B987"/>
<path d="M23.4441 12.3208C22.79 12.3208 22.3411 11.8972 22.3283 11.2812C22.3155 10.4983 23.0722 9.75391 23.893 9.75391C24.5728 9.75391 24.9832 10.1389 24.9832 10.7935C25.0089 11.6277 24.2906 12.3336 23.4441 12.3208Z" fill="#2594A2"/>
<path d="M7.32055 16.1851C7.32055 16.9295 7.01273 17.5327 6.52535 18.0589C6.30731 18.2899 6.05079 18.5081 5.69166 18.3926C5.28123 18.2514 5.19145 17.8535 5.20428 17.507C5.22993 16.8011 5.4608 16.1337 5.94818 15.5819C6.2047 15.2867 6.52534 15.0172 6.9486 15.184C7.35903 15.3637 7.33338 15.8 7.32055 16.1851Z" fill="#9EB56A"/>
<path d="M18.1719 35.2569C18.1719 34.4483 18.7234 33.8579 19.4416 33.8836C20.0958 33.8965 20.6088 34.4227 20.596 35.09C20.5831 35.8473 19.9931 36.4633 19.2877 36.4633C18.6336 36.4633 18.1719 35.9756 18.1719 35.2569Z" fill="#309DA1"/>
<path d="M7.46455 40.7891C7.50303 41.1613 7.7852 41.3794 8.04172 41.5976C8.22128 41.7645 8.28541 41.6105 8.33671 41.4564C8.65736 41.4051 8.75996 41.5591 8.74714 41.8543C8.84975 41.9826 8.978 42.0982 9.05496 42.2265C9.24735 42.5345 9.49104 42.5089 9.76038 42.3548C10.0682 42.3933 10.376 42.4575 10.4017 42.8554C10.6582 43.1506 10.9147 43.4586 11.1712 43.7538C11.2354 43.8436 11.261 43.9463 11.3636 44.0361C11.2867 43.9335 11.2482 43.8308 11.1712 43.7538C10.9532 43.0864 11.3251 43.2404 11.6971 43.3687L11.6843 43.3559C11.8895 43.7923 12.5051 43.9848 12.3769 44.6393C12.3512 44.742 12.7616 45.1399 13.1721 44.9859C13.1464 44.9345 13.1208 44.8703 13.0823 44.819C12.9284 44.6265 12.6719 44.4212 12.8771 44.1645C13.031 43.9848 13.2875 44.1388 13.4414 44.28C13.6723 44.4982 13.9673 44.7163 13.8262 45.0757C13.6979 45.3966 13.7749 45.6019 14.1468 45.5506C14.5573 45.4992 14.6855 45.7816 14.8651 46.0254C13.7749 45.6917 12.7488 45.2169 11.7997 44.6137C10.2606 43.6254 8.77279 42.5474 7.41325 41.3024C7.20803 41.1099 7.22086 41.0971 7.29781 40.8917C7.34912 40.8789 7.37477 40.8019 7.46455 40.7891Z" fill="#78AD9D"/>
<path d="M28.7299 12.385C28.7299 13.2192 28.2297 13.7583 27.473 13.7454C26.8317 13.7326 26.3828 13.2706 26.3828 12.5903C26.3828 11.8588 27.0113 11.1914 27.6782 11.1914C28.3067 11.1914 28.7299 11.6791 28.7299 12.385Z" fill="#2593A2"/>
<path d="M10.7838 34.7422C10.6812 35.1144 10.7196 35.6149 10.2323 35.7817C9.71922 35.9486 9.32162 35.6919 9.05228 35.2555C8.74446 34.755 8.56489 34.2288 8.73163 33.6256C8.92402 32.9454 9.50118 32.7657 10.0527 33.2021C10.5273 33.5871 10.6812 34.1261 10.7838 34.7422Z" fill="#77B989"/>
<path d="M5.78365 32.4067C5.77083 32.0216 5.71953 31.6109 6.15561 31.4698C6.63016 31.3157 6.96364 31.5853 7.20733 31.9831C7.5408 32.4965 7.72036 33.0484 7.68189 33.6644C7.66906 34.0109 7.57928 34.3703 7.20733 34.4986C6.82255 34.627 6.55321 34.3703 6.34799 34.1008C5.96322 33.5874 5.71953 33.0355 5.78365 32.4067Z" fill="#98B66F"/>
<path d="M12.8882 34.5625C13.4781 34.6652 13.8373 35.0245 14.0168 35.6021C14.1836 36.1668 14.1194 36.6673 13.6577 37.0395C13.2858 37.3347 12.901 37.2192 12.5419 36.9625C12.0673 36.6031 11.8364 35.8459 12.0032 35.3069C12.1571 34.8834 12.4136 34.6138 12.8882 34.5625Z" fill="#60BB9B"/>
<path d="M3.47335 24.4489C3.42205 23.9869 3.53748 23.5634 3.78118 23.1655C4.089 22.6906 4.57638 22.6906 4.84572 23.1912C5.29463 24.0511 5.21767 24.9238 4.75594 25.7452C4.51225 26.1815 4.06335 26.1815 3.76835 25.7837C3.47335 25.3987 3.43488 24.9366 3.47335 24.4489Z" fill="#BAB355"/>
<path d="M4.35994 28.5184C4.33429 28.4029 4.42407 28.1719 4.50102 27.9537C4.71906 27.3505 5.16797 27.2607 5.61687 27.7227C6.14274 28.2617 6.3223 29.481 5.96317 30.174C5.73231 30.6104 5.33471 30.6874 4.98841 30.3152C4.52668 29.866 4.39842 29.2628 4.35994 28.5184Z" fill="#AFB45E"/>
<path d="M16.5686 6.44266C16.2992 6.44266 16.0427 6.44266 15.9016 6.16031C15.7733 5.89079 15.8631 5.65978 16.0042 5.4416C16.4916 4.72288 17.2227 4.37635 18.0435 4.27368C18.6463 4.19667 18.9157 4.68438 18.595 5.19774C18.1461 5.94213 17.4535 6.35283 16.5686 6.44266Z" fill="#54B9A2"/>
<path d="M8.7348 10.6536C8.70915 9.90925 9.85065 8.66433 10.5946 8.61299C11.1717 8.57449 11.3769 8.84401 11.2102 9.38305C10.9537 10.1916 10.4278 10.7948 9.65826 11.1413C9.1324 11.3724 8.74763 11.1285 8.7348 10.6536Z" fill="#75B98A"/>
<path d="M14.0952 6.42969C14.6595 6.42969 14.8647 6.64787 14.7493 7.1484C14.5826 7.89279 13.3897 8.77835 12.6458 8.73985C12.2098 8.71418 12.0302 8.48316 12.1072 8.07247C12.2226 7.32808 13.3256 6.42969 14.0952 6.42969Z" fill="#5EBB9D"/>
<path d="M20.6229 5.2229C21.5463 5.21006 21.8413 5.7106 21.4437 6.39081C21.0718 7.03252 20.4818 7.32771 19.7635 7.35338C19.4942 7.36621 19.1864 7.31488 19.0453 7.04536C18.8914 6.75017 18.917 6.41648 19.1094 6.13413C19.507 5.56942 20.0457 5.24857 20.6229 5.2229Z" fill="#319DA1"/>
<path d="M31.5006 15.1954C30.9362 15.1954 30.4232 14.6307 30.4104 13.989C30.3976 13.3088 30.9234 12.7056 31.5134 12.7313C32.0649 12.7441 32.5523 13.3345 32.5651 13.9762C32.5651 14.6307 32.0778 15.1954 31.5006 15.1954Z" fill="#2B7490"/>
<path d="M24.7528 7.09754C24.7528 7.91893 23.7267 8.68898 22.9443 8.43229C22.8802 8.41946 22.8289 8.38096 22.7776 8.35529C22.3287 8.13711 22.2389 7.76492 22.3543 7.32855C22.5211 6.68684 23.406 6.18631 24.0858 6.30181C24.5091 6.37882 24.7528 6.66117 24.7528 7.09754Z" fill="#2694A2"/>
<path d="M22.1875 36.8096C22.1875 36.1038 22.7262 35.5519 23.4188 35.5391C24.0473 35.5391 24.4192 35.8984 24.4064 36.5145C24.3936 37.1818 23.8164 37.7979 23.1623 37.8236C22.6108 37.8621 22.1875 37.4257 22.1875 36.8096Z" fill="#2695A2"/>
<path d="M17.5834 37.3986C17.5834 38.1174 17.2243 38.5152 16.5701 38.5024C15.916 38.4896 15.5312 38.0532 15.5312 37.3345C15.5312 36.6671 15.9032 36.2179 16.4675 36.2051C17.0832 36.1666 17.5834 36.7056 17.5834 37.3986Z" fill="#56BCA1"/>
<path d="M28.0894 8.49794C28.0766 9.15249 27.5636 9.66586 26.9095 9.66586C26.3451 9.66586 25.9219 9.25516 25.9219 8.71612C25.9219 8.07441 26.4862 7.52254 27.166 7.53538C27.756 7.53538 28.1023 7.89473 28.0894 8.49794Z" fill="#2593A2"/>
<path d="M9.37617 37.4751C9.40182 37.796 9.33769 38.0912 9.02987 38.2324C8.73487 38.3607 8.50401 38.1939 8.29879 38.0014C7.79859 37.5265 7.51642 36.9489 7.46511 36.2687C7.43946 35.9735 7.52924 35.6912 7.81141 35.5757C8.06793 35.473 8.2988 35.5757 8.51683 35.7682C9.0427 36.2174 9.28639 36.8078 9.37617 37.4751Z" fill="#84B77F"/>
<path d="M12.1842 38.54C12.1842 38.9636 12.0816 39.2588 11.7738 39.4384C11.4403 39.6309 11.1838 39.4256 10.9658 39.2331C10.504 38.8481 10.2347 38.3475 10.2732 37.7315C10.2988 37.1026 10.799 36.8202 11.3377 37.1411C11.9021 37.462 12.1201 38.001 12.1842 38.54Z" fill="#6CB992"/>
<path d="M5.65661 13.5784C5.81052 12.8726 6.13117 12.1538 6.86224 11.679C7.3368 11.371 7.74723 11.5506 7.69592 12.0512C7.59332 12.9239 7.20854 13.6683 6.43899 14.156C5.97725 14.4383 5.64378 14.2202 5.65661 13.5784Z" fill="#99B66F"/>
<path d="M4.52667 19.8411C4.53949 20.47 4.38558 21.0604 4.01363 21.5866C3.88537 21.7791 3.69298 21.8818 3.46212 21.8176C3.2569 21.7663 3.14147 21.5994 3.10299 21.4069C2.98756 20.6497 3.02604 19.9181 3.44929 19.2507C3.6032 19.0069 3.79559 18.6989 4.14189 18.8015C4.48819 18.8914 4.51384 19.2379 4.53949 19.5331C4.53949 19.6229 4.52667 19.7256 4.52667 19.8411Z" fill="#C3B24E"/>
<path d="M20.0705 39.7741C19.4805 39.7741 19.1086 39.4019 19.1214 38.8372C19.1342 38.2597 19.6729 37.7335 20.2373 37.7463C20.776 37.7592 21.1864 38.1827 21.1736 38.7346C21.1607 39.3634 20.7118 39.787 20.0705 39.7741Z" fill="#319CA2"/>
<path d="M23.226 5.58419C22.8925 5.55852 22.5719 5.54569 22.4051 5.1735C22.2512 4.8013 22.4564 4.55745 22.6745 4.32644C23.0849 3.91574 23.5851 3.68473 24.1751 3.7489C24.7523 3.80023 24.9831 4.26227 24.7009 4.74997C24.3803 5.30184 23.8544 5.54569 23.226 5.58419Z" fill="#2794A2"/>
<path d="M21.5213 2.91406C21.7393 2.93973 22.0215 2.93973 22.1497 3.19642C22.2908 3.47877 22.0728 3.69695 21.9189 3.87663C21.47 4.40283 20.8543 4.64668 20.1874 4.71085C19.9565 4.73652 19.6615 4.68519 19.5204 4.41567C19.3793 4.13331 19.5076 3.87663 19.7128 3.67128C20.2002 3.19642 20.803 2.95257 21.5213 2.91406Z" fill="#2E9BA2"/>
<path d="M14.4032 40.6701C13.8389 40.6701 13.2617 39.9899 13.2617 39.3482C13.2617 38.8476 13.608 38.4883 14.0826 38.4883C14.6469 38.4883 15.1984 39.0787 15.2113 39.7204C15.2241 40.2466 14.8521 40.6829 14.4032 40.6701Z" fill="#5BBB9E"/>
<path d="M31.5397 9.94637C31.5269 10.5239 31.0651 10.9859 30.5264 10.9603C29.9749 10.9346 29.5773 10.4726 29.5901 9.86936C29.603 9.26616 30.0391 8.84263 30.5906 8.86829C31.1421 8.88113 31.5525 9.36883 31.5397 9.94637Z" fill="#297C95"/>
<path d="M26.8051 4.76088C27.3182 4.70954 27.6516 4.94056 27.6901 5.49243C27.7286 6.05713 27.1001 6.59617 26.4332 6.60901C25.8945 6.62184 25.5354 6.31382 25.5354 5.85179C25.5225 5.24858 26.0741 4.76088 26.8051 4.76088Z" fill="#2593A2"/>
<path d="M4.99935 32.3409C4.92239 32.5976 4.99935 32.9698 4.65305 33.0853C4.29392 33.2008 4.12719 32.8671 3.97328 32.6232C3.62698 32.097 3.49872 31.4938 3.48589 30.8778C3.47307 30.6083 3.5372 30.2874 3.84502 30.1976C4.14001 30.1206 4.29392 30.3773 4.44783 30.5826C4.80696 31.1088 4.89674 31.712 4.99935 32.3409Z" fill="#BCB255"/>
<path d="M3.29688 16.6586C3.33535 15.9143 3.61752 15.2597 4.11773 14.695C4.27164 14.5282 4.43838 14.2971 4.70772 14.4383C4.93859 14.541 4.91294 14.7977 4.91294 15.003C4.88728 15.7474 4.60511 16.4148 4.14338 16.9923C3.98947 17.1848 3.80991 17.4287 3.51491 17.2875C3.2584 17.172 3.32253 16.8897 3.29688 16.6586Z" fill="#BEB251"/>
<path d="M18.339 40.9037C18.3261 41.3914 17.8772 41.8278 17.3899 41.8278C16.8512 41.8278 16.3894 41.3401 16.4151 40.7882C16.4407 40.2748 16.864 39.8898 17.377 39.9027C17.9285 39.9283 18.3518 40.3775 18.339 40.9037Z" fill="#53B8A2"/>
<path d="M30.6544 6.77531C30.6415 7.31435 30.2054 7.71221 29.6539 7.71221C29.1409 7.69938 28.7176 7.26302 28.7433 6.77531C28.7689 6.28761 29.2692 5.79991 29.7565 5.81275C30.2439 5.81275 30.6672 6.27478 30.6544 6.77531Z" fill="#28869A"/>
<path d="M15.5708 3.72266C16.071 3.73549 16.3276 3.87667 16.0326 4.3002C15.5323 5.00608 14.8397 5.45528 13.9932 5.59645C13.5572 5.67346 13.3391 5.37827 13.57 5.03175C14.0702 4.28736 14.8013 3.87667 15.5708 3.72266Z" fill="#59BBA0"/>
<path d="M2.32031 27.389C2.37162 26.9912 2.32031 26.4265 2.75639 26.3623C3.28225 26.2853 3.34638 26.8757 3.44899 27.2735C3.57725 27.7612 3.6542 28.2746 3.48747 28.788C3.42334 28.9805 3.35921 29.173 3.15399 29.2243C2.9103 29.2757 2.78204 29.0575 2.67944 28.8778C2.42292 28.4158 2.35879 27.9024 2.32031 27.389Z" fill="#D4B042"/>
<path d="M10.2069 7.94608C9.88622 7.90758 9.78361 7.67656 9.93752 7.38138C10.3351 6.61132 10.9636 6.07229 11.7973 5.82844C12.1179 5.72576 12.2718 5.91828 12.2205 6.25197C12.1436 6.81667 10.861 7.92042 10.2069 7.94608Z" fill="#6CB992"/>
<path d="M33.2188 11.1285C33.2316 10.6537 33.3598 10.2815 33.9242 10.2815C34.4629 10.2687 34.8861 10.782 34.8605 11.4237C34.8348 11.8986 34.6424 12.258 34.1294 12.3093C33.642 12.3478 33.2188 11.7703 33.2188 11.1285Z" fill="#2E6185"/>
<path d="M24.6765 39.9277C24.6893 40.5052 24.1378 40.9929 23.4837 40.9801C23.0091 40.9801 22.7141 40.7619 22.727 40.2614C22.727 39.7223 23.3041 39.2218 23.8941 39.2346C24.3302 39.2346 24.6508 39.4143 24.6765 39.9277Z" fill="#2694A2"/>
<path d="M6.77092 36.4231C6.7581 36.6156 6.7581 36.8338 6.56571 36.9237C6.34767 37.0263 6.15528 36.898 6.00137 36.7312C5.52681 36.2178 5.25747 35.6017 5.14204 34.9215C5.10356 34.7033 5.14204 34.4852 5.36008 34.3697C5.60377 34.2285 5.75768 34.421 5.89876 34.5622C6.45028 35.0627 6.65549 35.7172 6.77092 36.4231Z" fill="#A3B568"/>
<path d="M7.14348 10.394C6.82284 10.3811 6.74588 10.1501 6.83566 9.90626C7.11783 9.11053 7.63087 8.46882 8.41325 8.09663C8.70824 7.95545 9.04171 8.03246 8.91346 8.43032C8.64411 9.29021 8.06695 9.93192 7.25892 10.3555C7.23326 10.3811 7.19479 10.3811 7.14348 10.394Z" fill="#8AB67B"/>
<path d="M1.66581 23.4095C1.62733 23.0758 1.70429 22.6395 1.9095 22.2288C1.98646 22.0748 2.08906 21.9336 2.29428 21.9336C2.49949 21.9464 2.61493 22.1133 2.64058 22.2673C2.79449 23.0502 2.83297 23.8202 2.49949 24.5774C2.43536 24.7315 2.33276 24.8983 2.12754 24.8855C1.93515 24.8726 1.87102 24.693 1.79407 24.5389C1.64016 24.2053 1.69146 23.8587 1.66581 23.4095Z" fill="#D9B03D"/>
<path d="M17.7228 3.86138C17.4535 3.82287 17.197 3.92555 17.0944 3.66886C17.0046 3.42501 17.1841 3.271 17.338 3.12983C17.8383 2.66779 18.4539 2.43678 19.1208 2.3341C19.3132 2.30844 19.5184 2.32127 19.6339 2.51378C19.7621 2.71913 19.6211 2.88598 19.48 3.01432C18.9541 3.48918 18.3641 3.79721 17.7228 3.86138Z" fill="#45ABA3"/>
<path d="M8.73153 39.6437C8.70587 40.0415 8.57762 40.2597 8.21849 40.0287C7.52589 39.5795 7.14112 38.8993 6.98721 38.1036C6.92308 37.7442 7.15394 37.5132 7.53872 37.7571C8.26979 38.1934 8.53914 38.925 8.73153 39.6437Z" fill="#8AB67C"/>
<path d="M33.6038 8.08508C33.5909 8.54712 33.4242 8.86797 32.8983 8.86797C32.3981 8.86797 31.9492 8.39311 31.9492 7.85407C31.9492 7.39204 32.2955 7.00701 32.7316 7.01984C33.2318 7.03268 33.6166 7.49471 33.6038 8.08508Z" fill="#2D6889"/>
<path d="M41.8131 31.5987C41.8131 30.957 41.8131 30.3153 41.8131 29.6094C42.185 29.7891 42.0568 30.0457 42.0696 30.2511C42.0824 30.7645 42.0824 31.2778 42.0696 31.7912C42.0696 31.9452 42.1722 32.1634 41.9285 32.2276C41.7361 32.2789 41.6207 32.1249 41.5309 31.9837C41.1462 31.4062 40.7485 30.8415 40.2483 30.3024C40.2483 30.803 40.2612 31.3035 40.2483 31.804C40.2483 31.958 40.3253 32.2147 40.0816 32.2019C39.8507 32.1891 39.9277 31.9324 39.9277 31.7784C39.9149 31.2393 39.9149 30.7131 39.9277 30.1741C39.9277 29.9944 39.8251 29.7506 40.0688 29.6735C40.3381 29.5965 40.4279 29.8404 40.5433 30.0072C40.9153 30.5463 41.2872 31.0981 41.6592 31.6372C41.7105 31.6243 41.7618 31.6115 41.8131 31.5987Z" fill="#349BA8"/>
<path d="M9.36328 39.5687C9.40176 39.3377 9.29915 39.1195 9.53002 39.004C9.74806 38.9014 9.95327 38.9655 10.1328 39.0939C10.6587 39.4532 10.928 39.9794 10.9922 40.5955C11.0435 41.0703 10.71 41.2629 10.2996 41.019C9.72241 40.6982 9.44024 40.1719 9.36328 39.5687Z" fill="#73B98D"/>
<path d="M54.6123 31.7125C54.7662 30.9424 54.5482 30.2751 54.7662 29.659C54.8303 29.659 54.9073 29.659 54.9714 29.659C54.9714 30.4676 55.0355 31.289 54.9329 32.0847C54.8945 32.3927 54.5738 32.1745 54.4327 31.9692C54.0351 31.3916 53.6503 30.8013 53.1886 30.1339C53.0219 30.8783 53.2271 31.5585 53.0475 32.213C52.7269 32.136 52.8551 31.8922 52.8423 31.7382C52.8295 31.2248 52.8167 30.7114 52.8423 30.198C52.8551 30.0184 52.6884 29.736 52.9962 29.659C53.2527 29.6077 53.3425 29.8644 53.458 30.0312C53.8299 30.5574 54.1762 31.0836 54.6123 31.7125Z" fill="#349BA8"/>
<path d="M20.4066 42.8523C19.932 42.878 19.6242 42.6855 19.5986 42.185C19.5729 41.6716 20.0988 41.1711 20.6503 41.2224C21.0607 41.2609 21.4455 41.4149 21.4327 41.9539C21.4198 42.4673 20.9838 42.8523 20.4066 42.8523Z" fill="#309BA2"/>
<path d="M12.3643 40.2861C13.0826 40.2989 13.6982 41.2486 13.4289 41.8518C13.416 41.8775 13.416 41.8903 13.4032 41.9032C13.2365 42.147 13.0441 42.224 12.7491 42.1214C12.2104 41.916 11.7743 41.223 11.8898 40.7096C11.9539 40.4144 12.095 40.2347 12.3643 40.2861Z" fill="#62BA9A"/>
<path d="M23.7895 3.09401C23.5715 3.10684 23.2508 3.10684 23.161 2.78599C23.0713 2.46513 23.3663 2.28545 23.5971 2.15711C24.0075 1.92609 24.4436 1.77208 24.931 1.81058C25.1234 1.82342 25.3158 1.86192 25.3799 2.0801C25.444 2.28545 25.3414 2.4523 25.1875 2.58064C24.8028 2.90149 24.3667 3.10684 23.7895 3.09401Z" fill="#2793A2"/>
<path d="M15.3529 43.1604C14.9809 43.1476 14.4679 42.6342 14.5192 42.1978C14.5705 41.8128 14.7629 41.5433 15.2246 41.5818C15.712 41.6203 16.1994 42.0695 16.1353 42.5187C16.0968 42.8909 15.8787 43.1604 15.3529 43.1604Z" fill="#5ABBA1"/>
<path d="M26.1638 41.5969C26.1766 41.0964 26.446 40.8782 26.7538 40.6857C27.0616 40.4932 27.3951 40.506 27.7285 40.6087C27.7542 40.6087 27.767 40.6343 27.7799 40.6472C28.0107 40.8397 28.0107 41.0835 27.8953 41.3402C27.7029 41.7638 26.9846 42.1745 26.587 42.0589C26.3305 41.9819 26.1125 41.8408 26.1638 41.5969Z" fill="#2793A2"/>
<path d="M1.52523 19.895C1.53806 19.3303 1.69197 18.8041 1.97414 18.3164C2.05109 18.188 2.14087 18.0597 2.32044 18.0853C2.53848 18.1238 2.56413 18.3035 2.56413 18.4704C2.60261 19.1249 2.46152 19.741 2.205 20.3185C2.11522 20.5238 2.03827 20.819 1.74327 20.742C1.47393 20.6778 1.56371 20.3955 1.52523 20.1901C1.51241 20.1131 1.52523 19.9976 1.52523 19.895Z" fill="#D8AF3F"/>
<path d="M21.4419 2.44988C21.147 2.43704 20.8648 2.50122 20.7878 2.18036C20.7237 1.91084 20.9674 1.821 21.147 1.70549C21.6856 1.3718 22.2885 1.23063 22.9169 1.23063C23.0837 1.23063 23.2889 1.21779 23.3402 1.42314C23.3915 1.62849 23.2247 1.73116 23.0837 1.83384C22.5706 2.19319 22.0063 2.42421 21.4419 2.44988Z" fill="#2A96A2"/>
<path d="M38.013 12.8585C37.9873 13.1793 37.9489 13.5258 37.5128 13.59C37.0895 13.6413 36.6406 13.051 36.6406 12.4478C36.6406 12.0884 36.6406 11.6905 37.1537 11.6649C37.5769 11.6392 38.0002 12.2296 38.013 12.8585Z" fill="#31537E"/>
<path d="M4.09167 13.1184C4.06602 12.5794 4.82274 11.296 5.28448 11.1035C5.56664 10.988 5.77186 11.0521 5.6949 11.3986C5.51534 12.1559 5.13056 12.8104 4.5534 13.3366C4.46362 13.4265 4.34819 13.5035 4.2071 13.4393C4.06602 13.388 4.09167 13.2468 4.09167 13.1184Z" fill="#B2B25C"/>
<path d="M26.4852 3.86318C26.126 3.87602 25.7797 3.83751 25.7541 3.36265C25.7413 2.93912 26.3954 2.50276 27.011 2.52842C27.3317 2.54126 27.678 2.60543 27.678 3.02896C27.6908 3.45249 27.0752 3.86318 26.4852 3.86318Z" fill="#2693A2"/>
<path d="M35.1172 8.99731C35.13 8.58661 35.1813 8.25292 35.6046 8.22726C36.0407 8.20159 36.5537 8.89463 36.528 9.44651C36.5152 9.76736 36.3869 10.0369 36.015 10.0497C35.5661 10.0754 35.1172 9.51068 35.1172 8.99731Z" fill="#305880"/>
<path d="M23.804 42.4675C24.1374 42.429 24.4196 42.5573 24.4581 42.9423C24.4966 43.3145 23.804 43.8536 23.3038 43.8536C22.9575 43.8536 22.6625 43.7124 22.624 43.3402C22.5727 42.9295 23.214 42.4675 23.804 42.4675Z" fill="#2994A3"/>
<path d="M30.0616 4.02819C30.0103 4.49022 29.7282 4.74691 29.228 4.75974C28.7919 4.75974 28.4712 4.61857 28.4456 4.13087C28.4328 3.70734 28.8688 3.33514 29.3562 3.34798C29.7538 3.37365 30.0488 3.54049 30.0616 4.02819Z" fill="#278D9E"/>
<path d="M1.92118 29.7868C1.94683 29.6841 1.79292 29.3376 2.11356 29.2734C2.42138 29.2093 2.49834 29.5558 2.58812 29.774C2.80616 30.2873 2.92159 30.8264 2.94725 31.3654C2.96007 31.5707 2.99855 31.8403 2.74203 31.9044C2.51117 31.9558 2.43421 31.7119 2.35726 31.5451C2.08791 31.0445 1.90835 30.5055 1.92118 29.7868Z" fill="#D7AE40"/>
<path d="M72.4649 32.2634C72.1699 31.904 71.9903 31.5062 71.3875 31.519C70.8104 31.5319 70.5539 31.8399 70.323 32.3019C70.2717 32.2506 70.2204 32.1992 70.1562 32.1479C70.4897 31.365 70.8232 30.5821 71.1695 29.8121C71.2721 29.5811 71.4645 29.5297 71.5799 29.7992C71.939 30.5693 72.2597 31.365 72.5932 32.1479C72.5547 32.1864 72.5162 32.2249 72.4649 32.2634Z" fill="#329AA7"/>
<path d="M18.8395 43.4303C18.7113 43.8667 18.4034 44.1233 17.9674 44.1105C17.5441 44.0977 17.2106 43.8538 17.2491 43.4046C17.2876 42.9554 17.6082 42.6987 18.0828 42.7244C18.5189 42.7501 18.7626 43.0068 18.8395 43.4303Z" fill="#4CB0A3"/>
<path d="M4.66908 35.4088C4.65625 35.5371 4.69473 35.6911 4.54082 35.7553C4.38691 35.8066 4.30995 35.6911 4.233 35.5884C3.75844 35.0237 3.52757 34.3435 3.37366 33.6248C3.34801 33.4836 3.39931 33.3681 3.51475 33.2911C3.69431 33.1756 3.79692 33.3296 3.8867 33.4323C4.3356 34.0227 4.59212 34.69 4.66908 35.4088Z" fill="#BFB054"/>
<path d="M12.0798 5.01962C11.7591 5.00679 11.6694 4.86561 11.8361 4.64743C12.3491 3.99289 13.0546 3.59503 13.8498 3.36401C14.0934 3.29984 14.2217 3.42818 14.0934 3.68486C13.9139 4.09556 12.4389 5.03246 12.0798 5.01962Z" fill="#61B99B"/>
<path d="M46.2227 32.1515C46.5433 31.3943 46.864 30.6371 47.1974 29.8927C47.2872 29.7002 47.4668 29.5077 47.595 29.7643C47.9798 30.5472 48.3005 31.3558 48.5698 32.2157C48.2363 31.8435 47.9926 31.5226 47.3898 31.5355C46.8126 31.5483 46.5818 31.8435 46.3894 32.3184C46.3381 32.267 46.274 32.2028 46.2227 32.1515Z" fill="#319AA7"/>
<path d="M31.1646 4.99148C31.1518 4.54228 31.3698 4.27276 31.7931 4.28559C32.2548 4.29843 32.5113 4.64495 32.5498 5.09415C32.5754 5.49201 32.3189 5.77437 31.9342 5.76153C31.4981 5.73586 31.1902 5.47918 31.1646 4.99148Z" fill="#2E7190"/>
<path d="M15.505 3.3352C15.3639 3.34804 15.2228 3.2967 15.1972 3.16836C15.1715 3.09135 15.2356 2.96301 15.3126 2.89884C15.9026 2.38547 16.5952 2.09028 17.3647 1.94911C17.4673 1.92344 17.5828 1.96194 17.6341 2.06461C17.6982 2.18012 17.5956 2.25713 17.5315 2.33413C17.2749 2.66782 15.8769 3.34804 15.505 3.3352Z" fill="#5BB9A4"/>
<path d="M2.05078 16.1853C2.17904 15.4281 2.43556 14.7222 2.92294 14.1062C2.9999 14.0164 3.08968 13.888 3.24359 13.965C3.38467 14.0292 3.37185 14.1832 3.3462 14.2987C3.21794 15.0688 2.91012 15.749 2.44838 16.3779C2.38425 16.4549 2.3073 16.5575 2.19187 16.519C2.0123 16.4677 2.08926 16.3009 2.05078 16.1853Z" fill="#D4AE43"/>
<path d="M5.3739 36.5898C5.46368 36.6412 5.55346 36.6797 5.60476 36.731C6.1178 37.2829 6.48975 37.9118 6.65649 38.6433C6.68214 38.7332 6.66931 38.8872 6.60518 38.9385C6.47692 39.0412 6.37432 38.9128 6.28453 38.8358C5.74585 38.3353 5.38672 37.7193 5.16868 37.0262C5.11738 36.8209 5.15586 36.6668 5.3739 36.5898Z" fill="#A3B36A"/>
<path d="M61.5113 31.7794C61.1265 32.357 60.575 32.4083 60.0235 32.1901C59.4591 31.9591 59.2154 31.4714 59.2539 30.8554C59.3052 30.2008 59.6515 29.803 60.2672 29.6233C60.7546 29.4949 61.1522 29.5848 61.4471 30.0596C60.7802 29.8543 60.1133 29.6233 59.6772 30.3933C59.4335 30.8169 59.4848 31.2661 59.7926 31.6511C60.3056 32.28 60.8956 32.0746 61.5113 31.7794Z" fill="#369CA9"/>
<path d="M28.4867 0.386719C29.1793 0.515061 29.8976 0.579232 30.526 0.925756L30.5389 0.912922C30.3208 0.951425 30.1156 0.848751 29.9489 1.18244C29.7693 1.55463 29.2691 1.47763 28.8971 1.37495C28.7048 1.32362 28.6534 1.11827 28.8971 1.0156C29.0639 0.93859 29.2563 0.900088 29.4487 0.848751C29.2563 0.566398 29.0382 0.643403 28.7945 0.771745C28.3841 0.977093 27.9352 0.989927 27.4863 0.964259C27.3452 0.951425 26.9989 0.93859 27.3196 0.643403C27.653 0.348216 28.1019 0.540729 28.4867 0.386719Z" fill="#3B88A5"/>
<path d="M10.4022 42.8541C10.1842 42.6872 9.97898 42.5204 9.76094 42.3536C9.55572 42.0327 9.35051 41.7118 9.15812 41.3782C9.08117 41.237 9.04269 41.0316 9.22225 40.9161C9.36334 40.8263 9.51725 40.9161 9.63268 41.006C10.1072 41.391 10.4792 41.8402 10.6716 42.4306C10.7742 42.7129 10.6716 42.8284 10.4022 42.8541Z" fill="#77B78C"/>
<path d="M10.0938 4.58275C10.812 3.81269 11.6457 3.26082 12.8513 3.27366C12.2741 3.94104 11.6072 4.39023 10.8633 4.64692C10.2733 4.85227 10.8505 4.3774 10.6709 4.26189C10.4914 4.36457 10.299 4.48007 10.0938 4.58275Z" fill="#74B39E"/>
<path d="M8.61725 7.31701C8.38639 7.32984 8.28378 7.21433 8.39921 7.00899C8.79682 6.35444 9.36116 5.87958 10.0409 5.54589C10.182 5.48171 10.4001 5.46888 10.3872 5.75123C10.3616 6.11059 8.9892 7.31701 8.61725 7.31701Z" fill="#7BB689"/>
<path d="M1.70382 27.1811C1.65252 27.3992 1.85773 27.9896 1.48578 28.0281C1.07535 28.0666 1.10101 27.4891 1.02405 27.1169C0.93427 26.6549 0.857315 26.1928 1.02405 25.7308C1.06253 25.6281 1.08818 25.5126 1.19079 25.4869C1.3447 25.4484 1.40883 25.5896 1.46013 25.7051C1.66535 26.1286 1.691 26.6035 1.70382 27.1811Z" fill="#D7AF42"/>
<path d="M39.2324 10.7695C39.2324 10.962 39.1683 11.193 38.8733 11.2187C38.5013 11.2572 38.0011 10.5898 37.9883 10.0379C37.9883 9.78124 38.0011 9.51172 38.3731 9.51172C38.7322 9.51172 39.2067 10.1791 39.2324 10.7695Z" fill="#34537E"/>
<path d="M29.728 42.9058C29.5356 42.893 29.2791 42.893 29.2663 42.5721C29.2406 42.2128 30.0102 41.5967 30.4719 41.6096C30.7156 41.6096 30.9336 41.6866 30.9208 42.0074C30.8951 42.4053 30.3051 42.893 29.728 42.9058Z" fill="#2B8399"/>
<path d="M26.0245 44.6515C25.7808 44.6515 25.5499 44.6515 25.5242 44.3178C25.4986 43.9328 26.0886 43.5093 26.6401 43.4964C26.8966 43.4964 27.1788 43.4708 27.1788 43.8558C27.1916 44.2152 26.5631 44.6387 26.0245 44.6515Z" fill="#2892A3"/>
<path d="M11.6839 43.3792C11.5172 43.084 11.3248 42.8017 11.1965 42.5065C11.1324 42.3653 11.1196 42.16 11.2863 42.0316C11.4402 41.9161 11.5941 41.9675 11.7609 42.0573C12.12 42.2498 12.338 42.545 12.4919 42.9043C12.5945 43.1225 12.6843 43.3664 12.4919 43.5461C12.2867 43.7386 12.1071 43.5589 11.9276 43.4562C11.8378 43.4049 11.748 43.3921 11.6839 43.3792Z" fill="#67B897"/>
<path d="M5.73087 9.8445C5.53848 9.79316 5.52566 9.67765 5.60261 9.51081C5.94891 8.80493 6.46195 8.25305 7.09041 7.79102C7.15454 7.75252 7.25715 7.72685 7.32128 7.75252C7.39824 7.77819 7.42389 7.86803 7.38541 7.95787C7.02629 8.68942 6.52608 9.31829 5.8463 9.78033C5.80783 9.81883 5.76935 9.83166 5.73087 9.8445Z" fill="#9CB371"/>
<path d="M7.46431 40.7859C7.41301 40.8372 7.34888 40.8886 7.29758 40.9271C6.61781 40.1442 5.61739 39.6822 5.0787 38.7581C5.01457 38.6554 4.88631 38.5912 4.93761 38.3987C5.32239 38.3859 5.38652 38.7966 5.63021 38.9378C5.75847 39.0148 5.7713 39.6051 6.10477 39.0918C6.19455 39.1431 6.28433 39.1945 6.34846 39.2586C6.78454 39.7078 7.2078 40.1955 7.46431 40.7859Z" fill="#9BA97E"/>
<path d="M1.15243 22.357C1.20374 22.7805 1.12678 23.1912 1.01135 23.6019C0.972871 23.7174 0.921568 23.8586 0.767657 23.8458C0.626573 23.8458 0.600921 23.7046 0.588095 23.6148C0.44701 22.8704 0.498314 22.1388 0.767657 21.4329C0.806135 21.3303 0.895916 21.2276 0.998523 21.2661C1.10113 21.2918 1.15243 21.4073 1.15243 21.5228C1.16526 21.7923 1.15243 22.0746 1.15243 22.357Z" fill="#D6AD44"/>
<path d="M21.3012 0.909317C21.5706 0.922151 21.5449 1.06333 21.3782 1.17884C20.7369 1.62803 20.0058 1.80771 19.2491 1.92322C19.1465 1.93605 19.031 1.91039 18.9925 1.79488C18.9284 1.6152 19.0695 1.51253 19.1978 1.44835C19.8006 1.14033 20.429 0.896482 21.1345 0.909317C21.1858 0.832311 21.2499 0.832311 21.3012 0.909317Z" fill="#359BA3"/>
<path d="M31.0505 30.9696C30.1014 30.8925 29.5242 31.1621 29.832 32.3556C29.3703 31.9706 29.5499 31.6369 29.5114 31.3546C29.4857 31.1492 29.5114 30.931 29.5114 30.7129C29.5114 29.5706 29.8705 29.3396 31.1275 29.8016C30.794 29.9556 30.499 29.9043 30.2168 29.8915C29.9218 29.8915 29.7807 29.9813 29.7807 30.2893C29.7807 30.5974 29.8834 30.777 30.2168 30.777C30.4733 30.8027 30.7299 30.7385 31.0505 30.9696Z" fill="#2E98A5"/>
<path d="M20.508 44.9439C20.2258 44.9182 19.8667 44.8926 19.9052 44.4947C19.9437 44.0198 20.3284 43.8401 20.7645 43.8401C21.0467 43.8401 21.4186 43.8145 21.4186 44.238C21.4058 44.7899 20.9697 44.8926 20.508 44.9439Z" fill="#309AA2"/>
<path d="M13.3008 43.4321C13.3008 43.2268 13.4034 43.0343 13.6984 43.0086C14.0832 42.9829 14.6475 43.5861 14.6347 43.984C14.6347 44.2664 14.4936 44.4075 14.1986 44.4075C13.801 44.3947 13.3136 43.907 13.3008 43.4321Z" fill="#5EB99F"/>
<path d="M26.7535 2.18129C26.5226 2.10428 26.2019 2.16845 26.1378 1.8476C26.0737 1.52674 26.3687 1.41123 26.6124 1.33423C26.933 1.23155 27.2665 1.11605 27.6 1.19305C27.741 1.21872 27.895 1.25722 27.9463 1.4369C27.9847 1.61658 27.8821 1.71925 27.7667 1.80909C27.4717 2.05294 27.1126 2.09145 26.7535 2.18129Z" fill="#2C93A4"/>
<path d="M25.6775 0.732138C25.8827 0.783475 26.2162 0.61663 26.2675 0.911817C26.3188 1.18134 25.9853 1.23267 25.7801 1.32251C25.344 1.50219 24.8823 1.59203 24.4077 1.55353C24.2538 1.54069 24.0871 1.50219 24.0486 1.34818C24.0101 1.1685 24.1769 1.10433 24.3051 1.02733C24.7284 0.783475 25.1901 0.757806 25.6775 0.732138Z" fill="#2993A3"/>
<path d="M35.0134 6.21058C35.0391 6.50577 34.9236 6.71111 34.603 6.72395C34.2054 6.73678 33.8078 6.27475 33.8206 5.79988C33.8206 5.53036 33.8719 5.28651 34.231 5.27368C34.5773 5.26085 35.0006 5.76138 35.0134 6.21058Z" fill="#2F5E84"/>
<path d="M21.3026 0.912909C21.2385 0.912909 21.1871 0.900075 21.123 0.900075C21.2513 0.39954 21.0461 0.335369 20.61 0.48938C20.3791 0.57922 20.1098 0.592054 19.8789 0.322535C20.4048 0.258364 20.905 0.194193 21.4052 0.117188C22.0465 0.335369 22.7134 0.0530164 23.3547 0.271198C23.3291 0.335369 23.3162 0.412375 23.2906 0.476546C23.1495 0.592054 22.9956 0.669059 22.8289 0.527883C22.3543 0.57922 21.8797 0.617722 21.4052 0.669059C21.2641 0.694728 21.2769 0.797401 21.3026 0.912909Z" fill="#4390A9"/>
<path d="M16.2232 45.1634C15.7359 45.1762 15.4793 44.9196 15.4537 44.5217C15.4409 44.2265 15.6461 43.9955 15.9796 44.0083C16.3772 44.0212 16.7106 44.2137 16.7363 44.6372C16.7619 44.9837 16.5439 45.2019 16.2232 45.1634Z" fill="#5CBAA4"/>
<path d="M29.0617 1.80859C29.4721 1.80859 29.8056 1.83426 29.7799 2.19362C29.7414 2.69416 29.3438 2.8225 28.9077 2.8225C28.5999 2.8225 28.2665 2.73266 28.3178 2.3348C28.3819 1.85993 28.8051 1.8471 29.0617 1.80859Z" fill="#2790A0"/>
<path d="M78.223 32.1616C77.7741 32.2899 77.3765 32.2257 76.9789 32.2257C76.7609 32.2257 76.6839 32.1102 76.6839 31.9049C76.6839 31.2375 76.6839 30.583 76.6839 29.9156C76.6839 29.8129 76.6711 29.6846 76.8122 29.6589C76.9917 29.6332 77.0045 29.8001 77.0045 29.9156C77.0045 30.3648 77.043 30.814 76.9917 31.2632C76.9276 31.8022 77.0815 32.0204 77.633 31.9562C77.8126 31.9434 78.0306 31.892 78.223 32.1616Z" fill="#4BA6B2"/>
<path d="M31.101 2.4375C31.4986 2.476 31.768 2.68135 31.768 3.06638C31.768 3.40007 31.4986 3.60541 31.1651 3.57975C30.806 3.55408 30.511 3.40007 30.5238 2.9637C30.5367 2.57868 30.806 2.48884 31.101 2.4375Z" fill="#2F7894"/>
<path d="M41.6065 11.96C41.5808 12.0756 41.6321 12.2424 41.4397 12.3066C41.273 12.3579 41.1576 12.2552 41.055 12.1526C40.76 11.8574 40.6574 11.4723 40.5676 11.0745C40.5291 10.9076 40.6189 10.7665 40.7471 10.6895C40.8754 10.6125 41.0037 10.728 41.0806 10.805C41.3756 11.1258 41.568 11.498 41.6065 11.96Z" fill="#37517E"/>
<path d="M22.9073 45.6772C22.7021 45.6644 22.4584 45.7157 22.4199 45.4077C22.3814 45.0868 22.9201 44.7531 23.446 44.766C23.664 44.766 23.8949 44.7532 23.9462 45.0355C23.9975 45.3435 23.4203 45.69 22.9073 45.6772Z" fill="#2B94A3"/>
<path d="M8.74469 41.8407C8.65491 41.6611 8.52665 41.5199 8.33426 41.4429C7.91101 41.1349 7.65449 40.7113 7.43645 40.2493C7.39797 40.1595 7.30819 40.0568 7.4108 39.9669C7.4621 39.9284 7.56471 39.9284 7.64166 39.9413C8.01361 40.0568 8.86012 41.2247 8.86012 41.6354C8.8473 41.7124 8.78317 41.7766 8.74469 41.8407Z" fill="#87B481"/>
<path d="M36.2969 6.71167C36.2969 6.50633 36.3097 6.31381 36.5662 6.30098C36.874 6.28814 37.3614 6.90419 37.3871 7.32772C37.3999 7.53306 37.3486 7.71274 37.1049 7.72558C36.7714 7.75125 36.3097 7.14804 36.2969 6.71167Z" fill="#355782"/>
<path d="M3.8863 36.3197C3.89913 36.14 3.75804 35.9604 3.89913 35.6523C4.55325 36.3197 4.91237 37.0769 5.23302 38.0138C4.61738 37.7443 4.48912 37.1796 4.12999 36.8331C3.93761 36.7176 3.86065 36.5379 3.8863 36.3197Z" fill="#B7AF5F"/>
<path d="M14.8909 2.06819C15.3141 2.1067 15.6604 1.68317 16.2119 1.88851C15.5065 2.47889 14.7626 2.78691 13.9161 2.99226C13.852 2.55589 14.3265 2.60723 14.365 2.32488C14.4676 2.09386 14.6344 2.00402 14.8909 2.06819Z" fill="#5EB7A3"/>
<path d="M28.4579 45.2904C28.304 45.2775 28.0988 45.3417 28.0859 45.0722C28.0859 44.777 28.8683 44.2765 29.3044 44.2893C29.484 44.3021 29.6507 44.3663 29.6507 44.5845C29.6635 44.8668 28.9324 45.2904 28.4579 45.2904Z" fill="#2B90A2"/>
<path d="M22.8288 0.524404C22.9827 0.51157 23.1366 0.498736 23.2905 0.473067C23.7394 0.344725 24.2012 0.383228 24.6885 0.408896C24.3551 0.781089 22.8031 1.19178 22.4568 1.0121C22.3286 0.947933 22.3158 0.858094 22.4055 0.781089C22.5466 0.678415 22.6877 0.614244 22.8288 0.524404Z" fill="#3192A5"/>
<path d="M33.4748 42.7784C33.4492 43.0608 33.2055 43.2148 32.9746 43.3431C32.7181 43.4843 32.4616 43.6896 32.141 43.5741C31.9742 43.51 31.987 43.3175 32.0768 43.1891C32.3462 42.7784 32.7438 42.5346 33.2312 42.4961C33.3979 42.4704 33.4748 42.5731 33.4748 42.7784Z" fill="#326B8D"/>
<path d="M2.24257 32.4453C2.81974 33.0999 3.10191 33.8699 3.14038 34.7298C2.53757 34.0881 2.22975 33.3309 2.24257 32.4453Z" fill="#D2AC49"/>
<path d="M18.1611 45.8962C17.8918 45.8192 17.5583 45.8192 17.5968 45.4213C17.6353 45.0106 17.9944 44.9336 18.3022 44.9336C18.5716 44.9336 18.8794 45.0234 18.8537 45.3956C18.8281 45.8577 18.4433 45.8063 18.1611 45.8962Z" fill="#4BADA5"/>
<path d="M7.42578 7.13608C7.77208 6.09651 8.11838 5.78849 9.34966 5.39062C8.78532 6.13501 8.22099 6.64838 7.42578 7.13608Z" fill="#84AE85"/>
<path d="M3.20703 12.8838C3.33529 12.0239 3.77137 11.3566 4.43832 10.8047C4.2844 11.6517 3.84833 12.332 3.20703 12.8838Z" fill="#C0AD55"/>
<path d="M66.0405 30.9425C66.0405 31.2762 66.0405 31.6228 66.0405 31.9565C66.0405 32.0591 66.0277 32.1746 65.8994 32.2003C65.7712 32.226 65.707 32.1233 65.707 32.0078C65.707 31.2891 65.707 30.5704 65.7199 29.8516C65.7199 29.749 65.7712 29.6463 65.9123 29.672C66.0149 29.6848 66.0405 29.7746 66.0405 29.8645C66.0405 30.2238 66.0405 30.5832 66.0405 30.9425Z" fill="#5DAFBA"/>
<path d="M33.7303 3.96642C33.7431 4.22311 33.6661 4.38995 33.384 4.37712C32.9351 4.33862 32.7042 4.05626 32.6785 3.64557C32.6529 3.37605 32.8068 3.18354 33.1018 3.23487C33.4994 3.29905 33.7046 3.56856 33.7303 3.96642Z" fill="#2E6689"/>
<path d="M1.48786 30.8648C0.987653 30.1333 0.833742 29.3247 0.936349 28.4648C1.43656 29.1836 1.57764 29.9921 1.48786 30.8648Z" fill="#D5AD48"/>
<path d="M0.922628 18.1094C1.08936 17.981 1.05089 17.6987 1.41001 17.5703C1.43566 18.4687 1.16632 19.2388 0.832847 20.0858C0.589155 19.8291 0.678936 19.5981 0.66611 19.3928C0.717414 18.9564 0.601981 18.4944 0.922628 18.1094Z" fill="#D2AA46"/>
<path d="M18.994 0.78196C19.3275 0.807628 19.6353 0.525275 20.0585 0.743457C19.289 1.25683 18.4553 1.398 17.5703 1.59052C17.6344 1.24399 17.8397 1.20549 18.0449 1.15415C18.2501 0.756291 18.6092 0.756291 18.994 0.78196Z" fill="#47A3A5"/>
<path d="M34.7578 4.32606C34.7835 4.19772 34.7193 4.01804 34.9502 3.99237C35.2195 3.97954 35.7967 4.63408 35.7839 4.92927C35.7711 5.09612 35.6941 5.21162 35.5145 5.21162C35.1811 5.23729 34.7578 4.72392 34.7578 4.32606Z" fill="#355D85"/>
<path d="M3.88701 36.3197C4.0281 36.4609 4.10505 36.6405 4.1307 36.8331C4.0794 36.9101 4.1307 37.1924 3.95114 36.9871C3.43811 36.4095 3.02768 35.755 2.70703 34.9336C3.42528 35.2031 3.41245 35.9732 3.88701 36.3197Z" fill="#BCA46B"/>
<path d="M18.9943 0.781242C18.6865 0.89675 18.3658 1.02509 18.058 1.1406C17.7117 0.948087 17.4295 1.24327 17.1217 1.29461C16.878 1.33311 16.6343 1.46146 16.3906 1.20477C17.1602 0.935252 17.9169 0.678568 18.7249 0.601562C18.8917 0.601563 18.9558 0.640065 18.9943 0.781242Z" fill="#6CA4B0"/>
<path d="M25.2034 46.3317C24.9597 46.3061 24.6903 46.3189 24.7673 46.1007C24.934 45.6387 25.3829 45.5874 25.8062 45.5489C25.9601 45.536 26.2423 45.5232 26.1653 45.7542C26.0114 46.2547 25.4984 46.1777 25.2034 46.3317Z" fill="#2C91A3"/>
<path d="M0.179688 26.414C0.35925 25.9135 0.192513 25.4001 0.269469 24.8867C0.590116 25.2589 0.7312 26.491 0.51316 27.184C0.256643 26.9787 0.282295 26.6707 0.179688 26.414Z" fill="#D2AD57"/>
<path d="M38.5938 7.69937C38.6322 7.55819 38.5296 7.35284 38.7733 7.34001C39.017 7.32717 39.5429 8.07156 39.5429 8.41808C39.5429 8.55926 39.53 8.79028 39.3377 8.70044C38.9016 8.52076 38.6964 8.1229 38.5938 7.69937Z" fill="#33517E"/>
<path d="M20.1088 46.4863C19.9293 46.435 19.6086 46.5377 19.6343 46.2425C19.6727 45.7933 20.0832 45.8061 20.4166 45.7805C20.609 45.7676 20.9297 45.742 20.904 46.0243C20.8784 46.4992 20.4295 46.4093 20.1088 46.4863Z" fill="#349CA3"/>
<path d="M43.413 13.3218C43.195 13.2063 43.0539 13.0009 42.9641 12.7571C42.8615 12.4876 42.6819 12.2309 42.7845 11.9228C42.823 11.7945 42.9641 11.8073 43.0411 11.8972C43.3617 12.2437 43.5926 12.6416 43.6054 13.1293C43.6054 13.2191 43.5926 13.3474 43.413 13.3218Z" fill="#3C5381"/>
<path d="M1.53906 15.977C1.6545 15.1685 1.93666 14.4241 2.43687 13.7695C2.34709 14.5909 1.97514 15.2968 1.53906 15.977Z" fill="#CEA857"/>
<path d="M30.6135 45.7401C30.4596 45.7914 30.357 45.7658 30.3057 45.6503C30.2544 45.5219 30.3698 45.4706 30.4468 45.3936C30.7289 45.1497 31.0624 45.0342 31.4087 44.9315C31.5241 44.893 31.6781 44.893 31.7294 45.0471C31.7807 45.1626 31.6781 45.2396 31.6011 45.3037C31.2933 45.5348 30.947 45.6759 30.6135 45.7401Z" fill="#337996"/>
<path d="M21.4062 46.8703C21.7525 46.4981 22.163 46.434 22.5991 46.4468C22.7145 46.4468 22.8171 46.4725 22.8556 46.588C22.8941 46.7035 22.8171 46.7933 22.7017 46.8318C22.2912 46.973 21.8808 47.1655 21.4062 46.8703Z" fill="#3996A7"/>
<path d="M35.515 29.6875C35.515 30.5089 35.515 31.3431 35.515 32.1645C35.4765 32.1645 35.4252 32.1645 35.3867 32.1645C35.3867 31.3431 35.3867 30.5089 35.3867 29.6875C35.4252 29.6875 35.4637 29.6875 35.515 29.6875Z" fill="#2894A2"/>
<path d="M36.8617 4.87792C37.131 4.90359 37.7082 5.6223 37.6569 5.86616C37.6312 5.98166 37.5543 6.04583 37.4389 6.033C37.1823 6.02017 36.6436 5.28861 36.6565 5.03193C36.6693 4.89075 36.7334 4.86509 36.8617 4.87792Z" fill="#3A5984"/>
<path d="M35.5382 43.2631C35.4741 43.5968 35.1662 43.6866 34.9354 43.8535C34.7686 43.969 34.5634 44.0845 34.3454 43.969C34.3197 43.9562 34.2812 43.892 34.2812 43.8792C34.371 43.5711 34.6404 43.43 34.8969 43.2888C35.0765 43.1861 35.256 43.0449 35.4869 43.1604C35.5125 43.1604 35.5125 43.2246 35.5382 43.2631Z" fill="#375E88"/>
<path d="M15.4017 45.4461C15.3889 45.6771 15.2863 45.8311 15.0811 45.767C14.7861 45.6899 14.5296 45.5359 14.4911 45.1894C14.4654 44.9584 14.6193 44.8814 14.8117 44.9071C15.1324 44.9584 15.3504 45.1124 15.4017 45.4461Z" fill="#5DB7A2"/>
<path d="M40.5273 8.30469C41.0917 8.54854 41.3097 8.93356 41.438 9.38276C41.4508 9.44693 41.3995 9.53677 41.3739 9.61378C41.2969 9.58811 41.2071 9.58811 41.143 9.53677C40.8223 9.22875 40.63 8.85656 40.5273 8.30469Z" fill="#3C5482"/>
<path d="M17.0576 45.9859C17.0191 46.2169 16.8652 46.3068 16.66 46.3196C16.3778 46.3453 16.1213 46.2298 16.0956 45.9474C16.07 45.7036 16.3137 45.6907 16.5189 45.6779C16.7497 45.6651 16.9678 45.7036 17.0576 45.9859Z" fill="#60B6A7"/>
<path d="M5.05078 9.44523C5.3586 8.75218 5.88446 8.23882 6.4488 7.73828C6.16663 8.457 5.64077 8.97037 5.05078 9.44523Z" fill="#A1A976"/>
<path d="M24.7255 47.0498C24.1612 47.4348 23.6866 47.4605 23.1992 47.3578C23.6096 46.9984 24.0586 46.8958 24.7255 47.0498Z" fill="#4695AD"/>
<path d="M1.46094 31.7891C1.84571 32.4179 2.11506 33.0982 2.24332 33.8297C1.83289 33.2137 1.52507 32.5463 1.46094 31.7891Z" fill="#C7A361"/>
<path d="M14.8905 2.06695C14.7238 2.15679 14.5442 2.23379 14.3775 2.32363C13.9799 2.49048 13.5695 2.65732 13.1719 2.82417C13.6977 2.28513 14.3519 2.00278 15.1727 1.74609C15.006 1.91294 14.9547 1.98994 14.8905 2.06695Z" fill="#6DAAA9"/>
<path d="M26.6914 46.6912C27.2044 46.2292 27.6405 46.1137 28.2562 46.2292C27.8073 46.6655 27.3584 46.781 26.6914 46.6912Z" fill="#2D91A4"/>
<path d="M30.8564 1.93747C30.6384 1.93747 30.3947 1.92464 30.3691 1.65512C30.3434 1.3856 30.5871 1.32143 30.8051 1.30859C31.0103 1.30859 31.254 1.32143 31.2797 1.60378C31.3053 1.88613 31.0873 1.93747 30.8564 1.93747Z" fill="#347C98"/>
<path d="M38.3867 5.64844C38.9254 5.86662 39.1434 6.30298 39.4256 6.75218C38.8741 6.73935 38.5663 6.40566 38.3867 5.64844Z" fill="#3D5684"/>
<path d="M43.4129 10.0508C43.6951 10.3331 44.0029 11.2572 43.9516 11.1674C43.7335 10.8208 43.5412 10.4615 43.3359 10.1021C43.3488 10.0764 43.3744 10.0636 43.4129 10.0508Z" fill="#626B9B"/>
<path d="M19.6735 47.4721C18.8013 47.4464 17.9805 47.2154 17.2109 46.8047C18.0318 47.0357 18.8526 47.2539 19.6735 47.4721Z" fill="#87AABF"/>
<path d="M37.2836 43.2891C36.8347 43.8923 36.3729 44.1618 35.8086 44.2773C36.1292 43.8024 36.5653 43.4944 37.2836 43.2891Z" fill="#3A5A87"/>
<path d="M25.8047 47.8325C26.6255 47.409 27.3181 47.64 27.9979 47.6144C27.3438 47.7812 26.6768 47.9224 25.8047 47.8325Z" fill="#90ABCA"/>
<path d="M18.1591 46.3204C18.3386 46.3461 18.6465 46.2563 18.6336 46.5514C18.6208 46.7825 18.313 46.8081 18.1206 46.821C17.9154 46.8338 17.6204 46.8081 17.6332 46.5514C17.6589 46.3076 17.9539 46.3204 18.1591 46.3204Z" fill="#57ACA9"/>
<path d="M32.7062 2.18226C32.719 2.41327 32.6292 2.55445 32.4625 2.52878C32.206 2.49028 31.9751 2.3876 31.9366 2.07958C31.911 1.8614 32.052 1.77156 32.2444 1.79723C32.5009 1.84857 32.6805 1.97691 32.7062 2.18226Z" fill="#356E90"/>
<path d="M0.921431 18.1099C0.908605 18.5463 0.83165 18.9826 0.664913 19.3933C0.33144 18.6874 0.741869 18.0714 0.959909 17.4297C0.934257 17.6607 0.934257 17.8789 0.921431 18.1099Z" fill="#C6AE9D"/>
<path d="M42.2227 9.35547C42.6844 9.57365 42.9024 9.98435 42.9922 10.4849C42.5561 10.241 42.3894 9.80467 42.2227 9.35547Z" fill="#47598A"/>
<path d="M33.3093 45.3555C33.0144 45.779 32.5911 45.933 31.9883 45.9715C32.3987 45.548 32.822 45.3811 33.3093 45.3555Z" fill="#3B6A91"/>
<path d="M29.6797 47.1408C30.1158 46.8969 30.5518 46.6274 31.2188 46.7558C30.6801 47.1793 30.1671 47.0895 29.6797 47.1408Z" fill="#5685AA"/>
<path d="M33.7291 2.30859C33.8061 2.39843 33.8958 2.48827 33.9728 2.57811C34.0754 2.71929 34.2806 2.8348 34.178 3.05298C34.1652 3.09148 34.0241 3.10432 33.96 3.09148C33.7034 3.02731 33.5239 2.84763 33.4598 2.59095C33.3828 2.32143 33.5624 2.32143 33.7291 2.30859Z" fill="#39658C"/>
<path d="M28.3711 47.0625C28.8328 46.6261 29.2689 46.5748 29.8461 46.5234C29.41 46.9726 28.9611 46.9983 28.3711 47.0625Z" fill="#3F8DA7"/>
<path d="M20.2364 47.0117C19.8644 47.3198 19.5053 47.2043 19.082 47.1914C19.4925 46.7679 19.672 46.7422 20.2364 47.0117Z" fill="#4D97A9"/>
<path d="M40.7326 7.5591C40.3222 7.31525 40.0144 7.00723 39.8477 6.42969C40.335 6.76338 40.6172 7.08423 40.7326 7.5591Z" fill="#485C8B"/>
<path d="M33.743 2.32308C33.6532 2.11773 33.371 2.11773 33.2812 1.79688C33.9225 2.13056 34.5895 2.29741 35.141 2.69527L35.1153 2.72094C34.9101 2.91345 34.7691 2.7081 34.6408 2.61827C34.3715 2.42575 34.0765 2.31024 33.743 2.32308Z" fill="#6C7CA9"/>
<path d="M0.486902 28.082C0.627987 28.7494 0.769072 29.404 0.910156 30.0713C0.551032 29.4553 0.384295 28.8007 0.486902 28.082Z" fill="#C3A88F"/>
<path d="M38.0409 43.4062C37.6304 43.8169 37.1815 44.1763 36.6172 44.3431C37.0276 43.9196 37.5022 43.6116 38.0409 43.4062Z" fill="#63719F"/>
<path d="M41.2578 7.625C41.6939 7.65067 41.9889 8.51056 41.9248 8.44639C41.6939 8.17687 41.4759 7.89452 41.2578 7.625Z" fill="#6E75A4"/>
<path d="M34.6914 2.90234C35.2686 3.01785 35.4866 3.31304 35.756 3.73657C35.1531 3.6724 34.9864 3.31304 34.6914 2.90234Z" fill="#3C5F89"/>
<path d="M32.9727 46.0876C33.5242 45.7282 33.9474 45.4844 34.6015 45.3945C34.0629 45.7667 33.6396 45.9977 32.9727 46.0876Z" fill="#4D6B98"/>
<path d="M36.9743 4.31246C36.5767 4.18412 36.3202 3.88893 36.1406 3.50391C36.4997 3.68359 36.8204 3.90177 36.9743 4.31246Z" fill="#4E6693"/>
<path d="M38.1439 4.97876C37.8489 4.73491 37.5539 4.47823 37.2461 4.23438C37.6822 4.29855 37.99 4.52956 38.1439 4.97876Z" fill="#576697"/>
<path d="M24.8047 47.5643C25.1638 47.4359 25.5229 47.2691 25.9718 47.3718C25.5999 47.6541 25.2023 47.6028 24.8047 47.5643Z" fill="#558EB0"/>
<path d="M28.4862 0.385369C28.1399 0.654888 27.691 0.488043 27.319 0.642054C27.2292 0.603551 27.1523 0.565049 27.0625 0.513712C27.4216 0.282696 27.8577 0.526546 28.2168 0.282696C28.3194 0.257027 28.4092 0.282696 28.4862 0.385369Z" fill="#BCCADE"/>
<path d="M16.9543 46.7174C16.6593 46.9228 16.4669 46.7688 16.2617 46.6532C16.5567 46.4864 16.5567 46.4864 16.9543 46.7174Z" fill="#7FB5B8"/>
<path d="M38.5391 4.91406C38.8341 5.05524 39.1419 5.18358 39.3727 5.4916C38.9238 5.51727 38.7443 5.19642 38.5391 4.91406Z" fill="#5E659B"/>
<path d="M20.5195 47.4367C20.8145 47.3982 21.1352 47.1159 21.5841 47.4367C21.148 47.4367 20.8274 47.4367 20.5195 47.4367Z" fill="#6398B5"/>
<path d="M30.5234 0.925769C30.78 0.887267 31.0236 0.938603 31.2032 1.15679C30.998 1.02844 30.6004 1.47764 30.5234 0.925769Z" fill="#5286A6"/>
<path d="M31.754 1.24622C31.8181 1.29755 32.0362 1.24622 32.0105 1.4644C32.0105 1.5029 31.8823 1.56707 31.8181 1.56707C31.6642 1.56707 31.5231 1.51574 31.536 1.32322C31.5488 1.22055 31.6258 1.18205 31.754 1.24622Z" fill="#5981A5"/>
<path d="M35.1546 2.69531C35.488 2.77232 35.7574 2.93916 36.1293 3.20868C35.6548 3.15734 35.3854 2.96483 35.1289 2.72098L35.1546 2.69531Z" fill="#6C7CA9"/>
<path d="M11.1592 43.7635C11.3644 43.9432 11.5824 44.1229 11.7877 44.3026C11.467 44.2256 11.1207 44.1742 11.1592 43.7635Z" fill="#FEFEFE"/>
<path d="M71.3888 29.9688C71.5812 30.4308 71.7351 30.803 71.9275 31.2522C71.5428 31.2907 71.0554 31.4319 70.9656 31.188C70.8245 30.8158 71.1836 30.4308 71.3888 29.9688Z" fill="#ECF5F6"/>
<path d="M47.492 30.082C47.6459 30.4671 47.7998 30.8393 47.9794 31.2628C47.6074 31.3013 47.1201 31.4168 47.0431 31.2371C46.8507 30.8521 47.2483 30.4799 47.492 30.082Z" fill="#F1F8F8"/>
</svg>
