<svg width="28" height="28" viewBox="0 0 28 28" fill="none" xmlns="http://www.w3.org/2000/svg">
<path fill-rule="evenodd" clip-rule="evenodd" d="M27.1684 6.35501L14.5684 0.134138C14.2058 -0.0447125 13.7928 -0.0447125 13.4302 0.134138L0.8316 6.35501C0.3262 6.60384 0 7.16061 0 7.77492C0 8.39079 0.3262 8.94756 0.8316 9.19639L13.4302 15.4173C13.6122 15.5059 13.8068 15.551 14 15.551C14.1932 15.551 14.3878 15.5059 14.5684 15.4173L27.1684 9.19639C27.6738 8.94756 28 8.39079 28 7.77492C28 7.16061 27.6738 6.60384 27.1684 6.35501Z" fill="#2360FB"/>
<path fill-rule="evenodd" clip-rule="evenodd" d="M28 11.4414L13.9748 18.5208L0 12.0526V15.4197L13.461 21.653C13.6332 21.7354 13.8166 21.7712 14 21.7712C14.1974 21.7712 14.3948 21.7261 14.5782 21.6359L28 14.8582V11.4414Z" fill="#2360FB"/>
<path fill-rule="evenodd" clip-rule="evenodd" d="M28 17.6719L13.9748 24.7512L0 18.2831V21.6501L13.461 27.8834C13.6332 27.9659 13.8166 28.0016 14 28.0016C14.1974 28.0016 14.3948 27.9565 14.5782 27.8663L28 21.0887V17.6719Z" fill="#2360FB"/>
</svg>
