<svg width="384" height="326" viewBox="0 0 384 326" fill="none" xmlns="http://www.w3.org/2000/svg">
<path d="M357.345 190.883C354.389 200.249 349.529 209.105 343.144 217.283C300.393 272.024 189.964 296.875 137.327 247.211C129.778 240.082 123.329 232.758 117.942 225.313C100.295 200.918 94.0769 175.334 97.7172 151.617C100.674 132.336 110.144 114.309 125.26 99.1498C131.256 93.1252 138.167 87.5555 145.929 82.552C252.625 13.5155 380.028 118.839 357.354 190.883H357.345Z" fill="#F3F5F8"/>
<path d="M216.286 181.209C216.748 154.539 217.145 105.971 217.108 79.3015C217.108 73.7782 217.173 68.2457 216.711 62.7316C216.341 58.2759 213.995 55.5745 209.643 54.5813C204.016 53.291 198.297 53.5044 192.605 53.7179C173.997 54.4327 155.38 54.7577 136.753 54.275C129.897 54.0986 123.032 53.7922 116.186 54.4792C114.07 54.6927 111.991 55.0453 110.023 55.9087C107.889 56.8462 106.512 58.3965 106.115 60.7544C105.228 66.0178 105.062 71.3368 104.886 76.6559C104.581 86.1894 104.591 95.7136 104.748 105.247C105.053 123.701 105.413 142.146 105.709 160.591C105.912 173.467 105.625 186.342 105.33 199.217C104.988 214.469 104.433 229.73 104.563 244.991C104.609 250.115 104.729 255.23 105.819 260.271C106.097 261.561 106.512 262.805 107.131 263.984C108.49 266.574 110.772 267.586 113.507 267.576C121.323 267.539 129.149 267.419 136.966 267.307C144.939 267.196 152.913 267.047 160.877 266.908C174.247 266.667 187.616 266.397 200.986 266.184C201.891 266.165 203.074 265.627 203.619 266.973C203.369 267.753 202.778 267.836 202.067 267.846C192.883 267.975 183.708 268.143 174.524 268.291C155.001 268.597 135.487 268.894 115.964 269.201C115.41 269.201 114.856 269.294 114.301 269.275C108.471 269.062 105.94 267.038 104.378 261.375C104.221 260.791 104.055 260.206 103.888 259.621C103.722 258.164 103.547 256.706 103.399 255.249C102.761 248.936 102.927 242.596 102.909 236.265C102.909 235.504 103.085 226.147 103.121 224.485C103.399 211.861 103.602 199.245 103.898 186.621C104.332 168.361 103.842 150.111 103.547 131.861C103.251 113.555 102.881 95.2587 103.205 76.9529C103.214 76.1917 103.205 75.4399 103.214 74.6787C103.463 71.1419 103.713 67.6144 103.962 64.0776C103.972 63.9291 103.99 63.7713 103.999 63.6228C104.637 57.5146 105.718 54.3956 114.329 53.0496C120.889 52.0192 127.532 52.3719 134.129 52.5576C152.238 53.0588 170.348 52.8825 188.448 52.2327C194.499 52.0099 200.551 51.7871 206.594 52.3812C208.312 52.5483 209.975 52.9103 211.611 53.4765C215.639 54.8597 217.737 57.7653 218.189 61.9147C218.762 67.1131 218.679 72.3487 218.679 77.5656C218.679 91.1557 218.531 104.737 218.448 118.327C218.448 118.782 218.503 119.236 218.531 119.682C218.402 127.888 218.282 172.334 218.143 180.54M210.668 172.111C210.715 157.51 210.761 117.649 210.761 103.047C210.761 94.6275 210.668 86.2172 210.595 77.7977C210.558 72.7757 208.867 70.7706 203.97 69.7773C198.278 68.6169 192.513 68.682 186.775 69.0069C171.244 69.8887 155.722 70.1022 140.172 69.471C134.027 69.2204 127.865 68.9883 121.73 69.7773C120.27 69.963 118.865 70.3343 117.48 70.8356C115.05 71.7081 113.728 73.3884 113.377 75.969C112.435 82.8197 112.278 89.7076 112.158 96.6048C111.89 111.866 112.065 127.136 112.241 142.397C112.398 156.238 112.703 170.078 112.878 183.91C113.054 197.509 111.871 211.062 111.372 224.634C111.169 230.204 110.947 235.792 112.176 241.297C112.333 241.984 112.555 242.67 112.814 243.32C113.544 245.167 114.791 246.254 116.879 246.43C121.868 246.838 126.858 246.941 131.856 246.968C148.154 247.061 164.453 246.681 180.751 246.291C181.102 246.291 181.463 246.272 181.814 246.291C182.266 246.319 182.608 246.551 182.636 247.024C182.673 247.572 182.331 247.878 181.804 247.915C180.65 247.98 179.485 248.036 178.33 248.055C160.064 248.398 141.798 248.909 123.531 248.482C121.416 248.435 119.3 248.277 117.184 248.129C113.83 247.906 112.038 246.504 111.021 243.265C109.543 238.54 109.552 233.666 109.645 228.793C109.894 215.667 111.197 202.578 111.234 189.443C111.261 180.875 111.067 172.306 110.957 163.738C110.661 142.239 110.217 120.74 110.485 99.2411C110.578 91.6384 110.689 84.0357 111.668 76.4702C112.232 72.1165 113.451 70.0836 119.133 68.5891C121.933 67.8557 124.816 67.7165 127.689 67.6701C137.686 67.5123 147.665 68.1435 157.653 68.2642C168.657 68.3941 179.633 67.4751 190.637 67.2801C195.682 67.1873 200.736 67.141 205.67 68.5334C210.197 69.8052 212.064 72.1259 212.193 76.7859C212.313 81.2417 212.424 85.7066 212.415 90.1717C212.405 112.692 212.359 150.473 212.322 172.984" fill="#202D37"/>
<path d="M261.918 188.867L240.667 224.82L233.433 255.76L212.949 273.74C256.957 275.755 295.929 262.555 329.532 233.119C320.478 216.567 310 202.467 297.887 191.216L296.159 184.606L261.909 188.877L261.918 188.867Z" fill="white"/>
<path d="M208.756 219.802H211.962L220.055 216.952L233.101 205.423L244.244 237.745L250.314 243.816L251.229 247.78L250.01 251.753L253.049 255.717V261.213L256.265 267.126L212.95 273.735L205.457 226.216L208.756 219.802Z" fill="white"/>
<path d="M329.541 233.112C329.042 233.724 328.081 233.576 327.786 232.842C325.781 227.997 325.005 227.031 321.872 221.712C315.368 210.638 307.2 200.947 297.702 192.36C296.769 191.515 296.196 190.624 296.307 189.343C296.446 187.765 295.826 187.858 294.653 188.452C288.102 191.719 281.127 193.502 273.846 193.873C269.993 194.068 266.085 194.105 262.638 191.849C262.574 191.627 262.518 191.218 262.435 191.209C262.093 191.181 262.038 191.525 261.927 191.784C256.189 199.888 250.572 208.057 246.183 217.006C245.703 217.99 245.084 218.37 244.049 218.064C243.522 216.616 244.529 215.595 245.093 214.49C249.066 206.683 253.87 199.387 259.017 192.323C260.8 189.872 261.668 187.152 261.761 184.172C262.223 168.893 262.565 153.613 262.749 138.324C262.759 137.21 261.927 136.282 260.828 136.162C256.088 135.651 251.348 135.001 246.682 133.98C242.376 133.033 242.053 132.012 245.028 128.828C249.14 124.428 253.602 120.409 258.231 116.575C260.67 114.56 263.165 112.611 265.669 110.671C266.445 110.067 266.999 109.659 265.743 108.907C259.765 105.342 258.601 98.9095 260.837 93.9617C263.433 88.2249 269.651 85.4215 276.063 87.0831C282.161 88.6612 287.049 92.2444 291.65 96.2824C294.108 98.4361 297.952 102.177 299.975 104.748C300.917 105.937 301.564 105.872 302.47 104.953C303.31 104.099 304.373 103.616 305.509 103.337C308.244 102.669 310.554 104.516 310.499 107.338C310.425 111.302 308.743 114.83 307.33 118.413C307.145 118.877 306.72 119.267 306.914 119.935C308.789 120.139 310.73 119.833 312.624 120.288C315.109 120.891 317.428 121.792 318.149 124.539C318.879 127.343 317.687 129.599 315.599 131.427C311.875 134.676 307.367 136.366 302.738 137.74C301.518 138.102 300.64 139.188 300.539 140.469C299.3 156.231 298.293 172.003 298.312 187.821C298.312 189.306 298.968 190.698 300.058 191.692C312.679 203.091 322.51 216.57 329.68 231.998C329.846 232.36 329.791 232.796 329.541 233.112Z" fill="#202D37"/>
<path d="M264.896 154.634C264.656 154.634 264.406 154.634 264.166 154.634C264.166 160.658 264.194 166.683 264.138 172.698C264.129 173.886 264.434 174.564 265.561 175.084C268.324 176.355 271.17 176.977 274.191 176.773C281.776 176.272 288.706 173.348 295.746 170.841C296.523 170.563 296.624 170.025 296.652 169.338C296.744 166.813 296.818 164.288 296.985 161.763C297.511 153.947 298.093 146.121 298.62 138.305C298.703 137.107 299.193 136.476 300.422 136.198C303.517 135.511 306.455 134.313 309.319 132.967C311.592 131.891 313.819 130.656 315.343 128.54C317.034 126.191 316.323 123.759 313.652 122.775C311.814 122.097 309.911 121.967 307.943 122.06C306.206 122.144 304.847 122.598 303.951 124.223C303.304 125.402 302.214 125.782 300.847 125.727C293.668 125.448 289.695 121.429 289.787 114.309C289.806 112.898 289.473 112.629 288.096 112.722C282.081 113.121 276.094 112.954 270.301 111.051C269.386 110.744 268.712 110.939 268 111.505C266.032 113.074 264.009 114.578 262.06 116.165C256.664 120.584 251.388 125.142 246.593 130.238C245.493 131.408 245.872 131.696 247.203 131.965C252.395 133.014 257.634 133.673 262.891 134.258C264.425 134.434 264.961 134.954 264.933 136.56C264.841 142.584 264.896 148.609 264.896 154.634Z" fill="#202D37"/>
<path d="M262.379 191.003C263.525 190.139 264.245 190.501 265.012 190.798C267.017 191.569 269.124 191.81 271.258 191.866C272.191 191.894 272.468 191.606 272.404 190.631C272.21 187.986 272.117 185.331 272.006 182.685C271.969 181.896 271.923 180.968 272.977 180.884C274.058 180.801 274.085 181.71 274.122 182.518C274.242 185.164 274.381 187.819 274.492 190.464C274.529 191.244 274.575 191.773 275.674 191.662C282.41 190.928 288.804 189.127 294.837 186.018C295.863 185.489 296.306 184.82 296.288 183.604C296.241 180.504 296.288 177.385 296.445 174.284C296.519 172.882 296.057 172.938 295.022 173.337C293.285 174.024 291.529 174.683 289.746 175.203C288.573 175.547 288.305 176.206 288.397 177.338C288.61 179.984 288.73 182.63 288.868 185.284C288.905 185.962 288.822 186.677 287.981 186.751C287.011 186.835 286.863 186.073 286.817 185.322C286.706 183.446 286.595 181.571 286.494 179.696C286.318 176.456 286.337 176.494 283.186 177.32C277.134 178.926 271.073 179.975 265.04 177.18C263.765 176.596 264.051 177.7 264.014 178.313C263.746 182.416 264.153 186.584 262.379 190.993V191.003Z" fill="#202D37"/>
<path d="M210.418 174.325C209.725 178.837 210.132 183.311 210.954 187.767C209.374 194.757 205.9 200.753 201.281 206.128C196.153 211.466 185.768 219.328 179.448 225.418C175.881 228.853 172.25 232.241 168.582 235.564C167.437 236.604 166.143 238.275 164.545 237.588C162.678 236.789 163.353 234.608 163.445 233.021C163.796 226.894 165.367 220.962 166.457 214.956C171.64 190.06 159.712 168.542 149.928 159.974C145.262 155.889 140.088 152.538 134.812 149.326C132.465 147.906 132.308 147.117 134.193 145.075C136.956 142.076 140.328 139.839 143.774 137.704C151.314 133.016 163.454 126.453 171.77 123.381C175.539 121.988 179.041 122.248 182.617 123.715C184.021 124.29 185.426 124.894 186.83 125.479C193.205 129.22 198.767 133.824 202.87 140.118C207.822 148.899 210.372 160.28 210.428 174.334L210.418 174.325ZM172.065 159.296C172.223 159.24 172.537 159.185 172.786 159.027C179.208 155.1 185.601 151.127 190.923 145.687C191.542 145.056 192.134 144.323 191.293 143.534C190.507 142.791 189.787 143.255 189.149 143.933C185.878 147.386 181.998 150.06 178.09 152.696C175.891 154.191 173.608 155.564 171.373 157.003C170.827 157.356 170.421 157.802 170.67 158.516C170.874 159.092 171.326 159.324 172.056 159.296H172.065ZM191.755 154.683C191.496 154.812 191.071 154.98 190.711 155.239C186.599 158.238 182.478 161.218 178.801 164.745C178.173 165.349 177.24 166.082 178.191 167.029C179.041 167.883 179.827 167.205 180.557 166.583C182.866 164.615 185.167 162.638 187.532 160.735C189.131 159.454 190.821 158.294 192.475 157.087C193.104 156.632 193.362 156.047 193.048 155.305C192.854 154.84 192.438 154.655 191.764 154.692L191.755 154.683ZM192.244 168.143C191.644 168.106 191.256 168.375 190.988 168.737C188.863 171.642 186.396 174.186 183.421 176.228C182.876 176.599 182.626 177.175 183.023 177.815C183.476 178.539 184.16 178.558 184.807 178.177C188.198 176.163 190.849 173.369 192.974 170.074C193.51 169.247 193.15 168.458 192.244 168.133V168.143Z" fill="#9BCFAF"/>
<path d="M202.481 204.5C202.481 204.5 202.906 202.328 204.209 202.486C204.662 202.578 204.884 203.2 206.168 203.2C214.511 203.172 220.766 199.255 225.524 192.59C226.005 191.922 226.125 191.198 226.171 190.409C226.569 183.381 224.887 176.8 221.912 170.515C220.36 167.239 218.576 164.082 215.611 161.817C214.714 161.14 213.763 160.573 212.58 160.954C208.034 162.421 203.96 164.704 200.652 168.204C200.014 168.872 199.137 169.68 199.617 170.729C200.051 171.676 201.123 171.861 202.084 172.029C204.911 172.493 207.729 172.298 210.566 172.029C212.626 171.834 212.663 172.047 212.46 174.145C211.979 179.074 211.092 184.087 214.04 188.654C214.354 189.137 214.373 189.647 213.892 190.046C213.328 190.501 212.802 190.306 212.349 189.852C211.508 189.007 211.213 187.837 210.667 186.825C209.975 183.057 209.623 179.269 210.215 175.445C210.372 174.442 209.938 174.247 209.023 174.303C206.519 174.433 203.987 174.628 201.52 174.034C199.894 173.644 198.148 173.263 197.557 171.369C196.956 169.448 198.009 168.037 199.211 166.691C201.89 163.674 205.438 161.938 208.838 159.989C214.881 158.067 216.673 158.559 220.443 163.841C225.709 171.212 228.25 179.538 228.287 188.58C228.287 190.975 228.666 193.073 229.756 195.245C234.385 204.5 238.469 213.996 241.398 223.957C242.544 228.394 243.717 232.831 245.204 237.166C245.62 238.392 246.313 239.255 247.496 239.868C249.593 240.954 251.293 242.513 252.171 244.806C252.356 246.774 252.189 248.668 251.238 250.45C250.72 251.434 250.877 252.297 251.903 252.929C253.954 254.2 254.527 256.029 254.213 258.415C253.88 260.93 254.647 263.279 256.135 265.34C256.587 265.962 257.059 266.556 256.292 267.159C255.543 267.744 254.924 267.187 254.49 266.612C252.633 264.124 251.885 261.274 252.18 258.22C252.347 256.549 251.912 255.426 250.536 254.432C248.697 253.114 248.438 251.675 249.334 249.512C250.85 245.827 250.406 244.008 247.034 242.095C245.186 241.047 243.883 239.719 243.079 237.807C242.608 236.201 242.118 234.595 241.675 232.98C239.365 224.43 236.88 215.936 233.267 207.823C232.685 206.524 232.38 206.236 231.281 207.415C227.52 211.397 223.473 215.082 219.001 218.276C217.117 219.241 215.343 220.448 213.227 220.931C212.395 221.116 211.508 221.423 210.751 221.107C209.041 220.392 208.404 221.497 207.794 222.657C206.593 224.941 206.565 227.364 206.972 229.851C207.674 234.14 213.504 267.428 213.818 271.754C213.874 272.525 214.243 273.648 212.977 273.75C211.721 273.852 211.887 272.747 211.822 271.931C211.444 267.215 205.503 233.555 204.791 228.877C204.292 225.572 205.05 222.546 207.147 219.947C207.849 219.074 208.108 218.201 208.053 217.115C207.877 213.551 207.415 210.023 206.796 206.514C206.63 205.558 206.186 205.196 205.262 205.168C203.692 205.131 202.5 204.519 202.5 204.519L202.481 204.5ZM226.689 209.206C228.213 207.582 229.442 206.18 230.782 204.899C231.475 204.24 231.512 203.711 231.105 202.894C229.913 200.527 228.749 198.132 227.677 195.709C227.067 194.326 226.679 194.669 225.913 195.607C221.764 200.722 216.488 203.999 209.956 205.02C208.801 205.196 208.616 205.586 208.847 206.644C209.605 210.135 210.076 213.681 210.095 217.245C210.104 219.158 211.028 219.269 212.405 218.972C215.056 218.396 217.209 216.837 219.39 215.324C220.36 214.655 220.572 213.968 220.184 212.882C219.334 210.506 218.567 208.102 217.791 205.707C217.56 204.992 217.107 204.082 218.124 203.683C219.251 203.247 219.547 204.249 219.824 205.038C220.461 206.867 221.016 208.733 221.681 210.552C221.93 211.239 221.736 212.4 222.559 212.502C223.353 212.595 223.871 211.564 224.508 211.035C225.183 210.478 224.656 209.819 224.49 209.243C224.028 207.693 223.492 206.162 222.984 204.63C222.725 203.85 222.485 203.033 223.566 202.736C224.508 202.476 224.767 203.237 224.989 203.934C225.506 205.521 226.023 207.108 226.698 209.197L226.689 209.206Z" fill="#202D37"/>
<path d="M264.941 136.56C264.969 134.954 264.423 134.434 262.899 134.258C257.651 133.664 252.403 133.014 247.21 131.965C245.88 131.696 245.501 131.408 246.601 130.238C251.396 125.142 256.672 120.584 262.067 116.165C264.017 114.569 266.04 113.074 268.008 111.505C268.72 110.939 269.394 110.744 270.309 111.051C276.111 112.963 282.098 113.13 288.104 112.722C289.481 112.629 289.813 112.907 289.795 114.309C289.702 121.438 293.675 125.448 300.854 125.727C302.222 125.782 303.312 125.402 303.959 124.223C304.846 122.598 306.204 122.153 307.95 122.06C309.918 121.958 311.822 122.097 313.66 122.775C316.33 123.759 317.042 126.191 315.351 128.54C313.827 130.656 311.6 131.9 309.327 132.967C306.472 134.313 303.525 135.511 300.429 136.198C299.191 136.476 298.711 137.108 298.628 138.305C298.092 146.121 297.519 153.937 296.992 161.763C296.826 164.278 296.752 166.813 296.66 169.338C296.632 170.025 296.53 170.563 295.754 170.841C288.714 173.348 281.784 176.272 274.199 176.773C271.177 176.968 268.322 176.355 265.569 175.084C264.442 174.564 264.137 173.886 264.146 172.698C264.202 166.673 264.848 142.584 264.941 136.56ZM283.845 131.148C283.872 130.368 283.974 129.431 282.921 129.338C281.812 129.245 281.886 130.22 281.784 130.981C281.544 132.698 280.907 134.221 279.511 135.316C278.421 136.161 277.128 136.541 275.797 136.81C275.123 136.95 274.494 137.228 274.679 138.064C274.855 138.853 275.501 138.908 276.204 138.843C280.241 138.5 283.595 135.14 283.845 131.148ZM307.756 126.414C305.585 126.646 303.368 127.491 301.243 128.614C300.54 128.985 299.783 129.496 300.328 130.415C300.882 131.352 301.677 130.823 302.351 130.442C304.171 129.421 306.093 128.725 308.172 128.484C308.865 128.4 309.54 128.28 309.54 127.453C309.53 126.497 308.773 126.395 307.766 126.414H307.756ZM280.86 124.743C280.86 124.288 280.86 123.842 280.86 123.387C280.86 122.441 280.555 121.679 279.484 121.661C278.43 121.642 278.061 122.357 278.061 123.323C278.061 124.223 278.052 125.123 278.061 126.024C278.079 126.98 278.44 127.685 279.511 127.648C280.482 127.62 280.805 126.952 280.833 126.08C280.851 125.634 280.833 125.179 280.833 124.724L280.86 124.743ZM270.207 123.842C270.207 124.297 270.207 124.743 270.207 125.198C270.217 126.117 270.438 126.915 271.556 126.933C272.646 126.952 272.961 126.21 272.979 125.272C272.988 124.566 272.979 123.852 272.979 123.137C272.998 122.116 272.933 121.057 271.602 121.02C270.244 120.983 270.18 122.051 270.189 123.072C270.189 123.332 270.189 123.592 270.189 123.842H270.207Z" fill="#FFE7E1"/>
<path d="M262.379 191.005C264.153 186.596 263.756 182.428 264.014 178.325C264.051 177.712 263.765 176.608 265.04 177.192C271.073 179.986 277.134 178.938 283.186 177.332C286.337 176.496 286.318 176.459 286.494 179.708C286.595 181.583 286.706 183.458 286.817 185.333C286.863 186.085 287.002 186.847 287.981 186.763C288.822 186.689 288.905 185.965 288.868 185.296C288.73 182.651 288.61 179.996 288.397 177.35C288.305 176.218 288.563 175.568 289.746 175.215C291.539 174.686 293.294 174.036 295.022 173.349C296.047 172.941 296.509 172.894 296.445 174.296C296.288 177.397 296.241 180.506 296.288 183.616C296.306 184.841 295.863 185.501 294.837 186.03C288.804 189.139 282.401 190.94 275.674 191.674C274.575 191.794 274.529 191.265 274.492 190.476C274.381 187.831 274.242 185.176 274.122 182.53C274.085 181.722 274.048 180.813 272.977 180.896C271.923 180.98 271.979 181.908 272.006 182.697C272.127 185.352 272.21 187.998 272.404 190.643C272.478 191.609 272.2 191.896 271.258 191.878C269.124 191.822 267.017 191.581 265.012 190.81C264.245 190.513 263.525 190.151 262.379 191.015V191.005ZM294.19 180.896C294.19 179.671 294.199 178.446 294.19 177.23C294.19 176.598 293.95 176.051 293.248 175.986C292.527 175.921 292.185 176.44 292.176 177.072C292.148 179.578 292.148 182.094 292.176 184.6C292.176 185.166 292.481 185.612 293.091 185.649C293.802 185.686 294.153 185.213 294.181 184.563C294.227 183.338 294.19 182.112 294.19 180.896ZM278.428 183.848C278.557 185.593 278.687 187.329 278.816 189.074C278.862 189.734 279.158 190.207 279.851 190.263C280.581 190.318 280.959 189.836 280.922 189.186C280.765 186.475 280.553 183.765 280.34 181.063C280.294 180.469 279.869 180.135 279.287 180.144C278.539 180.163 278.317 180.692 278.326 181.333C278.345 182.177 278.4 183.013 278.437 183.857L278.428 183.848Z" fill="white"/>
<path d="M210.641 186.802C211.186 187.823 211.481 188.983 212.322 189.828C212.775 190.283 213.302 190.487 213.865 190.023C214.355 189.624 214.327 189.113 214.013 188.63C211.066 184.063 211.953 179.05 212.433 174.121C212.636 172.023 212.609 171.81 210.539 172.005C207.712 172.274 204.885 172.469 202.057 172.005C201.087 171.847 200.015 171.652 199.59 170.705C199.11 169.656 199.997 168.849 200.625 168.18C203.942 164.681 208.007 162.397 212.553 160.93C213.736 160.55 214.688 161.116 215.584 161.794C218.559 164.049 220.342 167.205 221.885 170.492C224.86 176.776 226.542 183.358 226.144 190.385C226.098 191.174 225.978 191.898 225.498 192.566C220.739 199.231 214.484 203.139 206.141 203.177C204.857 203.177 204.45 202.824 203.859 202.434C207.767 197.876 209.273 192.715 210.613 186.792L210.641 186.802Z" fill="#FFE7E1"/>
<path d="M171.742 159.508C171.012 159.545 170.56 159.304 170.356 158.728C170.107 158.014 170.514 157.568 171.059 157.215C173.295 155.776 175.577 154.393 177.776 152.908C181.675 150.262 185.565 147.589 188.835 144.145C189.482 143.467 190.203 143.003 190.979 143.746C191.81 144.535 191.219 145.268 190.609 145.899C185.287 151.339 178.894 155.312 172.472 159.239C172.223 159.397 171.909 159.452 171.752 159.508H171.742Z" fill="#202D37"/>
<path d="M191.441 154.895C192.124 154.857 192.531 155.043 192.725 155.507C193.039 156.241 192.78 156.825 192.152 157.29C190.498 158.496 188.807 159.657 187.209 160.938C184.844 162.841 182.543 164.818 180.233 166.786C179.503 167.408 178.718 168.086 177.868 167.232C176.916 166.285 177.849 165.561 178.478 164.948C182.155 161.42 186.276 158.441 190.387 155.442C190.748 155.182 191.182 155.015 191.431 154.885L191.441 154.895Z" fill="#202D37"/>
<path d="M191.924 168.355C192.838 168.68 193.19 169.469 192.654 170.295C190.529 173.59 187.886 176.384 184.486 178.399C183.839 178.779 183.155 178.761 182.703 178.037C182.296 177.396 182.555 176.821 183.1 176.449C186.075 174.407 188.542 171.864 190.667 168.958C190.935 168.587 191.323 168.327 191.924 168.364V168.355Z" fill="#202D37"/>
<path d="M226.691 209.21C226.017 207.131 225.499 205.534 224.982 203.947C224.751 203.251 224.502 202.49 223.559 202.749C222.478 203.047 222.718 203.863 222.977 204.643C223.494 206.175 224.021 207.707 224.483 209.257C224.649 209.832 225.176 210.491 224.502 211.048C223.864 211.578 223.347 212.608 222.552 212.515C221.73 212.413 221.924 211.253 221.674 210.566C221.009 208.746 220.455 206.88 219.817 205.052C219.54 204.263 219.244 203.26 218.117 203.696C217.11 204.096 217.553 205.005 217.784 205.72C218.561 208.124 219.327 210.529 220.177 212.896C220.566 213.991 220.353 214.669 219.383 215.337C217.193 216.85 215.05 218.41 212.398 218.985C211.021 219.282 210.097 219.171 210.088 217.259C210.07 213.694 209.598 210.148 208.841 206.658C208.61 205.599 208.795 205.219 209.949 205.033C216.491 204.012 221.757 200.735 225.906 195.62C226.664 194.683 227.061 194.339 227.671 195.722C228.742 198.145 229.907 200.54 231.098 202.907C231.514 203.724 231.468 204.253 230.775 204.912C229.435 206.193 228.216 207.595 226.682 209.22L226.691 209.21ZM212.934 205.423C212.158 205.599 211.844 206.128 212.01 206.853C212.601 209.498 213.229 212.125 213.885 214.752C214.052 215.402 214.431 216.015 215.262 215.699C215.9 215.458 215.983 214.901 215.835 214.251C215.234 211.68 214.671 209.099 214.089 206.518C213.95 205.906 213.636 205.46 212.934 205.423Z" fill="white"/>
<path d="M283.835 131.16C283.586 135.152 280.232 138.512 276.194 138.856C275.492 138.911 274.845 138.856 274.669 138.076C274.485 137.231 275.113 136.953 275.787 136.823C277.118 136.554 278.421 136.173 279.502 135.328C280.897 134.242 281.534 132.71 281.775 130.993C281.876 130.232 281.802 129.257 282.911 129.35C283.964 129.443 283.863 130.381 283.826 131.16H283.835Z" fill="#202D37"/>
<path d="M307.757 126.412C308.755 126.384 309.521 126.487 309.531 127.452C309.531 128.278 308.865 128.408 308.163 128.482C306.094 128.724 304.163 129.42 302.342 130.441C301.668 130.822 300.883 131.351 300.319 130.413C299.774 129.494 300.531 128.974 301.234 128.612C303.359 127.498 305.576 126.644 307.747 126.412H307.757Z" fill="#202D37"/>
<path d="M280.85 124.743C280.85 125.198 280.859 125.643 280.85 126.098C280.822 126.962 280.49 127.639 279.529 127.667C278.457 127.695 278.088 126.999 278.078 126.043C278.069 125.142 278.078 124.242 278.078 123.341C278.078 122.376 278.448 121.661 279.501 121.68C280.564 121.698 280.869 122.459 280.878 123.406C280.878 123.861 280.878 124.307 280.878 124.761L280.85 124.743Z" fill="#202D37"/>
<path d="M270.208 123.843C270.208 123.583 270.208 123.323 270.208 123.072C270.199 122.051 270.254 120.984 271.621 121.021C272.943 121.058 273.007 122.116 272.998 123.137C272.989 123.852 272.998 124.558 272.998 125.272C272.98 126.219 272.665 126.953 271.575 126.934C270.457 126.915 270.235 126.126 270.226 125.198C270.226 124.743 270.226 124.298 270.226 123.843H270.208Z" fill="#202D37"/>
<path d="M294.192 180.892C294.192 182.118 294.22 183.343 294.183 184.559C294.164 185.209 293.813 185.682 293.092 185.645C292.483 185.617 292.178 185.162 292.178 184.596C292.159 182.09 292.15 179.574 292.178 177.068C292.178 176.427 292.52 175.917 293.249 175.982C293.952 176.047 294.183 176.594 294.192 177.226C294.21 178.451 294.192 179.676 294.192 180.892Z" fill="#202D37"/>
<path d="M278.441 183.848C278.404 183.003 278.339 182.168 278.321 181.333C278.311 180.692 278.542 180.154 279.281 180.144C279.873 180.135 280.289 180.469 280.335 181.063C280.557 183.774 280.76 186.475 280.917 189.186C280.954 189.845 280.575 190.318 279.845 190.263C279.152 190.216 278.866 189.734 278.81 189.074C278.681 187.329 278.552 185.593 278.422 183.848H278.441Z" fill="#202D37"/>
<path d="M212.92 205.423C213.623 205.46 213.937 205.905 214.075 206.518C214.657 209.099 215.221 211.679 215.822 214.251C215.969 214.9 215.886 215.457 215.249 215.699C214.417 216.014 214.038 215.402 213.872 214.752C213.216 212.125 212.588 209.489 211.996 206.852C211.83 206.128 212.144 205.599 212.92 205.423Z" fill="#202D37"/>
<path d="M156.7 144.648C157.532 146.059 158.548 147.349 159.518 148.658C160.488 149.967 161.403 151.248 162.438 152.464C162.715 152.789 163.149 152.946 163.537 152.686C163.861 152.473 164.036 151.916 163.759 151.582C162.724 150.357 161.8 149.057 160.839 147.776C159.878 146.495 158.844 145.177 158.021 143.766C157.504 142.884 156.183 143.766 156.7 144.648Z" fill="#202D37"/>
<path d="M153.418 147.492C151.968 147.947 150.887 149.395 151.071 150.945C151.164 151.734 151.58 152.44 152.254 152.867C152.929 153.294 153.677 153.285 154.444 153.09C155.146 152.904 155.728 152.867 156.43 153.071C156.938 153.22 157.724 153.498 157.668 154.167C157.567 155.364 155.978 156.144 154.961 155.643C154.046 155.188 153.344 156.617 154.259 157.072C155.405 157.638 156.772 157.453 157.779 156.692C158.74 155.968 159.47 154.77 159.184 153.535C158.879 152.226 157.41 151.595 156.208 151.4C155.552 151.289 154.915 151.326 154.268 151.502C153.815 151.623 153.372 151.799 152.975 151.447C152.06 150.639 153.012 149.302 153.908 149.015C154.887 148.708 154.388 147.195 153.418 147.502V147.492Z" fill="#202D37"/>
<path d="M157.195 148.005C158.535 147.206 159.819 146.315 161.048 145.359C161.371 145.099 161.538 144.626 161.27 144.254C161.029 143.93 160.521 143.753 160.17 144.032C158.941 144.997 157.657 145.879 156.317 146.677C155.957 146.891 155.846 147.448 156.095 147.782C156.363 148.144 156.816 148.237 157.195 148.005Z" fill="#202D37"/>
<path d="M163.638 142.047C162.649 143.495 161.928 145.425 162.594 147.152C163.24 148.851 164.941 149.918 166.742 149.77C167.722 149.686 168.627 149.343 169.283 148.582C169.847 147.932 170.373 147.115 170.401 146.233C170.429 145.351 169.958 144.442 169.477 143.727C168.96 142.947 168.285 142.269 167.5 141.768C166.668 141.23 165.689 141.063 164.783 141.545C163.813 142.056 163.361 143.077 163.009 144.061C162.862 144.469 162.954 144.924 163.37 145.128C163.721 145.305 163.924 145.147 164.063 144.739C164.266 144.163 164.46 143.513 164.95 143.114C165.338 142.798 166.105 142.817 166.52 143.04C167.546 143.597 168.498 144.776 168.775 145.918C168.895 146.41 168.627 146.809 168.35 147.199C167.971 147.728 167.592 148.034 166.945 148.155C165.837 148.35 164.71 147.904 164.192 146.864C163.582 145.658 164.127 144.144 164.839 143.105C165.079 142.752 165.116 142.288 164.765 141.982C164.469 141.722 163.887 141.703 163.647 142.056L163.638 142.047Z" fill="#202D37"/>
<path d="M171.815 137.462C171.732 137.462 171.464 137.351 171.307 137.332C171.02 137.286 170.734 137.304 170.457 137.406C169.939 137.62 169.542 138.13 169.302 138.613C168.821 139.569 168.84 140.72 169.191 141.713C169.856 143.598 171.815 146.039 174.023 144.879C175.076 144.322 175.705 143.078 175.594 141.899C175.501 140.878 173.912 140.962 174.005 141.992C174.069 142.707 173.681 143.449 172.933 143.607C172.656 143.663 172.36 143.486 172.148 143.31C171.796 143.022 171.593 142.762 171.325 142.372C170.826 141.658 170.411 140.776 170.549 139.903C170.614 139.504 170.771 139.272 170.993 138.947C171.011 138.919 171.085 138.864 171.048 138.882C170.946 138.929 171.094 138.91 171.168 138.929C171.418 138.994 171.649 139.04 171.907 139.049C172.332 139.077 172.674 138.604 172.656 138.204C172.628 137.731 172.249 137.48 171.815 137.453V137.462Z" fill="#202D37"/>
<path d="M171.314 134.397C172.118 135.845 173.319 136.978 174.335 138.259C175.351 139.54 176.109 140.867 177.356 141.842C178.031 142.371 179.093 141.563 178.539 140.802L178.447 140.672C177.846 139.846 176.516 140.719 177.125 141.554L177.218 141.684L178.4 140.644C177.218 139.716 176.488 138.398 175.545 137.238C174.548 136.012 173.411 134.908 172.635 133.515C172.136 132.615 170.815 133.506 171.314 134.397Z" fill="#202D37"/>
<path d="M175.14 134.404C175.122 135.546 175.002 136.688 174.799 137.811C174.706 138.34 175.103 138.767 175.621 138.767C177.136 138.767 178.633 138.888 180.12 139.157C180.545 139.231 180.97 138.962 181.054 138.535C181.137 138.108 180.86 137.671 180.435 137.597C178.818 137.309 177.173 137.17 175.528 137.179L176.351 138.136C176.582 136.873 176.702 135.601 176.72 134.32C176.72 133.893 176.286 133.55 175.88 133.568C175.427 133.596 175.14 133.977 175.131 134.413L175.14 134.404Z" fill="#202D37"/>
<path d="M181.481 129.374C181.129 129.374 180.778 129.3 180.418 129.328C180.058 129.355 179.725 129.467 179.402 129.643C178.829 129.949 178.358 130.479 178.08 131.073C177.785 131.713 177.637 132.539 178.016 133.18C178.422 133.876 179.3 134.08 180.039 134.182C180.778 134.285 181.527 134.275 182.275 134.247C182.617 134.238 182.931 134.257 183.264 134.359C183.532 134.433 183.901 134.526 184.132 134.693C184.363 134.86 184.409 135.148 184.474 135.398C184.557 135.686 184.576 135.668 184.382 135.881C184.021 136.29 183.532 136.902 182.913 136.763C181.915 136.55 181.601 138.109 182.599 138.323C183.874 138.601 184.927 137.719 185.684 136.8C186.1 136.299 186.193 135.77 186.045 135.139C185.906 134.554 185.684 133.969 185.241 133.551C184.825 133.161 184.225 132.994 183.698 132.827C183.107 132.642 182.515 132.632 181.906 132.669C181.36 132.697 180.815 132.697 180.279 132.614C180.03 132.576 179.762 132.53 179.522 132.437C179.457 132.409 179.328 132.307 179.355 132.363C179.392 132.437 179.365 132.27 179.365 132.233C179.392 131.806 179.679 131.36 180.03 131.119C180.501 130.803 181.028 130.989 181.554 130.98C182.58 130.961 182.488 129.374 181.462 129.383L181.481 129.374Z" fill="#202D37"/>
<path d="M79.6435 201.063C83.8012 197.09 84.5958 192.114 83.8382 186.711C83.4132 183.667 82.4984 180.743 81.4729 177.846C79.9761 175.071 78.4146 172.388 76.1325 170.123C72.5383 166.558 68.2974 164.869 63.3082 165.036C59.4276 165.166 55.7503 166.15 52.498 168.304C49.6708 170.179 47.8506 172.834 46.8065 176.111C45.6886 179.601 45.707 183.138 45.9657 186.711C46.8343 193.878 50.4469 199.336 56.3047 203.356C59.1504 205.305 62.2549 206.493 65.7751 206.308C65.812 205.732 65.812 205.129 66.542 204.952C67.2719 204.776 67.5398 205.296 67.817 205.816C67.9186 206.011 68.0757 206.168 68.2143 206.345C68.9719 206.001 69.8681 206.205 70.5888 205.732C69.2306 202.093 67.7708 198.51 66.0892 195.01C65.7566 194.314 65.4332 194.026 64.6941 194.574C64.0565 195.047 63.2712 195.066 62.5043 194.936C59.5292 194.407 56.5079 190.666 56.4525 187.621C56.4248 186.21 57.1732 185.319 58.1895 184.679C59.289 183.992 60.5271 184.14 61.6081 184.846C62.5782 185.477 63.3266 186.349 64.0288 187.287C66.1539 190.128 67.6876 193.293 69.1013 196.514C70.3394 199.327 71.5959 202.13 72.5568 205.054C73.3884 205.054 74.0721 204.711 74.6727 204.163C74.2846 203.736 73.9427 203.281 73.6471 202.78C71.753 199.54 70.0807 196.199 68.7964 192.68C67.9556 190.378 67.1148 188.057 67.2257 185.523C67.2811 184.177 67.9279 183.249 69.1105 182.692C70.1823 182.191 71.3187 182.163 72.2981 182.813C75.6613 185.041 75.689 190.601 72.2704 192.708C71.2541 193.34 71.4204 193.748 71.7992 194.574C73.1759 197.517 74.6819 200.394 76.2896 203.226L77.851 202.715C77.8695 202.019 77.0841 201.258 77.9065 200.626C78.6271 200.07 79.1168 200.756 79.6527 201.091L79.6435 201.063Z" fill="#F6D833"/>
<path d="M66.0883 144.818C66.0883 143.027 66.0606 141.244 66.0976 139.453C66.116 138.654 65.8296 138.125 65.035 138.014C64.1573 137.884 63.8247 138.478 63.7785 139.221C63.5567 142.924 63.529 146.638 63.7508 150.351C63.7877 151.029 64.0834 151.734 64.9888 151.585C65.8204 151.455 66.116 150.926 66.0883 150.044C66.0237 148.299 66.0698 146.554 66.0698 144.818C66.0698 144.818 66.0791 144.818 66.0883 144.818Z" fill="#202D37"/>
<path d="M46.5473 153.832C47.6283 153.851 48.1364 152.95 47.6006 151.939C46.4087 149.683 44.8102 147.724 43.101 145.868C42.4727 145.181 41.8444 144.494 41.1422 143.89C40.4954 143.333 39.7932 142.517 38.8785 143.51C37.9731 144.485 38.9247 145.088 39.4699 145.608C41.2531 147.344 42.9254 149.182 44.3945 151.196C44.838 151.799 45.1798 152.477 45.5771 153.118C45.8173 153.498 46.0853 153.86 46.5473 153.832Z" fill="#202D37"/>
<path d="M32.0411 162.586C32.9003 162.669 33.2052 162.224 33.4177 161.713C33.7042 161.008 33.1867 160.562 32.7063 160.302C30.7845 159.244 29.1584 157.796 27.4121 156.505C26.9501 156.162 26.5159 155.781 26.0354 155.466C25.4256 155.057 24.7511 154.899 24.2522 155.586C23.7163 156.32 24.1136 156.997 24.705 157.434C26.3126 158.613 27.8186 159.921 29.4817 161.035C30.3687 161.629 31.228 162.233 32.0411 162.586Z" fill="#202D37"/>
<path d="M79.7332 201.45C80.6941 204.532 82.7083 207.252 82.4034 210.798C82.2463 212.692 82.3572 214.511 81.0359 216.043C79.4745 217.843 75.4091 219.849 72.5634 217.556C71.2052 216.47 70.2812 214.957 69.385 213.546C67.9437 211.281 66.9366 208.737 65.7539 206.305C65.7909 205.729 65.7909 205.126 66.5208 204.95C67.2507 204.773 67.5186 205.293 67.7958 205.813C67.8975 206.008 68.0545 206.166 68.1931 206.333C68.7475 208.718 69.2002 208.988 71.4916 208.477C73.5889 208.004 75.5107 207.196 77.2662 205.934C78.5967 204.978 78.7723 204.151 77.8391 202.685C77.8576 201.988 77.0722 201.227 77.8945 200.596C78.6152 200.039 79.1049 200.726 79.6408 201.06C79.6685 201.19 79.6962 201.32 79.7332 201.45ZM75.6493 212.218C76.9336 211.624 78.1625 210.928 79.3913 210.222C80.3522 209.665 80.6201 207.846 79.8995 207.057C79.5576 206.676 79.2619 206.936 78.9848 207.159C76.7026 208.923 74.1618 210.111 71.316 210.584C70.1704 210.779 70.2812 211.383 70.7432 212.07C71.159 212.692 71.6209 213.332 72.7759 213.295C73.5797 213.007 74.6422 212.692 75.6401 212.227L75.6493 212.218ZM77.0537 213.74C76.0928 214.065 75.2058 214.622 74.208 214.873C73.3118 215.096 73.515 215.495 74.0047 215.959C74.0694 216.024 74.1433 216.071 74.2265 216.108C75.8711 217.082 77.257 216.108 78.6059 215.421C79.7609 214.836 80.4631 213.805 80.2506 212.32C79.0217 212.506 78.1532 213.369 77.0537 213.731V213.74Z" fill="#202D37"/>
<path d="M70.5785 205.731C69.2203 202.092 67.7605 198.509 66.0789 195.009C65.7463 194.313 65.4229 194.025 64.6837 194.573C64.0462 195.046 63.2608 195.065 62.494 194.935C59.5189 194.405 56.4976 190.664 56.4422 187.62C56.4144 186.209 57.1628 185.318 58.1792 184.677C59.2787 183.99 60.5167 184.139 61.5978 184.844C62.5679 185.475 63.3163 186.348 64.0185 187.286C66.1436 190.126 67.6773 193.292 69.0909 196.513C70.329 199.325 71.5856 202.129 72.5465 205.053C72.2139 206.223 71.4655 206.176 70.5785 205.74V205.731ZM64.1386 191.333C63.2978 189.606 62.1706 188.047 60.7477 186.756C59.9162 186.005 58.7705 186.404 58.558 187.406C58.1514 189.291 61.2189 192.911 63.1685 192.846C64.1201 192.818 64.5728 192.196 64.1386 191.333Z" fill="#202D37"/>
<path d="M74.6639 204.156C74.2758 203.729 73.934 203.274 73.6383 202.773C71.7442 199.533 70.0719 196.191 68.7876 192.673C67.9468 190.371 67.106 188.05 67.2169 185.516C67.2724 184.17 67.9191 183.242 69.1018 182.685C70.1735 182.183 71.31 182.156 72.2894 182.805C75.6525 185.033 75.6802 190.594 72.2616 192.701C71.2453 193.332 71.4116 193.741 71.7904 194.567C73.1671 197.51 74.6731 200.387 76.2808 203.218C76.133 204.202 75.4862 204.342 74.6547 204.165L74.6639 204.156ZM70.229 190.417C70.4877 191.188 70.9034 191.132 71.4301 190.77C73.2503 189.526 73.2133 185.85 71.3654 184.671C70.885 184.365 70.3398 184.346 69.8317 184.597C69.0278 184.996 69.4251 185.776 69.2958 186.231C69.2958 187.809 69.7855 189.099 70.229 190.417Z" fill="#202D37"/>
<path d="M76.2798 203.196C76.132 204.18 75.4852 204.319 74.6537 204.143C74.0531 204.69 73.3694 205.043 72.5378 205.034C72.2052 206.203 71.4568 206.157 70.5698 205.721C69.8492 206.194 68.9529 205.99 68.1953 206.333C68.7497 208.719 69.2024 208.988 71.4938 208.478C73.5911 208.004 75.5129 207.197 77.2684 205.934C78.5989 204.978 78.7745 204.152 77.8413 202.685C77.3239 202.852 76.8065 203.029 76.2798 203.196Z" fill="white"/>
<path d="M72.7891 213.287C73.593 213 74.6555 212.684 75.6534 212.22C76.9376 211.626 78.1665 210.93 79.3953 210.224C80.3562 209.667 80.6242 207.848 79.9035 207.059C79.5616 206.678 79.266 206.938 78.9888 207.161C76.7067 208.925 74.1658 210.113 71.3201 210.586C70.1744 210.781 70.2853 211.385 70.7472 212.071C71.163 212.693 71.625 213.334 72.7799 213.297L72.7891 213.287Z" fill="white"/>
<path d="M80.2421 212.334C79.0132 212.519 78.1447 213.382 77.0452 213.745C76.0843 214.069 75.1973 214.626 74.1995 214.877C73.3033 215.1 73.5065 215.499 73.9962 215.963C74.0609 216.028 74.1348 216.075 74.218 216.112C75.8626 217.086 77.2485 216.112 78.5974 215.425C79.7524 214.84 80.4546 213.809 80.2421 212.324V212.334Z" fill="white"/>
<path d="M63.1589 192.846C64.1105 192.819 64.5632 192.197 64.129 191.333C63.2882 189.607 62.161 188.047 60.7381 186.757C59.9066 186.005 58.7609 186.404 58.5484 187.407C58.1418 189.291 61.2093 192.911 63.1589 192.846Z" fill="#F6D833"/>
<path d="M69.3008 186.227C69.3008 187.805 69.7905 189.096 70.234 190.414C70.4927 191.184 70.9084 191.128 71.4351 190.766C73.2553 189.523 73.2183 185.847 71.3704 184.668C70.89 184.361 70.3448 184.343 69.8367 184.593C69.0328 184.992 69.4301 185.772 69.3008 186.227Z" fill="#F6D833"/>
</svg>
