<svg width="384" height="326" viewBox="0 0 384 326" fill="none" xmlns="http://www.w3.org/2000/svg">
<path d="M184.42 155.447C185.245 154.208 196.666 148.967 198.011 149.528C199.357 150.088 209.668 160.472 210.454 162.684C210.876 163.864 197.53 168.515 195.871 168.515C194.211 168.515 183.497 156.814 184.411 155.437L184.42 155.447Z" fill="#9BCFAF"/>
<path d="M359.203 149.991C358.378 151.524 340.024 140.934 336.204 137.867C336.204 137.867 321.936 142.065 307.284 144.11C304.809 144.464 302.305 144.73 299.87 144.917C294.646 145.33 289.667 145.31 285.621 144.543C281.329 143.737 277.568 142.724 274.288 141.357C264.773 137.385 259.215 130.453 255.689 117.159C255.611 116.844 255.522 116.539 255.444 116.205C254.511 112.547 253.588 108.948 252.743 105.3C249.335 90.3836 247.686 74.8083 255.944 52.5565C260.236 40.993 282.488 36.1552 302.02 32.9497C321.553 29.7442 329.536 29.3902 341.35 40.5407C353.154 51.6912 353.841 55.1622 355.265 71.4454C356.503 85.536 356.149 104.887 354.951 114.592C354.764 116.106 354.558 117.385 354.332 118.378C352.663 125.674 348.99 126.234 349.128 127.001C349.275 127.768 360.048 148.447 359.203 149.981V149.991Z" fill="#F3F5F8"/>
<path d="M287.106 105.537C292.929 114.327 298.723 133.61 299.902 143.964V144.918C294.677 145.331 289.698 145.311 285.652 144.544C281.361 143.738 277.6 142.725 274.32 141.358C274.379 139.686 274.566 134.446 274.507 133.806C274.448 133.039 273.043 131.781 271.737 130.994C270.441 130.227 270.461 122.538 271.737 122.017C271.737 122.017 270.785 120.571 269.734 120.502C268.683 120.463 263.557 119.824 259.531 117.031C258.411 117.297 257.115 117.366 255.711 117.159C255.544 117.14 255.377 117.1 255.21 117.081C249.033 115.901 249.76 111.663 253.433 110.65C250.064 109.411 250.359 106.677 252.755 105.311C252.981 105.183 253.207 105.085 253.452 104.976L253.207 104.524L255.996 91.8691C259.138 90.2369 259.668 88.8308 268.546 91.1022C276.412 93.1277 283.433 102.892 284.916 105.085C285.348 104.219 285.947 103.846 287.086 105.537H287.106Z" fill="white"/>
<path d="M359.195 149.992C358.37 151.526 340.016 140.936 336.196 137.868C336.196 137.868 321.927 142.066 307.276 144.112L307.384 143.453C309.112 135.134 315.966 121.034 315.966 121.034C315.966 121.034 313.197 115.97 313.197 111.752C313.197 109.765 313.57 108.88 314.866 108.34C314.228 103.394 311.626 94.0918 311.626 94.0918C311.135 93.492 310.988 92.8528 310.988 92.8528C310.988 92.8528 309.19 95.6257 306.637 94.8587C304.143 94.1114 304.821 91.3582 304.84 91.2403C304.781 91.2992 303.495 92.4595 302.405 91.6532C301.452 90.9747 302.051 88.0347 303.848 86.1468C296.503 85.7731 295.648 85.4388 295.796 84.308C295.963 83.0494 303.141 68.1723 308.513 61.4761L308.532 61.4564C308.532 61.4564 308.552 61.4171 308.591 61.3974C308.65 61.3384 308.719 61.2303 308.837 61.1123C308.876 61.0533 308.916 61.0041 308.984 60.9451C309.004 60.9058 309.043 60.8861 309.082 60.837C310.771 58.831 316.084 52.9608 320.209 52.6462C328.88 52.0267 335.155 60.5223 336.913 63.2165C336.913 63.2165 341.45 56.7465 345.27 60.6108C349.728 65.1241 340.497 71.7416 340.497 71.7416C340.497 71.7416 342.785 80.3257 347.145 92.3612C347.685 93.8755 348.235 95.3995 348.756 96.8745C351.623 104.918 354.098 112.184 354.933 114.662C354.746 116.176 354.54 117.455 354.314 118.448C352.645 125.754 348.962 126.304 349.109 127.071C349.257 127.799 360.029 148.477 359.185 150.011L359.195 149.992Z" fill="white"/>
<path d="M305.291 85.9221C305.291 85.9221 295.569 86.4432 295.5 84.2013C295.432 81.9594 308.846 61.1039 308.846 61.1039L323.232 58.2228L336.578 63.3064C342.588 55.2828 353.076 61.0252 340.516 71.7332L348.774 96.8661C338.768 103.071 327.396 106.758 314.875 108.341L309.494 87.4953L305.301 85.9221H305.291Z" fill="#FFE7E1"/>
<path d="M311.782 74.062C311.311 73.9834 310.997 73.5212 311.085 73.0689L311.478 70.8959C311.557 70.4239 312.018 70.1092 312.47 70.1879C312.941 70.2666 313.255 70.7287 313.167 71.181L312.774 73.3541C312.696 73.8064 312.264 74.1407 311.782 74.062Z" fill="#202D37"/>
<path d="M318.833 74.3749C318.362 74.2963 318.048 73.8341 318.136 73.3818L318.529 71.2087C318.607 70.7367 319.069 70.4221 319.521 70.5008C319.992 70.5794 320.306 71.0416 320.218 71.4939L319.825 73.6669C319.746 74.1193 319.314 74.4536 318.833 74.3749Z" fill="#202D37"/>
<path d="M312.703 87.2592H312.684C298.69 86.6791 296.333 86.5316 295.42 85.4598C295.008 84.9682 295.067 84.388 295.106 84.2012C295.292 82.6279 305.348 61.7625 310.897 58.0752C311.23 57.849 311.682 57.9474 311.888 58.2817C312.114 58.616 312.016 59.0683 311.682 59.2748C306.723 62.5393 296.795 82.8148 296.51 84.388C296.49 84.5158 296.51 84.5355 296.51 84.5552C297.011 85.155 302.579 85.4008 312.713 85.8138C313.106 85.8334 313.41 86.1678 313.41 86.5611C313.391 86.9544 313.077 87.269 312.684 87.269L312.703 87.2592Z" fill="#202D37"/>
<path d="M308.539 61.446C310.994 64.6515 315.973 64.799 320.637 61.1805C325.302 57.562 326.795 68.9583 331.823 67.2867C336.86 65.6151 337.42 63.9534 337.42 63.9534C337.42 63.9534 330.507 51.8491 320.225 52.5964C315.246 52.97 308.539 61.446 308.539 61.446Z" fill="#202D37"/>
<path d="M330.832 68.1914C328.584 68.1914 326.993 65.9987 325.696 64.1993C324.685 62.8128 323.654 61.3674 322.603 61.2199C322.151 61.1609 321.65 61.328 321.081 61.7804C318.331 63.9141 315.336 64.9072 312.636 64.5532C310.711 64.3074 309.1 63.393 307.971 61.9082C307.765 61.6427 307.765 61.2887 307.971 61.0232C308.256 60.6693 314.924 52.272 320.168 51.8983C330.803 51.1314 337.755 63.1078 338.05 63.6289C338.148 63.8158 338.178 64.0223 338.109 64.2288C338.001 64.5631 337.176 66.2937 332.06 67.9947C331.628 68.1226 331.235 68.2012 330.842 68.2012L330.832 68.1914ZM322.407 59.7548C322.534 59.7548 322.672 59.7548 322.799 59.7745C324.449 60.0006 325.628 61.6132 326.845 63.334C328.554 65.6939 329.801 67.1983 331.588 66.5985C334.917 65.4775 336.155 64.4254 336.567 63.9534C335.31 61.9672 328.967 52.7046 320.276 53.3241C316.308 53.6093 310.947 59.6958 309.483 61.4362C310.348 62.3507 311.487 62.921 312.832 63.0881C315.14 63.3733 317.742 62.508 320.197 60.6102C320.924 60.0498 321.68 59.7646 322.407 59.7646V59.7548Z" fill="#202D37"/>
<path d="M339.276 67.9363C339.198 67.9363 339.109 67.9166 339.031 67.8969C338.658 67.7495 338.471 67.3365 338.599 66.9628C339.571 64.2981 342.045 62.479 342.154 62.3906C342.487 62.1644 342.939 62.2234 343.165 62.5577C343.391 62.892 343.332 63.3443 342.998 63.5705C342.978 63.5901 340.769 65.2224 339.944 67.4545C339.836 67.7691 339.571 67.9264 339.286 67.9264L339.276 67.9363Z" fill="#202D37"/>
<path d="M304.899 85.2979C302.336 86.9498 301.325 90.8436 302.444 91.6499C303.564 92.4562 304.88 91.2172 304.88 91.2172C304.88 91.2172 304.114 94.0688 306.677 94.8358C309.24 95.6027 311.037 92.8299 311.037 92.8299C311.037 92.8299 311.764 95.7896 314.955 94.9833C317.312 94.3835 317.99 91.8564 317.99 91.8564C317.99 91.8564 319.355 93.5772 322.114 92.7414C324.883 91.9351 325.129 86.4778 318.785 84.5899C313.669 83.0756 306.588 84.1769 304.89 85.2979H304.899Z" fill="#202D37"/>
<path d="M313.832 95.8417C313.155 95.8417 312.526 95.6745 311.996 95.35C311.456 95.0157 311.063 94.583 310.798 94.1701C309.934 95.0353 308.382 96.117 306.418 95.5368C304.68 95.0157 304.1 93.6981 304.002 92.5181C303.364 92.7246 302.637 92.7246 301.979 92.233C301.626 91.9675 301.194 91.4267 301.233 90.2861C301.272 88.5457 302.431 86.0088 304.474 84.6813C306.369 83.462 313.597 82.3018 318.948 83.8947C323.161 85.1533 324.644 87.8475 324.644 89.9518C324.644 91.643 323.711 93.0098 322.268 93.4228C320.372 93.9832 319.027 93.5014 318.222 93.0098C317.75 93.9242 316.798 95.2222 315.089 95.6548C314.657 95.8023 314.245 95.8417 313.832 95.8417ZM310.984 92.115H311.112C311.397 92.1543 311.623 92.3805 311.691 92.6558C311.691 92.6558 311.937 93.6293 312.762 94.1012C313.282 94.4159 313.94 94.4552 314.745 94.2684C316.67 93.7767 317.24 91.6823 317.259 91.6627C317.318 91.3972 317.544 91.2104 317.819 91.1415C318.084 91.0825 318.359 91.1809 318.516 91.3874C318.556 91.4267 319.656 92.6951 321.885 92.0461C322.69 91.82 323.21 90.994 323.23 89.9616C323.23 88.3687 322.012 86.3037 318.565 85.291C313.488 83.7767 306.693 85.0058 305.289 85.9104C303.717 86.9232 302.755 88.9488 302.706 90.3352C302.686 90.8269 302.804 91.0432 302.853 91.0629C303.452 91.4955 304.356 90.6892 304.356 90.6892C304.582 90.4631 304.955 90.4434 305.22 90.6106C305.485 90.7777 305.632 91.1022 305.554 91.4169C305.495 91.643 305.033 93.6292 306.85 94.1701C308.873 94.7699 310.356 92.4985 310.385 92.4788C310.533 92.2526 310.758 92.1248 310.984 92.1248V92.115Z" fill="#202D37"/>
<path d="M314.887 109.046C314.533 109.046 314.229 108.781 314.17 108.427C313.551 103.589 310.988 94.3856 310.949 94.2774C310.851 93.8841 311.076 93.4908 311.45 93.3925C311.842 93.2843 312.235 93.5203 312.333 93.8841C312.432 94.2578 314.955 103.294 315.594 108.24C315.633 108.633 315.368 109.007 314.975 109.046C314.955 109.027 314.936 109.046 314.896 109.046H314.887Z" fill="#202D37"/>
<path d="M255.756 92.5586C260.165 86.7375 277.282 91.0246 285.187 105.459C282.801 113.237 278.607 119.058 271.743 122.028L271.036 121.054C266.411 120.14 261.923 119.019 258.378 116.511L255.746 92.5684L255.756 92.5586Z" fill="#FFE7E1"/>
<path d="M324.804 121.869C324.077 121.869 323.361 121.85 322.654 121.791C322.261 121.751 321.956 121.397 321.996 121.004C322.035 120.611 322.388 120.296 322.781 120.345C329.753 120.945 338.248 118.398 344.916 113.728C345.25 113.502 345.701 113.58 345.927 113.915C346.153 114.249 346.075 114.701 345.741 114.927C339.466 119.313 331.639 121.879 324.804 121.879V121.869Z" fill="#202D37"/>
<path d="M284.756 105.553C284.53 105.553 284.304 105.445 284.157 105.239C282.301 102.574 275.692 93.6753 268.386 91.8169C260.952 89.9093 259.656 90.6566 257.486 91.8759C257.132 92.0824 256.759 92.2889 256.346 92.515C255.993 92.7019 255.561 92.5544 255.374 92.2004C255.188 91.8464 255.335 91.4138 255.688 91.2269C256.081 91.0204 256.435 90.8139 256.788 90.6271C259.391 89.1423 261.119 88.454 268.759 90.4206C276.546 92.4265 283.44 101.65 285.375 104.423C285.601 104.757 285.522 105.209 285.188 105.435C285.041 105.494 284.903 105.544 284.756 105.544V105.553Z" fill="#202D37"/>
<path d="M271.735 122.745C271.509 122.745 271.263 122.617 271.136 122.411C270.821 121.959 270.164 121.251 269.692 121.231C269.633 121.231 263.702 120.857 258.978 117.524C258.644 117.298 258.566 116.846 258.811 116.511C259.037 116.177 259.489 116.098 259.823 116.344C263.496 118.93 268.366 119.717 269.771 119.776C271.155 119.835 272.226 121.428 272.353 121.614C272.579 121.949 272.481 122.401 272.147 122.608C272 122.686 271.862 122.735 271.735 122.735V122.745Z" fill="#202D37"/>
<path d="M255.76 110.43C268.212 111.443 262.919 118.543 255.2 117.068C247.894 115.662 250.251 109.968 255.76 110.43Z" fill="#FFE7E1"/>
<path d="M257.299 118.005C256.592 118.005 255.836 117.946 255.05 117.779C250.896 116.992 249.659 114.888 249.885 113.187C250.15 111.26 252.428 109.44 255.787 109.716C261.335 110.168 263.152 111.741 263.692 113C264.085 113.914 263.918 114.878 263.221 115.734C262.268 116.953 260.127 118.005 257.299 118.005ZM255.148 111.142C252.959 111.142 251.476 112.263 251.328 113.393C251.142 114.721 252.713 115.871 255.315 116.373C258.477 116.972 261.139 116.058 262.111 114.839C262.464 114.406 262.543 113.973 262.376 113.58C262.189 113.128 261.119 111.614 255.689 111.181C255.522 111.142 255.335 111.142 255.148 111.142Z" fill="#202D37"/>
<path d="M255.993 104.553C268.975 104.513 264.124 112.035 255.993 111.209C248.294 110.423 250.228 104.572 255.993 104.553Z" fill="#FFE7E1"/>
<path d="M257.264 111.996C256.832 111.996 256.399 111.976 255.918 111.937C251.588 111.504 250.115 109.518 250.203 107.797C250.282 105.87 252.354 103.845 255.987 103.825H256.115C260.632 103.825 263.529 104.739 264.432 106.45C264.884 107.296 264.805 108.25 264.206 109.135C263.274 110.58 260.74 111.986 257.273 111.986L257.264 111.996ZM256.007 105.27C253.404 105.27 251.715 106.618 251.656 107.856C251.597 109.184 253.326 110.216 256.075 110.482C259.444 110.816 262.164 109.617 263.038 108.328C263.323 107.896 263.391 107.483 263.185 107.129C262.959 106.696 261.742 105.27 256.144 105.27H256.016H256.007Z" fill="#202D37"/>
<path d="M256.582 110.099C261.885 107.09 263.938 100.66 261.168 95.753C258.389 90.8464 251.839 89.3026 246.527 92.3213C241.224 95.3301 239.171 101.761 241.95 106.667C244.729 111.574 251.28 113.118 256.582 110.099Z" fill="#FBA420"/>
<path d="M255.177 102.019C255.403 102.658 255.442 103.218 255.304 103.71C255.157 104.212 254.833 104.644 254.293 105.018L254.872 106.67C254.872 106.67 254.892 106.778 254.872 106.817C254.853 106.857 254.813 106.896 254.774 106.896L252.584 107.663C252.584 107.663 252.476 107.683 252.437 107.663C252.398 107.643 252.348 107.604 252.348 107.555L251.838 106.09C251.425 106.217 251.033 106.316 250.699 106.375C250.659 106.375 250.62 106.375 250.571 106.355C250.532 106.335 250.492 106.296 250.492 106.257L250.06 104.438C250.041 104.379 250.06 104.339 250.08 104.29C250.119 104.251 250.159 104.231 250.227 104.212C250.375 104.192 250.512 104.172 250.659 104.153C250.807 104.133 251.013 104.094 251.239 104.025C251.465 103.985 251.691 103.926 251.877 103.838C252.083 103.779 252.27 103.671 252.398 103.572C252.525 103.464 252.604 103.346 252.623 103.238C252.643 103.13 252.663 103.032 252.663 102.943C252.663 102.855 252.663 102.796 252.643 102.737C252.623 102.678 252.584 102.609 252.545 102.55C252.506 102.491 252.417 102.402 252.319 102.324C252.221 102.245 252.054 102.176 251.848 102.137C251.641 102.097 251.396 102.097 251.121 102.117C250.817 102.156 250.502 102.137 250.188 102.058C249.884 101.999 249.569 101.871 249.255 101.724C248.941 101.557 248.676 101.331 248.411 101.016C248.165 100.701 247.959 100.357 247.812 99.9441C247.605 99.3639 247.586 98.8231 247.753 98.3315C247.92 97.8398 248.224 97.3974 248.725 97.004L248.126 95.3128C248.126 95.3128 248.106 95.2046 248.126 95.1653C248.145 95.126 248.185 95.0866 248.224 95.0571L250.414 94.2902C250.414 94.2902 250.512 94.2705 250.561 94.3098C250.6 94.3295 250.65 94.3688 250.669 94.418L251.18 95.8831C251.573 95.7553 251.965 95.6569 252.378 95.5684C252.417 95.5684 252.456 95.5684 252.525 95.5881C252.565 95.6078 252.604 95.6471 252.604 95.6963L253.036 97.5153C253.036 97.5153 253.036 97.6235 253.016 97.6629C252.997 97.7022 252.957 97.7415 252.889 97.7415C252.231 97.8202 251.651 97.948 251.15 98.1152C250.944 98.1742 250.777 98.2626 250.659 98.3806C250.532 98.4888 250.453 98.6068 250.414 98.715C250.375 98.8231 250.375 98.9215 250.375 99.0001C250.375 99.0788 250.375 99.1476 250.394 99.2066C250.414 99.2656 250.453 99.3148 250.492 99.3934C250.532 99.4524 250.62 99.5409 250.738 99.6196C250.836 99.6983 251.003 99.7671 251.209 99.8064C251.416 99.8458 251.661 99.8654 251.936 99.8261C252.25 99.8064 252.555 99.8261 252.869 99.8851C253.183 99.9441 253.488 100.052 253.802 100.219C254.116 100.387 254.381 100.613 254.646 100.927C254.853 101.242 255.039 101.586 255.186 101.999L255.177 102.019Z" fill="#202D37"/>
<path d="M252.518 107.974C252.439 107.974 252.371 107.955 252.312 107.935C252.184 107.876 252.106 107.768 252.066 107.65L251.654 106.45C251.34 106.529 251.035 106.617 250.77 106.676C250.642 106.696 250.525 106.676 250.416 106.617C250.318 106.558 250.23 106.45 250.191 106.352V106.332L249.759 104.513C249.719 104.366 249.759 104.228 249.837 104.1C249.925 103.972 250.043 103.913 250.191 103.894C250.338 103.874 250.475 103.854 250.623 103.835C250.77 103.815 250.957 103.776 251.182 103.736C251.408 103.697 251.615 103.628 251.781 103.569C251.968 103.51 252.096 103.441 252.194 103.363C252.292 103.284 252.322 103.215 252.341 103.195C252.361 103.097 252.381 103.028 252.381 102.989C252.381 102.93 252.381 102.91 252.361 102.881C252.361 102.861 252.341 102.822 252.302 102.773C252.282 102.753 252.243 102.694 252.115 102.605C252.076 102.566 251.968 102.527 251.762 102.478C251.575 102.438 251.369 102.438 251.143 102.458C250.809 102.497 250.466 102.478 250.112 102.399C249.778 102.34 249.434 102.212 249.101 102.025C248.767 101.838 248.443 101.593 248.168 101.258C247.883 100.924 247.667 100.531 247.51 100.078C247.284 99.4392 247.264 98.8198 247.451 98.2593C247.618 97.7676 247.903 97.3055 248.364 96.9318L247.844 95.4176C247.804 95.2898 247.804 95.1718 247.863 95.0439C247.922 94.9161 248.03 94.8178 248.158 94.7784L250.348 94.0115C250.475 93.9721 250.613 93.9722 250.741 94.0312C250.868 94.0902 250.947 94.1983 250.986 94.3163L251.399 95.5159C251.713 95.4372 252.017 95.3488 252.331 95.2898C252.459 95.2701 252.577 95.2898 252.685 95.3488C252.813 95.4078 252.891 95.5356 252.93 95.6634L253.363 97.4825C253.382 97.63 253.363 97.748 253.304 97.8758C253.225 98.0036 253.097 98.0823 252.95 98.102C252.331 98.1806 251.772 98.2888 251.3 98.456C251.133 98.515 250.986 98.5838 250.908 98.6624C250.809 98.7411 250.78 98.8099 250.76 98.8493C250.721 98.9574 250.721 99.0164 250.721 99.0557C250.721 99.0951 250.721 99.1148 250.741 99.1639C250.741 99.1836 250.76 99.2032 250.799 99.2426C250.819 99.2622 250.858 99.3213 250.986 99.4097C251.025 99.4491 251.133 99.4884 251.34 99.5376C251.526 99.5769 251.732 99.5769 251.958 99.5572C252.292 99.5376 252.636 99.5572 252.97 99.6162C253.323 99.6752 253.647 99.8031 253.981 99.9899C254.315 100.177 254.639 100.423 254.914 100.757C255.179 101.091 255.415 101.484 255.552 101.937C255.798 102.615 255.837 103.264 255.68 103.815C255.533 104.316 255.228 104.769 254.728 105.162L255.219 106.607C255.258 106.735 255.258 106.853 255.199 106.981C255.14 107.109 255.032 107.188 254.914 107.227L252.724 107.994C252.646 107.974 252.577 107.974 252.538 107.974H252.518ZM251.84 105.762C251.968 105.762 252.086 105.84 252.125 105.968L252.597 107.335L254.541 106.657L254.001 105.123C253.962 104.995 254.001 104.857 254.109 104.769C254.58 104.434 254.894 104.041 254.993 103.628C255.12 103.195 255.071 102.694 254.865 102.114C254.737 101.74 254.551 101.406 254.325 101.14C254.099 100.875 253.854 100.668 253.579 100.521C253.313 100.373 253.019 100.275 252.734 100.206C252.449 100.147 252.155 100.128 251.89 100.147C251.605 100.167 251.33 100.167 251.084 100.108C250.839 100.049 250.633 99.98 250.485 99.8621C250.358 99.7539 250.259 99.6752 250.2 99.5769C250.142 99.4982 250.073 99.3901 250.053 99.3114C250.014 99.2033 250.014 99.1049 250.014 98.9968C250.014 98.8886 250.034 98.7706 250.073 98.6428C250.112 98.4756 250.24 98.3085 250.407 98.1708C250.574 98.0233 250.78 97.925 251.025 97.8561C251.497 97.689 252.056 97.571 252.655 97.5022L252.282 95.9289C251.929 96.0076 251.585 96.096 251.232 96.1944C251.065 96.2337 250.898 96.155 250.858 96.0075L250.387 94.6408L248.423 95.3193L248.983 96.9122C249.022 97.04 248.983 97.1777 248.875 97.2662C248.443 97.6201 248.148 98.0135 248.011 98.4461C247.863 98.8788 247.883 99.3606 248.069 99.8719C248.197 100.246 248.384 100.58 248.61 100.845C248.835 101.111 249.081 101.317 249.356 101.465C249.641 101.612 249.916 101.711 250.2 101.779C250.485 101.838 250.76 101.858 251.025 101.819C251.34 101.799 251.605 101.799 251.831 101.838C252.076 101.897 252.282 101.986 252.43 102.084C252.557 102.183 252.655 102.271 252.714 102.35C252.773 102.428 252.842 102.537 252.862 102.615C252.881 102.694 252.901 102.802 252.901 102.9C252.901 102.999 252.881 103.127 252.842 103.274C252.803 103.441 252.675 103.608 252.508 103.746C252.341 103.894 252.135 103.992 251.89 104.08C251.703 104.139 251.457 104.208 251.232 104.267C250.986 104.326 250.799 104.346 250.633 104.395C250.525 104.415 250.426 104.434 250.299 104.434L250.672 106.008C250.986 105.949 251.31 105.84 251.683 105.742H251.831L251.84 105.762Z" fill="#202D37"/>
<path d="M264.605 94.074C258.428 97.2402 254.903 100.338 256.307 102.343C257.957 104.703 265.931 101.144 265.931 101.144C265.931 101.144 266.058 110.2 273.011 112.275" fill="#FFE7E1"/>
<path d="M273.024 112.98C272.965 112.98 272.876 112.98 272.817 112.96C266.827 111.18 265.55 104.769 265.285 102.203C262.85 103.196 257.36 105.074 255.73 102.763C255.318 102.163 255.19 101.485 255.377 100.738C256.015 98.1319 260.582 95.3394 264.294 93.4318C264.647 93.2449 265.079 93.3924 265.266 93.7464C265.452 94.1004 265.305 94.5331 264.951 94.7199C258.136 98.1909 256.978 100.325 256.801 101.092C256.722 101.426 256.761 101.691 256.948 101.937C257.832 103.215 262.683 101.839 265.678 100.492C265.904 100.384 266.15 100.413 266.356 100.531C266.562 100.649 266.69 100.885 266.69 101.131C266.69 101.21 266.896 109.676 273.259 111.573C273.652 111.701 273.858 112.095 273.75 112.488C273.623 112.773 273.338 112.98 273.024 112.98Z" fill="#202D37"/>
<path d="M299.889 145.401C299.516 145.401 299.212 145.135 299.163 144.762C297.925 133.985 292.004 114.27 286.465 105.961C286.092 105.401 285.846 105.194 285.738 105.135C285.532 105.381 285.267 106.227 285.139 106.669L285.1 106.797C283.715 111.31 280.17 119.373 272.029 122.726C271.804 122.992 271.43 124.398 271.47 126.797C271.509 129.118 271.902 130.248 272.088 130.435C273.198 131.094 275.084 132.549 275.182 133.788C275.241 134.575 274.936 140.013 274.867 141.094C274.848 141.487 274.494 141.792 274.102 141.773C273.709 141.753 273.404 141.399 273.424 141.006C273.571 138.547 273.797 134.447 273.758 133.936C273.719 133.582 272.746 132.51 271.342 131.684C269.673 130.691 270.065 125.086 270.085 125.027C270.291 122.195 270.969 121.615 271.45 121.409C279.071 118.311 282.409 110.652 283.735 106.394L283.774 106.266C284.128 105.125 284.521 103.867 285.552 103.7C286.485 103.552 287.221 104.486 287.673 105.184C293.869 114.555 299.457 134.801 300.596 144.624C300.636 145.017 300.351 145.391 299.958 145.43C299.919 145.411 299.899 145.411 299.879 145.411L299.889 145.401Z" fill="#202D37"/>
<path d="M358.878 150.856C355.47 150.856 339.68 141.387 336.066 138.673C333.758 139.332 320.668 142.999 307.391 144.838C306.998 144.897 306.625 144.612 306.586 144.219C306.527 143.825 306.812 143.452 307.205 143.412C321.64 141.407 335.879 137.228 336.027 137.188C336.252 137.129 336.498 137.169 336.685 137.316C340.632 140.482 355.549 148.84 358.525 149.401C358.053 146.913 352.907 136.431 350.619 131.78C348.783 128.034 348.488 127.414 348.449 127.149C348.321 126.51 348.822 126.116 349.362 125.723C350.393 124.936 352.524 123.285 353.673 118.24C353.919 117.168 354.145 115.694 354.351 113.874C354.39 113.481 354.763 113.196 355.156 113.235C355.549 113.275 355.834 113.648 355.795 114.042C355.588 115.9 355.343 117.434 355.068 118.575C353.811 124.12 351.395 125.979 350.236 126.893C350.158 126.952 350.05 127.041 349.971 127.119C350.256 127.759 351.091 129.44 351.935 131.171C359.408 146.372 360.42 149.371 359.88 150.364C359.801 150.512 359.595 150.777 359.182 150.856C359.055 150.856 358.976 150.876 358.868 150.876L358.878 150.856Z" fill="#202D37"/>
<path d="M355.046 114.673C354.761 114.673 354.467 114.486 354.369 114.201C354.329 114.092 350.657 104.083 346.483 92.5683C342.172 80.6312 339.855 71.9684 339.815 71.8799C339.737 71.5948 339.854 71.2801 340.08 71.0933C340.139 71.0539 345.452 67.2093 345.756 63.6694C345.835 62.6763 345.511 61.8307 344.765 61.0637C344.018 60.3164 343.242 59.9919 342.349 60.0509C339.874 60.2574 337.517 63.5219 337.498 63.5711C337.272 63.9054 336.82 63.9841 336.486 63.7383C336.152 63.5121 336.074 63.0598 336.319 62.7255C336.417 62.5583 339.069 58.8611 342.221 58.5858C343.547 58.4777 344.745 58.9595 345.776 60.0116C346.827 61.0834 347.308 62.3518 347.18 63.7579C346.866 67.3568 342.683 70.8966 341.318 71.9291C341.858 73.876 344.087 81.7128 347.799 92.0176C351.953 103.522 355.645 113.552 355.685 113.65C355.832 114.024 355.626 114.437 355.252 114.584C355.213 114.663 355.125 114.692 355.046 114.692V114.673Z" fill="#202D37"/>
<path d="M306.933 144.887C306.933 144.887 306.825 144.887 306.785 144.867C306.392 144.788 306.147 144.395 306.226 144.021C307.836 136.303 314.052 123.343 315.162 121.042C314.543 119.823 312.481 115.496 312.481 111.76C312.481 107.748 314.131 107.502 319.002 106.715C319.974 106.568 321.064 106.381 322.34 106.155C331.483 104.503 343.051 100.816 348.295 96.2926C348.609 96.0271 349.061 96.0664 349.306 96.3712C349.572 96.6859 349.532 97.1382 349.228 97.384C343.405 102.409 331.228 106.027 322.576 107.581C321.299 107.807 320.18 107.994 319.208 108.141C314.278 108.928 313.905 109.056 313.905 111.76C313.905 115.732 316.566 120.629 316.586 120.698C316.694 120.904 316.713 121.15 316.605 121.357C316.527 121.504 309.319 136.204 307.63 144.336C307.571 144.67 307.276 144.897 306.933 144.897V144.887Z" fill="#202D37"/>
<path d="M137.619 180.025C135.075 188.815 130.725 196.632 124.097 202.552C111.527 213.781 90.6983 218.206 58.3017 209.484C44.5732 222.375 41.3914 220.546 43.0707 217.753C45.2213 214.135 48.5209 204.784 48.5209 204.784C48.2066 204.656 46.1051 202.611 43.2376 198.933C36.01 189.69 24 170.27 24 145.944C24 111.942 46.2524 94.2917 69.4967 89.0999C101.599 81.9219 128.123 98.6181 135.616 124.528C138.336 133.977 140.152 144.341 140.467 154.577C140.752 163.387 139.907 172.099 137.619 180.015V180.025Z" fill="#F3F5F8"/>
<path d="M139.81 174.732C142.353 176.866 141.086 179.137 137.62 180.052C136.461 180.366 135.037 180.504 133.446 180.445C133.181 180.425 132.926 180.425 132.68 180.406C129.106 186.777 123.764 185.912 122.978 186.837C122.693 187.171 122.379 188.39 122.065 189.836C121.485 192.608 120.975 196.247 120.975 196.247C122.644 196.925 123.803 199.767 124.068 202.579C111.498 213.808 90.6699 218.233 58.2733 209.511C44.5448 222.392 41.3631 220.573 43.0423 217.781C45.1929 214.162 48.4925 204.811 48.4925 204.811C48.1782 204.683 46.0767 202.638 43.2092 198.96C56.4173 170.917 54.689 148.036 54.689 148.036C41.147 148.537 41.2747 135.853 49.7985 137.161C46.2731 132.402 50.1324 123.326 59.3535 126.964C59.3535 126.964 55.6415 117.633 64.4109 114.948C71.776 112.697 73.7007 118.754 79.2098 119.953C92.1528 122.805 86.3982 116.069 87.773 116.315C96.5718 117.947 94.3132 124.791 87.665 128.232C87.5177 128.311 87.3507 128.38 87.2132 128.459C95.9041 138.547 106.264 155.784 104.86 156.669C103.377 157.623 90.4342 153.916 90.4342 153.916L88.6764 190.583C88.6764 190.583 92.0447 197.594 94.5391 205.018C96.3165 196.512 97.4262 194.054 100.117 193.08C100.677 192.874 101.168 192.274 101.6 191.36C102.346 189.826 102.965 187.495 103.544 185.008C104.271 181.969 104.968 178.715 105.832 176.551C109.338 167.928 114.769 152.726 130.029 156.404C131.748 154.791 134.055 153.818 136.589 153.818C137.934 153.818 139.23 154.083 140.429 154.585C144.229 156.158 147.037 159.963 147.204 164.408C147.45 169.432 144.249 173.631 139.79 174.732H139.81Z" fill="white"/>
<path d="M122.073 189.828L123.192 186.475C127.003 186.131 130.302 184.656 132.345 180.418C139.68 180.635 143.392 178.865 139.278 172.837L131.353 156.367C116.161 152.67 107.254 162.788 104.004 185.296C109.847 188.108 115.857 189.701 122.073 189.828Z" fill="#FFA9C4"/>
<path d="M94.5771 205.739C94.5771 205.739 94.4691 205.739 94.4298 205.719C94.037 205.641 93.7915 205.267 93.8701 204.874C95.5788 196.663 96.7572 193.537 99.8996 192.406C101.923 191.678 103.847 182.583 104.77 178.197C104.918 177.558 105.036 176.939 105.163 176.398C106.587 169.859 110.486 161.462 117.114 157.47C121.239 154.982 125.952 154.47 131.108 155.936C131.501 156.034 131.707 156.457 131.599 156.82C131.501 157.214 131.079 157.42 130.715 157.312C125.943 155.965 121.612 156.427 117.851 158.699C111.615 162.445 107.923 170.449 106.558 176.693C106.43 177.234 106.312 177.853 106.165 178.492C104.515 186.29 102.924 192.829 100.361 193.753C98.024 194.598 96.9732 196.939 95.2645 205.149C95.2056 205.503 94.911 205.729 94.5673 205.729L94.5771 205.739Z" fill="#202D37"/>
<path d="M132.129 176.426C129.379 176.426 127.258 175.453 126.473 173.968C126.158 173.388 125.402 171.323 128.535 169.376C128.869 169.17 129.32 169.268 129.527 169.602C129.733 169.936 129.635 170.389 129.301 170.595C128.643 171.008 127.131 172.11 127.749 173.26C128.613 174.892 132.748 175.866 137.491 173.712C137.864 173.545 138.276 173.712 138.443 174.086C138.61 174.46 138.443 174.873 138.07 175.04C135.969 176.013 133.926 176.426 132.129 176.426Z" fill="#202D37"/>
<path d="M134.065 181.163C133.859 181.163 133.633 181.163 133.426 181.143C130.264 181.035 128.143 179.944 127.77 178.203C127.485 176.945 128.241 175.656 129.773 174.87C130.127 174.683 130.559 174.83 130.746 175.184C130.932 175.538 130.785 175.971 130.431 176.158C129.528 176.63 129.047 177.299 129.174 177.898C129.361 178.724 130.765 179.619 133.485 179.698C137.512 179.845 139.868 178.557 140.34 177.318C140.752 176.266 139.849 175.204 139.014 174.506C138.7 174.26 138.661 173.778 138.936 173.493C139.181 173.179 139.662 173.139 139.947 173.415C142.215 175.312 142.009 177.013 141.685 177.859C140.9 179.885 137.954 181.173 134.065 181.173V181.163Z" fill="#202D37"/>
<path d="M141.566 174.095C146.614 171.726 148.686 165.472 146.192 160.123C143.697 154.774 137.579 152.355 132.522 154.725C127.474 157.094 125.402 163.348 127.897 168.697C130.391 174.046 136.509 176.465 141.556 174.095H141.566Z" fill="#FBA420"/>
<path d="M50.9547 177.763C57.5931 186.2 70.6833 188.009 88.9782 184.489L90.795 153.977C90.795 153.977 104.514 157.969 104.985 156.003C105.456 154.036 94.3989 136.081 84.2744 125.413C72.6474 113.161 49.3049 136.347 49.3049 136.347C40.4373 138.107 42.9906 148.255 54.6962 148.019C55.1282 158.255 53.5472 168.097 50.9645 177.753L50.9547 177.763Z" fill="#FFA9C4"/>
<path d="M74.8608 145.935C74.3894 145.974 73.9769 145.62 73.9278 145.148L73.7413 142.955C73.702 142.483 74.0555 142.07 74.5269 142.021C74.9982 141.982 75.4107 142.336 75.4598 142.808L75.6464 145C75.6857 145.472 75.3321 145.885 74.8608 145.935Z" fill="#202D37"/>
<path d="M84.435 144.448C83.9636 144.488 83.5512 144.134 83.5021 143.662L83.3155 141.469C83.2762 140.997 83.6297 140.584 84.1011 140.535C84.5725 140.495 84.9849 140.849 85.034 141.321L85.2206 143.514C85.2402 143.986 84.8867 144.399 84.435 144.448Z" fill="#202D37"/>
<path d="M141.831 165.523C142.037 166.123 142.077 166.644 141.959 167.096C141.831 167.548 141.527 167.961 141.006 168.315L141.546 169.869C141.546 169.869 141.566 169.948 141.546 169.997C141.527 170.036 141.488 170.056 141.448 170.075L139.406 170.783C139.406 170.783 139.327 170.803 139.278 170.783C139.239 170.764 139.219 170.724 139.199 170.675L138.728 169.289C138.335 169.417 137.982 169.495 137.658 169.554C137.618 169.554 137.579 169.554 137.53 169.535C137.491 169.515 137.471 169.476 137.451 169.436L137.039 167.735C137.019 167.676 137.039 167.637 137.059 167.588C137.078 167.548 137.118 167.529 137.186 167.529C137.314 167.509 137.451 167.489 137.599 167.47C137.746 167.45 137.903 167.411 138.139 167.371C138.365 167.332 138.551 167.263 138.738 167.204C138.944 167.145 139.091 167.057 139.209 166.958C139.337 166.86 139.396 166.752 139.435 166.644C139.455 166.536 139.474 166.457 139.474 166.378C139.474 166.319 139.474 166.25 139.455 166.191C139.435 166.132 139.396 166.064 139.347 166.024C139.307 165.965 139.219 165.896 139.121 165.818C139.013 165.739 138.875 165.67 138.689 165.631C138.502 165.592 138.276 165.592 138.031 165.611C137.746 165.631 137.451 165.631 137.167 165.572C136.882 165.513 136.587 165.405 136.303 165.257C136.018 165.11 135.762 164.884 135.517 164.618C135.271 164.333 135.085 163.999 134.957 163.625C134.771 163.084 134.751 162.593 134.898 162.111C135.046 161.658 135.35 161.245 135.812 160.872L135.252 159.279C135.252 159.279 135.232 159.2 135.252 159.151C135.271 159.112 135.291 159.072 135.35 159.072L137.393 158.364C137.393 158.364 137.471 158.345 137.54 158.364C137.579 158.384 137.618 158.423 137.618 158.463L138.09 159.849C138.463 159.751 138.836 159.643 139.209 159.564C139.249 159.564 139.288 159.564 139.337 159.584C139.376 159.603 139.396 159.643 139.416 159.692L139.828 161.383C139.828 161.383 139.828 161.462 139.808 161.531C139.789 161.57 139.749 161.59 139.681 161.609C139.062 161.688 138.522 161.796 138.07 161.963C137.884 162.022 137.717 162.111 137.599 162.209C137.471 162.307 137.412 162.416 137.373 162.524C137.353 162.632 137.334 162.711 137.334 162.789C137.334 162.848 137.334 162.917 137.353 162.976C137.373 163.015 137.393 163.074 137.461 163.143C137.501 163.202 137.589 163.271 137.687 163.35C137.785 163.428 137.933 163.497 138.119 163.537C138.306 163.576 138.532 163.576 138.777 163.556C139.062 163.537 139.357 163.556 139.641 163.615C139.926 163.674 140.221 163.782 140.506 163.93C140.79 164.077 141.046 164.303 141.291 164.569C141.537 164.815 141.723 165.149 141.851 165.523H141.831Z" fill="#202D37"/>
<path d="M139.359 171.107C139.3 171.107 139.212 171.087 139.153 171.067C139.025 171.008 138.947 170.92 138.907 170.802L138.534 169.7C138.249 169.779 137.975 169.848 137.729 169.907C137.601 169.927 137.484 169.907 137.375 169.848C137.267 169.789 137.189 169.7 137.169 169.582V169.563L136.757 167.862C136.718 167.714 136.757 167.577 136.835 167.468C136.914 167.36 137.042 167.282 137.189 167.262C137.317 167.242 137.454 167.223 137.582 167.203C137.729 167.183 137.896 167.144 138.102 167.105C138.308 167.065 138.495 166.996 138.662 166.937C138.829 166.878 138.947 166.81 139.035 166.751C139.133 166.672 139.163 166.603 139.163 166.603C139.182 166.524 139.182 166.456 139.182 166.416V166.338C139.182 166.338 139.163 166.298 139.143 166.259C139.123 166.239 139.084 166.2 138.976 166.111C138.937 166.072 138.849 166.033 138.662 165.984C138.495 165.944 138.308 165.944 138.083 165.964C137.768 166.003 137.444 165.984 137.11 165.905C136.796 165.846 136.472 165.718 136.158 165.551C135.844 165.384 135.539 165.138 135.274 164.823C135.009 164.509 134.803 164.145 134.655 163.722C134.449 163.122 134.429 162.542 134.596 162.021C134.744 161.569 135.028 161.156 135.421 160.782L134.95 159.396C134.911 159.268 134.911 159.15 134.97 159.042C135.028 158.914 135.117 158.835 135.254 158.776L137.297 158.078C137.425 158.039 137.542 158.039 137.67 158.098C137.798 158.157 137.876 158.245 137.916 158.363L138.289 159.464C138.574 159.376 138.849 159.317 139.133 159.258C139.261 159.238 139.359 159.258 139.487 159.317C139.614 159.376 139.693 159.504 139.713 159.632L140.125 161.323C140.145 161.47 140.125 161.588 140.066 161.696C139.988 161.824 139.86 161.903 139.713 161.903C139.133 161.962 138.623 162.09 138.181 162.237C138.014 162.277 137.896 162.336 137.808 162.424C137.709 162.503 137.68 162.552 137.68 162.591C137.66 162.69 137.641 162.758 137.641 162.778C137.641 162.817 137.641 162.837 137.66 162.857C137.66 162.857 137.68 162.896 137.7 162.935C137.719 162.955 137.758 162.994 137.867 163.083C137.906 163.122 138.014 163.162 138.181 163.211C138.348 163.25 138.534 163.25 138.76 163.23C139.074 163.211 139.398 163.23 139.713 163.289C140.047 163.348 140.351 163.476 140.665 163.643C140.979 163.811 141.284 164.056 141.529 164.371C141.795 164.676 141.981 165.049 142.128 165.462C142.354 166.102 142.394 166.701 142.256 167.223C142.128 167.675 141.824 168.108 141.392 168.462L141.844 169.789C141.883 169.917 141.883 170.035 141.824 170.163C141.765 170.29 141.677 170.369 141.559 170.408L139.516 171.107H139.369H139.359ZM138.721 168.992C138.849 168.992 138.966 169.071 139.006 169.199L139.438 170.438L141.215 169.818L140.724 168.412C140.685 168.284 140.724 168.147 140.832 168.058C141.264 167.744 141.549 167.4 141.657 167.006C141.765 166.613 141.736 166.141 141.549 165.62C141.421 165.266 141.264 164.981 141.058 164.705C140.852 164.46 140.626 164.273 140.38 164.125C140.135 163.978 139.87 163.899 139.595 163.84C139.33 163.781 139.055 163.781 138.809 163.801C138.544 163.82 138.269 163.82 138.063 163.781C137.817 163.742 137.631 163.653 137.503 163.555C137.375 163.447 137.277 163.368 137.218 163.289C137.159 163.211 137.11 163.122 137.071 163.044C137.032 162.965 137.032 162.857 137.032 162.758C137.032 162.66 137.051 162.552 137.091 162.404C137.13 162.237 137.258 162.09 137.425 161.952C137.572 161.824 137.778 161.726 138.004 161.637C138.436 161.49 138.957 161.392 139.506 161.303L139.153 159.877C138.839 159.956 138.515 160.045 138.2 160.123C138.033 160.163 137.867 160.084 137.827 159.936L137.395 158.678L135.618 159.297L136.138 160.762C136.177 160.89 136.138 161.028 136.03 161.116C135.618 161.431 135.353 161.805 135.225 162.218C135.097 162.611 135.117 163.044 135.284 163.516C135.411 163.87 135.569 164.155 135.775 164.43C135.981 164.676 136.227 164.882 136.472 165.01C136.718 165.138 136.983 165.236 137.258 165.295C137.523 165.354 137.778 165.354 138.024 165.335C138.308 165.315 138.564 165.315 138.79 165.354C139.035 165.394 139.222 165.482 139.369 165.6C139.497 165.698 139.575 165.787 139.634 165.866C139.693 165.944 139.762 166.033 139.781 166.131C139.801 166.21 139.821 166.318 139.821 166.416C139.821 166.515 139.801 166.623 139.762 166.77C139.723 166.937 139.614 167.085 139.457 167.223C139.31 167.35 139.104 167.449 138.878 167.537C138.691 167.596 138.485 167.665 138.259 167.704C138.033 167.744 137.847 167.783 137.7 167.803C137.592 167.822 137.513 167.822 137.434 167.842L137.788 169.268C138.053 169.209 138.367 169.12 138.701 169.022C138.662 168.983 138.701 168.983 138.721 168.983V168.992Z" fill="#202D37"/>
<path d="M54.0173 144.427C53.87 144.427 53.7325 144.387 53.6048 144.299C53.5656 144.279 50.2169 142.027 47.8699 141.919C47.4771 141.9 47.1727 141.565 47.1923 141.172C47.2119 140.779 47.5458 140.474 47.9386 140.494C50.7079 140.621 54.2726 143.021 54.4199 143.119C54.7538 143.345 54.8324 143.797 54.6065 144.132C54.4788 144.319 54.253 144.417 54.0271 144.417L54.0173 144.427Z" fill="#202D37"/>
<path d="M87.8008 116.3C96.5996 117.932 94.341 124.775 87.6928 128.217C80.9169 131.688 69.6041 129.869 69.6041 129.869C69.6041 129.869 69.4372 134.667 64.4387 138.345C59.4403 142.022 51.4369 139.318 49.8264 137.145C46.3009 132.386 50.1603 123.31 59.3814 126.929C59.3814 126.929 55.6693 117.597 64.4387 114.913C71.8038 112.661 73.7286 118.718 79.2377 119.918C92.1609 122.77 86.3965 116.034 87.7812 116.3H87.8008Z" fill="#202D37"/>
<path d="M58.3874 140.871C54.3218 140.871 50.3938 139.111 49.2448 137.557C47.2612 134.873 47.3299 130.94 49.4314 128.186C51.3954 125.62 54.6361 124.774 58.2892 125.787C57.8767 124.116 57.4839 121.195 58.7213 118.59C59.7327 116.505 61.5691 115.03 64.2303 114.204C69.1601 112.69 71.8704 114.676 74.4727 116.584C76.0047 117.705 77.4679 118.776 79.3828 119.189C84.8526 120.389 86.4631 119.75 86.9345 119.248C87.3469 118.816 87.1996 118.088 86.9934 117.262C86.8461 116.682 86.7086 116.19 87.072 115.777C87.18 115.669 87.4451 115.423 87.9165 115.532C92.9346 116.466 94.0246 118.944 94.2308 120.35C94.6629 123.27 92.149 126.662 87.9951 128.786C82.0244 131.844 72.8819 130.959 70.201 130.605C69.9358 132.198 68.8753 135.856 64.8294 138.855C62.9341 140.32 60.6165 140.861 58.3677 140.861L58.3874 140.871ZM55.3726 126.83C53.3889 126.83 51.7195 127.596 50.5804 129.081C48.8913 131.294 48.8226 134.568 50.4134 136.712C51.8766 138.678 59.497 141.097 64.0143 137.764C68.6789 134.332 68.8851 129.888 68.8851 129.838C68.8851 129.632 68.9931 129.445 69.1502 129.298C69.3172 129.17 69.5234 129.111 69.7296 129.13C69.8376 129.15 80.8755 130.891 87.3764 127.557C90.9313 125.738 93.1604 122.887 92.8266 120.605C92.6007 119.012 91.0491 117.813 88.4468 117.174C88.6726 118.039 88.8985 119.327 87.9754 120.3C86.7381 121.608 83.9099 121.707 79.0784 120.654C76.8492 120.163 75.2191 118.963 73.6282 117.803C71.0848 115.945 68.9047 114.332 64.6723 115.63C62.4234 116.308 60.8522 117.537 60.047 119.248C58.4758 122.533 60.0666 126.633 60.0863 126.672C60.1943 126.938 60.1255 127.252 59.9193 127.459C59.7131 127.665 59.3988 127.724 59.1337 127.626C57.7687 127.065 56.5117 126.82 55.353 126.82L55.3726 126.83Z" fill="#202D37"/>
<path d="M96.6301 213.112C96.2962 213.112 95.9918 212.886 95.9328 212.532C94.0768 203.456 88.1455 190.998 88.0866 190.88C88.0276 190.781 88.008 190.654 88.0276 190.526L89.7658 153.849C89.7854 153.623 89.8935 153.416 90.08 153.289C90.2666 153.161 90.4925 153.122 90.6987 153.19C96.2274 154.764 102.719 156.229 104.3 156.062C104.093 154.941 102.336 151.155 98.0245 144.4C93.7135 137.635 88.882 131.165 85.1012 127.084C84.8361 126.799 84.8557 126.337 85.1405 126.071C85.4253 125.806 85.8868 125.825 86.152 126.111C89.9917 130.27 94.9017 136.828 99.2619 143.672C100.853 146.16 106.008 154.449 105.763 156.514C105.704 156.947 105.458 157.173 105.311 157.281C104.918 157.527 104.113 158.048 96.9934 156.366C94.6562 155.806 92.3878 155.206 91.1897 154.882L89.5007 190.477C90.2273 192.011 95.6088 203.633 97.3862 212.296C97.4648 212.689 97.2193 213.063 96.8265 213.141C96.7185 213.102 96.6792 213.102 96.6399 213.102L96.6301 213.112Z" fill="#202D37"/>
<path d="M74.9745 186.809C65.4588 186.809 56.2475 184.597 52.3489 180.85C52.0641 180.585 52.0641 180.103 52.3293 179.837C52.5944 179.542 53.0756 179.542 53.3408 179.818C55.7369 182.119 60.6273 183.938 66.7845 184.823C73.0988 185.737 80.1006 185.55 85.9829 184.302C86.3757 184.223 86.7488 184.469 86.8274 184.862C86.906 185.255 86.6604 185.629 86.2676 185.708C82.6735 186.455 78.7945 186.799 74.9745 186.799V186.809Z" fill="#202D37"/>
<path d="M62.7502 197.694C60.1086 197.694 57.3589 194.262 52.8809 188.382C52.6354 188.068 52.6944 187.615 53.0283 187.369C53.3425 187.124 53.7942 187.183 54.0397 187.517C58.1642 192.955 61.0415 196.494 62.976 196.249C64.508 196.042 69.5654 191.676 72.0007 189.572C73.0711 188.638 73.8567 187.979 74.2692 187.674C76.7046 185.914 78.9338 187.9 80.9763 190.3C81.7619 191.234 84.1777 194.046 85.8078 193.692C86.8979 193.446 87.6246 191.745 88.0174 190.359C88.1254 189.965 88.5378 189.759 88.9012 189.857C89.294 189.965 89.5002 190.378 89.3922 190.752C88.6459 193.358 87.5755 194.764 86.1123 195.098C83.9027 195.57 81.6146 193.299 79.8568 191.253C77.009 187.92 75.9386 188.235 75.0843 188.854C74.7307 189.1 73.8862 189.828 72.914 190.673C68.7896 194.233 64.9499 197.458 63.1332 197.684C63.0055 197.704 62.8877 197.704 62.7404 197.704L62.7502 197.694Z" fill="#202D37"/>
<path d="M76.243 197.736C76.1644 197.736 76.0564 197.736 75.9778 197.716C74.2888 197.402 72.5702 195.219 70.9205 191.177C70.7732 190.804 70.9401 190.391 71.3133 190.224C71.6864 190.076 72.0989 190.243 72.2658 190.617C74.3084 195.563 75.8403 196.202 76.2528 196.281C77.0188 196.428 79.7193 193.429 80.7308 191.541C80.9174 191.187 81.3494 191.05 81.703 191.256C82.0565 191.443 82.194 191.876 81.9877 192.23C81.6146 192.938 78.5212 197.736 76.2528 197.736H76.243Z" fill="#202D37"/>
<path d="M81.3592 213.633C80.9664 213.633 80.662 213.319 80.6325 212.955C80.0924 201.48 77.5785 197.173 77.333 196.76C77.3133 196.74 77.2937 196.721 77.2741 196.701C77.0286 196.386 77.0482 195.934 77.3526 195.688C77.5588 195.502 77.8731 195.462 78.1186 195.58C78.7962 195.865 79.7291 198.52 80.1415 199.857C80.8682 202.276 81.7913 206.495 82.0859 212.906C82.1056 213.299 81.8011 213.653 81.4083 213.673C81.3887 213.633 81.369 213.633 81.369 213.633H81.3592Z" fill="#202D37"/>
<path d="M85.8566 152.367C85.8566 153.694 83.107 158.886 79.6208 161.737C77.7648 163.252 75.7026 164.097 73.7189 163.33C71.3425 162.416 69.8989 160.744 69.0936 159.023C67.9349 156.604 68.0822 154.146 68.7205 153.792C70.6845 152.701 85.8566 151.167 85.8566 152.367Z" fill="#202D37"/>
<path d="M75.2509 164.321C74.6322 164.321 74.0529 164.223 73.4735 163.987C70.6256 162.915 69.1821 160.841 68.4357 159.336C67.218 156.77 67.1788 153.81 68.3768 153.151C69.5356 152.512 73.9056 151.893 77.3131 151.558C80.1217 151.293 85.0121 150.919 86.112 151.578C86.4262 151.765 86.5833 152.05 86.5833 152.365C86.5833 154.105 83.5489 159.484 80.0824 162.296C78.4326 163.643 76.8025 164.321 75.2509 164.321ZM69.1232 154.39C68.8777 154.783 68.7696 156.681 69.7418 158.717C70.3605 160.005 71.5782 161.735 73.9743 162.65C75.5062 163.23 77.2346 162.728 79.179 161.165C82.341 158.599 84.6684 154.233 85.0809 152.728C82.724 152.315 70.9202 153.515 69.1232 154.4V154.39Z" fill="#202D37"/>
<path d="M79.6483 161.744C77.7923 163.258 75.73 164.104 73.7464 163.337C71.3699 162.422 69.9263 160.751 69.1211 159.03C72.9804 157.83 77.8512 157.85 79.6483 161.744Z" fill="white"/>
<path d="M75.2528 164.32C74.6341 164.32 74.0547 164.212 73.4753 163.986C70.6275 162.914 69.1839 160.84 68.4376 159.335C68.359 159.148 68.3296 158.922 68.4376 158.735C68.5161 158.548 68.6831 158.401 68.8893 158.342C73.1218 157.044 78.3265 157.162 80.3101 161.429C80.4574 161.734 80.369 162.088 80.1039 162.295C78.4345 163.642 76.8043 164.32 75.2528 164.32ZM70.1758 159.483C70.873 160.623 72.0514 161.901 73.9958 162.649C75.4001 163.19 76.9909 162.816 78.7193 161.528C77.0891 158.834 73.436 158.676 70.1758 159.483Z" fill="#202D37"/>
<path d="M124.146 204.508C123.753 204.508 123.419 204.174 123.419 203.78C123.419 200.634 122.182 197.468 120.719 196.868C120.414 196.74 120.228 196.435 120.267 196.101C120.62 193.495 121.544 187.35 122.418 186.317C122.791 185.884 123.429 185.737 124.313 185.53C126.277 185.098 129.576 184.351 132.031 179.985C132.218 179.631 132.67 179.513 133.023 179.719C133.377 179.906 133.495 180.358 133.288 180.712C130.519 185.639 126.679 186.504 124.617 186.956C124.185 187.055 123.645 187.182 123.478 187.271C123.066 187.89 122.26 192.05 121.72 195.796C123.743 197.074 124.814 200.742 124.814 203.761C124.853 204.174 124.529 204.508 124.136 204.508H124.146Z" fill="#202D37"/>
<path d="M121.87 190.523C119.582 190.523 109.192 189.225 103.555 185.833C103.202 185.627 103.104 185.194 103.31 184.84C103.516 184.486 103.948 184.388 104.302 184.594C110.105 188.095 121.084 189.186 122.037 189.088C122.43 189.048 122.783 189.334 122.822 189.727C122.862 190.12 122.577 190.474 122.184 190.514C122.076 190.533 121.998 190.533 121.87 190.533V190.523Z" fill="#202D37"/>
<path d="M121.002 196.937H120.963C108.639 196.092 102.943 193.024 101.47 192.119C101.136 191.913 101.038 191.461 101.244 191.126C101.451 190.792 101.902 190.694 102.236 190.9C103.228 191.52 108.737 194.646 121.042 195.492C121.435 195.512 121.739 195.866 121.7 196.259C121.7 196.652 121.366 196.947 121.002 196.947V196.937Z" fill="#202D37"/>
<path d="M122.408 159.76C129.979 160.9 134.28 162.887 133.946 164.971C133.613 167.056 129.714 168.029 123.026 166.899C123.026 166.899 125.177 179.268 117.203 179.642" fill="#FFA9C4"/>
<path d="M117.2 180.38C116.807 180.38 116.503 180.065 116.474 179.701C116.454 179.308 116.758 178.954 117.151 178.934C118.722 178.846 119.92 178.275 120.804 177.174C123.446 173.86 122.317 167.095 122.317 167.036C122.277 166.81 122.356 166.564 122.523 166.397C122.69 166.23 122.916 166.152 123.161 166.191C127.619 166.958 131.174 166.771 132.637 165.739C132.991 165.493 133.197 165.198 133.237 164.873C133.276 164.647 133.197 164.421 133.011 164.175C131.96 162.73 127.953 161.343 122.297 160.498C121.904 160.439 121.639 160.065 121.698 159.672C121.757 159.278 122.13 159.013 122.523 159.072C126.117 159.613 132.392 160.871 134.189 163.329C134.602 163.89 134.768 164.509 134.66 165.129C134.533 165.827 134.15 166.456 133.462 166.928C131.744 168.148 128.385 168.462 123.888 167.794C124.114 169.947 124.379 175.07 121.963 178.098C120.824 179.524 119.243 180.311 117.259 180.419C117.22 180.399 117.2 180.399 117.2 180.399V180.38Z" fill="#202D37"/>
<path d="M43.6211 220.498C43.1694 220.498 42.7766 220.39 42.4624 220.144C41.7651 219.583 41.7357 218.551 42.4427 217.391C44.2594 214.333 46.96 207.007 47.667 205.041C46.5966 204.106 44.5737 201.835 42.6686 199.396C42.4231 199.082 42.482 198.63 42.7962 198.384C43.1105 198.138 43.5622 198.197 43.8077 198.512C46.6556 202.15 48.5312 203.949 48.8455 204.156C49.1793 204.323 49.3168 204.696 49.199 205.041C49.0517 205.434 45.8307 214.49 43.6899 218.138C43.3756 218.659 43.3756 218.944 43.4051 219.023C43.5917 219.082 46.4395 219.662 57.8309 208.974C58.0174 208.807 58.2629 208.748 58.5085 208.807C62.7016 209.927 66.7868 210.852 70.6658 211.579C71.0586 211.638 71.3237 212.032 71.2452 212.425C71.1666 212.818 70.7934 213.084 70.4006 213.005C66.6002 212.307 62.5936 211.412 58.5085 210.311C54.0894 214.401 47.0091 220.488 43.6211 220.488V220.498ZM48.7865 204.116C48.7865 204.116 48.8062 204.136 48.8258 204.136C48.8062 204.136 48.8062 204.116 48.7865 204.116Z" fill="#202D37"/>
<path d="M43.0688 200.026C42.9608 200.026 42.8626 200.006 42.7546 199.967C42.4011 199.8 42.2341 199.367 42.4011 198.993C54.3129 173.949 54.1656 152.769 53.9986 148.747H53.9593C49.0886 148.747 45.3078 146.968 43.7857 143.949C42.7939 141.982 42.9412 139.809 44.1785 138.266C45.5631 136.525 47.9789 135.925 50.8071 136.614C51.1999 136.722 51.4258 137.115 51.3472 137.479C51.2392 137.872 50.8562 138.098 50.483 138.02C48.2342 137.459 46.3586 137.872 45.3471 139.16C44.4829 140.252 44.3749 141.855 45.1212 143.3C46.4666 145.965 50.0509 147.459 54.6959 147.292C55.0887 147.272 55.4225 147.577 55.4422 147.951C55.4618 148.197 55.8743 153.91 54.6369 163.172C53.4978 171.717 50.6892 184.952 43.717 199.623C43.5893 199.888 43.3438 200.036 43.0786 200.036L43.0688 200.026Z" fill="#202D37"/>
<path d="M70.5161 212.986H70.3885C69.9957 212.927 69.7305 212.554 69.7894 212.161C69.868 211.639 71.832 199.624 73.8746 195.671C74.0612 195.317 74.4933 195.179 74.8468 195.366C75.2003 195.553 75.3378 195.985 75.161 196.339C73.2167 200.105 71.2428 212.288 71.2134 212.387C71.1741 212.741 70.8598 212.986 70.5161 212.986Z" fill="#202D37"/>
<path d="M331.316 256.873C331.316 256.873 331.375 260.364 329.44 265.398C326.76 272.37 320.21 282.291 304.271 289.971C282.844 300.295 239.429 293.462 228.794 280.915C225.661 277.208 223.265 273.589 221.586 269.617C219.376 264.405 218.424 258.614 218.738 251.328C218.984 245.389 220.064 238.486 221.94 230.108C222.146 229.204 222.372 228.289 222.597 227.424C229.226 202.684 247.766 189.902 267.75 187.404C272.336 186.824 278.032 187.158 284.16 188.456C298.448 191.514 314.917 200.02 324.373 215.241C329.146 222.911 332.112 232.301 332.112 243.56C338.2 249.125 351.604 251.436 353.785 251.229C355.955 251.042 353.166 258.555 331.306 256.873H331.316Z" fill="#F3F5F8"/>
<path d="M342.365 192.292C340.44 195.37 337.366 194.544 337.219 194.504C339.635 196.412 335.118 202.115 330.698 202.174C326.279 202.233 326.132 199.962 326.132 199.962C324.188 201.446 322.027 200.729 321.094 198.841C321.075 201.407 320.161 203.747 318.806 205.33C324.217 204.21 329.461 207.395 328.636 211.142C328.165 213.295 326.446 214.573 324.384 215.173C321.87 215.901 318.836 215.586 316.832 214.554L315.143 238.693C315.222 238.674 315.31 238.634 315.389 238.615C318.345 237.789 320.034 241.899 316.4 242.833C315.821 242.981 315.31 242.961 314.849 242.813L314.476 248.084L329.461 265.311C326.78 272.283 320.23 282.214 304.292 289.883C282.865 300.208 239.45 293.384 228.815 280.827C225.672 277.12 223.286 273.502 221.607 269.529C222.765 263.639 223.816 253.58 223.816 253.58C222.078 253.58 220.222 252.548 218.759 251.26C217.296 249.962 216.225 248.389 216.039 247.287C213.77 247.307 210.647 246.648 208.998 245.96C206.621 244.967 205.158 242.027 208.418 239.156L217.747 232.312C217.669 232.164 217.6 231.997 217.58 231.81C217.335 229.883 219.682 228.153 222.618 227.346C223.423 227.12 224.268 226.973 225.112 226.914L229.718 223.541C240.952 231.004 244.006 245.881 244.144 278.33C256.282 262.882 274.508 244.475 279.221 240.395C277.306 239.923 276.393 237.297 279.202 235.862C279.467 235.714 279.742 235.635 279.987 235.596C280.567 226.098 281.843 204.465 281.578 204.2C281.225 203.846 266.445 199.834 266.799 196.589C266.946 195.33 276.58 191.358 284.181 188.418C285.83 187.779 287.382 187.199 288.717 186.677C288.59 186.471 288.492 186.265 288.403 186.019C287.637 183.767 289.974 182.607 289.974 182.607C289.974 182.607 285.85 180.188 287.185 176.5C288.55 172.823 297.84 172.98 303.104 179.421C303.104 179.421 303.575 177.002 306.963 177.828C310.351 178.654 310.636 184.613 310.636 184.613C310.636 184.613 313.523 183.108 316.4 185.92C316.361 185.812 314.888 182.194 317.991 179.529C321.477 176.53 325.877 180.188 325.877 180.188C325.877 180.188 327.88 174.75 331.72 174.937C341.069 175.35 337.415 186.353 337.415 186.353C341.933 184.593 344.309 189.126 342.345 192.272L342.365 192.292Z" fill="white"/>
<path d="M314.694 245.018C314.694 244.447 290.654 255.942 287.256 256.788C283.976 257.614 278.33 245.677 279.999 235.627C280.579 226.129 281.855 204.496 281.59 204.231C281.237 203.877 266.457 199.865 266.811 196.62C266.958 195.362 276.592 191.389 284.193 188.449C285.842 187.81 287.394 187.23 288.729 186.709C288.602 186.502 288.504 186.296 288.415 186.05C287.649 183.798 289.986 182.638 289.986 182.638C289.986 182.638 285.862 180.219 287.197 176.532C288.562 172.854 297.852 173.012 303.116 179.452C303.116 179.452 303.587 177.033 306.975 177.859C310.363 178.685 310.648 184.644 310.648 184.644C310.648 184.644 313.535 183.139 316.412 185.952C316.373 185.843 314.9 182.225 318.003 179.56C321.489 176.561 325.889 180.219 325.889 180.219C325.889 180.219 327.892 174.781 331.732 174.968C341.081 175.381 337.427 186.384 337.427 186.384C341.945 184.624 344.321 189.157 342.357 192.304C340.432 195.381 337.359 194.555 337.211 194.516C339.627 196.424 335.11 202.127 330.691 202.186C326.272 202.245 326.124 199.973 326.124 199.973C324.18 201.458 322.02 200.74 321.087 198.852C321.067 201.419 320.154 203.759 318.799 205.342C324.21 204.221 329.454 207.407 328.629 211.153C328.157 213.307 326.439 214.585 324.377 215.185C321.863 215.912 318.828 215.598 316.825 214.565L315.136 238.705L314.694 245.008V245.018Z" fill="#FFE7E1"/>
<path d="M208.911 238.749C208.911 238.749 208.537 237.284 207.025 240.716C205.513 244.147 208.115 246.812 213.231 247.245C218.348 247.677 218.711 246.527 219.281 245.573C219.85 244.619 218.289 240.145 218.289 240.145L208.911 238.759V238.749Z" fill="#FFE7E1"/>
<path d="M215.875 248.101C213.332 248.101 210.111 247.295 208.687 246.715C207.155 246.076 206.065 244.788 205.82 243.342C205.633 242.221 205.839 240.51 207.902 238.691C208.186 238.426 208.668 238.465 208.913 238.75C209.178 239.065 209.139 239.517 208.854 239.763C207.617 240.864 207.057 241.995 207.244 243.096C207.411 244.05 208.177 244.935 209.227 245.368C211.81 246.44 216.72 247.108 217.859 246.302C219.057 245.456 218.046 243.529 218.026 243.509C217.84 243.155 217.967 242.723 218.311 242.516C218.664 242.329 219.096 242.457 219.303 242.801C219.882 243.854 220.501 246.194 218.704 247.472C218.085 247.905 217.054 248.092 215.875 248.092V248.101Z" fill="#202D37"/>
<path d="M228.345 227.49L230.741 220.666C223.641 220.086 213.095 211.335 209.275 208.09C205.455 204.845 199.857 199.26 189.065 199.378C189.065 199.378 181.945 211.993 183.075 222.878C183.075 222.878 188.898 224.304 194.387 227.903C203.805 234.068 208.607 246.231 222.65 243.832L225.949 233.921" fill="#9BCFAF"/>
<path d="M288.936 194.297C288.523 194.051 288.396 193.51 288.651 193.117L289.81 191.239C290.055 190.826 290.595 190.698 290.988 190.954C291.401 191.199 291.528 191.74 291.273 192.134L290.114 194.012C289.888 194.425 289.348 194.552 288.936 194.297Z" fill="#202D37"/>
<path d="M294.806 196.737C294.393 196.492 294.266 195.951 294.511 195.557L295.67 193.679C295.915 193.266 296.456 193.139 296.848 193.394C297.261 193.64 297.389 194.181 297.133 194.574L295.974 196.452C295.749 196.846 295.208 196.993 294.796 196.737H294.806Z" fill="#202D37"/>
<path d="M209.539 224.456C209.293 225.095 208.94 225.577 208.508 225.862C208.076 226.147 207.516 226.255 206.838 226.196L206.181 227.868C206.181 227.868 206.122 227.946 206.082 227.966C206.043 227.986 205.974 227.986 205.935 227.966L203.725 227.081C203.725 227.081 203.647 227.022 203.627 226.983C203.608 226.943 203.608 226.884 203.627 226.835L204.226 225.35C203.814 225.164 203.46 224.977 203.136 224.81C203.097 224.79 203.077 224.751 203.058 224.702C203.038 224.662 203.038 224.593 203.058 224.554L203.942 222.833C203.961 222.774 204 222.755 204.069 222.735C204.128 222.715 204.167 222.735 204.236 222.774C204.364 222.853 204.482 222.941 204.629 223.02C204.757 223.109 204.943 223.207 205.169 223.335C205.395 223.463 205.601 223.561 205.788 223.62C205.994 223.708 206.2 223.767 206.367 223.767C206.534 223.767 206.681 223.748 206.78 223.659C206.878 223.6 206.946 223.531 207.005 223.472C207.064 223.413 207.084 223.345 207.113 223.305C207.133 223.246 207.153 223.177 207.153 223.099C207.153 223.02 207.153 222.912 207.113 222.764C207.094 222.617 207.005 222.479 206.868 222.292C206.74 222.125 206.554 221.958 206.328 221.791C206.063 221.604 205.837 221.378 205.65 221.132C205.444 220.867 205.277 220.572 205.149 220.247C205.022 219.913 204.963 219.549 204.963 219.126C204.963 218.703 205.041 218.3 205.208 217.887C205.434 217.307 205.788 216.875 206.239 216.58C206.691 216.294 207.251 216.167 207.889 216.206L208.567 214.465C208.567 214.465 208.626 214.387 208.665 214.367C208.704 214.347 208.773 214.347 208.812 214.367L211.022 215.252C211.022 215.252 211.1 215.311 211.12 215.36C211.14 215.4 211.14 215.468 211.12 215.508L210.521 216.993C210.914 217.179 211.287 217.366 211.66 217.553C211.699 217.573 211.719 217.612 211.739 217.651C211.758 217.691 211.758 217.75 211.739 217.799L210.855 219.52C210.855 219.52 210.796 219.598 210.727 219.628C210.668 219.647 210.629 219.628 210.58 219.608C210.02 219.234 209.49 218.93 208.989 218.723C208.783 218.644 208.596 218.576 208.429 218.576C208.262 218.576 208.115 218.595 208.017 218.684C207.919 218.743 207.83 218.812 207.791 218.871C207.752 218.93 207.712 218.998 207.693 219.057C207.673 219.116 207.654 219.185 207.654 219.264C207.654 219.343 207.654 219.451 207.693 219.598C207.712 219.746 207.791 219.883 207.938 220.07C208.066 220.237 208.253 220.424 208.478 220.572C208.724 220.759 208.95 220.985 209.156 221.25C209.362 221.516 209.529 221.811 209.647 222.135C209.775 222.469 209.834 222.833 209.834 223.256C209.814 223.63 209.735 224.043 209.549 224.456H209.539Z" fill="#202D37"/>
<path d="M205.995 228.33C205.936 228.33 205.867 228.311 205.808 228.291L203.598 227.406C203.471 227.367 203.373 227.258 203.333 227.14C203.274 227.013 203.274 226.895 203.333 226.767L203.824 225.548C203.51 225.4 203.225 225.262 202.98 225.115C202.882 225.056 202.793 224.948 202.754 224.83C202.715 224.702 202.715 224.584 202.774 224.476C202.774 224.476 202.774 224.456 202.793 224.456L203.677 222.735C203.736 222.608 203.864 222.509 204.011 222.49C204.158 222.45 204.296 222.49 204.423 222.568C204.551 222.647 204.669 222.735 204.797 222.814C204.924 222.903 205.111 223.001 205.307 223.099C205.513 223.198 205.72 223.306 205.887 223.384C206.073 223.463 206.22 223.512 206.358 223.512C206.495 223.512 206.564 223.493 206.584 223.473C206.662 223.414 206.731 223.365 206.751 223.345C206.79 223.306 206.81 223.266 206.81 223.266C206.81 223.247 206.829 223.207 206.829 223.139C206.829 223.099 206.829 223.03 206.81 222.893C206.79 222.834 206.751 222.726 206.623 222.558C206.515 222.411 206.358 222.273 206.152 222.126C205.867 221.919 205.612 221.673 205.386 221.378C205.18 221.093 204.993 220.779 204.846 220.405C204.698 220.031 204.639 219.618 204.639 219.166C204.639 218.714 204.738 218.252 204.905 217.799C205.15 217.16 205.562 216.659 206.063 216.354C206.515 216.069 207.055 215.941 207.674 215.921L208.273 214.387C208.312 214.259 208.42 214.181 208.518 214.122C208.646 214.063 208.783 214.063 208.911 214.102L211.14 214.987C211.268 215.026 211.366 215.135 211.405 215.253C211.464 215.38 211.464 215.518 211.405 215.646L210.914 216.865C211.219 217.013 211.513 217.15 211.798 217.317C211.896 217.376 211.985 217.485 212.024 217.583C212.063 217.73 212.063 217.848 212.004 217.996L211.121 219.717C211.062 219.845 210.954 219.923 210.806 219.963C210.659 220.002 210.522 219.982 210.394 219.904C209.854 219.53 209.343 219.264 208.862 219.058C208.695 218.979 208.528 218.96 208.41 218.96C208.312 218.96 208.224 218.979 208.165 218.999C208.067 219.058 208.018 219.097 207.998 219.127C207.978 219.146 207.959 219.186 207.939 219.205C207.939 219.225 207.919 219.245 207.919 219.313C207.919 219.333 207.919 219.422 207.959 219.559C207.978 219.618 208.018 219.746 208.145 219.913C208.243 220.061 208.41 220.199 208.617 220.346C208.882 220.552 209.157 220.798 209.363 221.093C209.589 221.378 209.775 221.713 209.903 222.067C210.05 222.44 210.109 222.853 210.109 223.286C210.109 223.738 210.011 224.181 209.824 224.633C209.559 225.331 209.166 225.852 208.666 226.187C208.234 226.472 207.674 226.619 207.036 226.6L206.456 228.065C206.417 228.193 206.309 228.291 206.191 228.33C206.132 228.311 206.063 228.33 205.985 228.33H205.995ZM203.952 226.865L205.955 227.652L206.574 226.079C206.613 225.951 206.761 225.872 206.888 225.892C207.487 225.951 207.978 225.852 208.351 225.607C208.744 225.361 209.049 224.928 209.284 224.348C209.432 223.974 209.51 223.581 209.51 223.207C209.51 222.834 209.471 222.509 209.343 222.214C209.216 221.9 209.078 221.634 208.892 221.408C208.705 221.162 208.499 220.956 208.273 220.788C208.027 220.621 207.821 220.415 207.674 220.228C207.507 220.021 207.409 219.815 207.36 219.628C207.32 219.461 207.32 219.314 207.32 219.215C207.32 219.087 207.34 218.989 207.379 218.901C207.419 218.802 207.487 218.714 207.546 218.635C207.605 218.556 207.713 218.468 207.831 218.389C207.978 218.291 208.184 218.242 208.41 218.242C208.617 218.242 208.862 218.301 209.088 218.409C209.559 218.615 210.08 218.881 210.61 219.235L211.376 217.75C211.042 217.583 210.718 217.416 210.365 217.249C210.217 217.19 210.139 217.003 210.198 216.855L210.757 215.469L208.754 214.663L208.116 216.275C208.076 216.403 207.949 216.482 207.801 216.462C207.222 216.442 206.731 216.541 206.338 216.796C205.926 217.042 205.641 217.416 205.425 217.957C205.278 218.33 205.199 218.724 205.199 219.097C205.199 219.471 205.238 219.795 205.366 220.09C205.494 220.405 205.631 220.67 205.818 220.916C206.004 221.142 206.211 221.349 206.436 221.516C206.682 221.703 206.888 221.89 207.036 222.077C207.202 222.283 207.301 222.49 207.32 222.676C207.36 222.844 207.36 222.962 207.36 223.089C207.36 223.217 207.34 223.316 207.301 223.404C207.261 223.483 207.222 223.571 207.134 223.669C207.075 223.748 206.967 223.837 206.849 223.915C206.702 224.014 206.515 224.063 206.27 224.063C206.063 224.063 205.818 224.004 205.572 223.896C205.366 223.817 205.16 223.709 204.934 223.591C204.708 223.463 204.541 223.365 204.394 223.276C204.296 223.217 204.188 223.148 204.109 223.089L203.343 224.604C203.628 224.751 203.962 224.918 204.315 225.076C204.463 225.135 204.541 225.321 204.482 225.469L203.942 226.875L203.952 226.865Z" fill="#202D37"/>
<path d="M232.04 247.766C226.757 245.721 224.567 240.588 226.443 234.049C226.443 234.049 217.919 234.629 217.546 231.876C217.074 228.257 225.883 225.278 230.164 228.012" fill="white"/>
<path d="M232.04 228.803C230.577 227.407 221.208 224.526 217.526 230.563C214.914 234.85 226.442 234.044 226.442 234.044C223.929 241.576 228.092 246.63 233.326 248.479C233.326 248.479 233.503 230.19 232.04 228.793V228.803Z" fill="#FFE7E1"/>
<path d="M229.733 223.571L215.887 246.649C217.036 250.543 219.667 252.873 223.831 253.611L221.19 271.517C227.641 281.025 235.478 286.876 244.08 290.701C245.818 255.607 242.214 230.936 229.723 223.581L229.733 223.571Z" fill="#FFE7E1"/>
<path d="M244.085 290.688C243.673 290.688 243.359 290.354 243.359 289.961C243.81 251.258 241.895 232.586 229.296 224.208C228.962 223.982 228.884 223.549 229.09 223.195C229.316 222.861 229.748 222.782 230.101 222.989C236.524 227.266 240.344 233.913 242.465 244.523C244.409 254.198 245.087 267.355 244.802 289.961C244.802 290.374 244.488 290.688 244.076 290.688H244.085Z" fill="#202D37"/>
<path d="M221.35 271.526C221.292 271.526 221.252 271.526 221.184 271.506C220.791 271.427 220.545 271.034 220.624 270.641C221.675 265.941 222.686 256.944 222.981 254.318C219.406 253.777 215.694 249.893 215.282 247.475C215.223 247.081 215.488 246.708 215.881 246.649C216.273 246.59 216.647 246.855 216.706 247.248C216.99 249.028 220.604 252.942 223.766 252.942C223.972 252.942 224.159 253.02 224.306 253.187C224.454 253.335 224.513 253.541 224.493 253.748C224.454 254.22 223.275 265.37 222.018 270.975C221.979 271.309 221.684 271.536 221.36 271.536L221.35 271.526Z" fill="#202D37"/>
<path d="M329.57 266.276C329.364 266.276 329.178 266.197 329.03 266.03L313.917 248.635C313.789 248.488 313.73 248.301 313.73 248.114L316.087 214.564C316.107 214.319 316.254 214.112 316.46 213.984C316.667 213.856 316.932 213.856 317.138 213.965C319.407 215.145 322.893 215.223 325.249 214.132C326.713 213.443 327.606 212.411 327.911 211.025C328.225 209.618 327.459 208.527 326.732 207.858C325.102 206.344 321.714 205.213 318.081 206.285C317.688 206.413 317.295 206.187 317.168 205.784C317.04 205.39 317.276 204.997 317.668 204.879C321.302 203.807 325.348 204.564 327.724 206.777C329.128 208.075 329.688 209.697 329.315 211.329C328.903 213.129 327.705 214.555 325.849 215.43C323.413 216.57 320.045 216.629 317.442 215.656L315.194 247.878L330.101 265.046C330.366 265.361 330.326 265.813 330.042 266.059C329.914 266.207 329.727 266.266 329.57 266.266V266.276Z" fill="#202D37"/>
<path d="M324.2 211.256C324.052 211.256 323.885 211.217 323.768 211.108C323.453 210.902 320.998 209.889 318.671 210.774C318.298 210.921 317.885 210.735 317.738 210.361C317.591 209.987 317.777 209.574 318.15 209.427C321.126 208.286 324.18 209.555 324.671 209.968C324.985 210.214 325.024 210.666 324.75 210.981C324.602 211.167 324.396 211.246 324.19 211.246L324.2 211.256Z" fill="#202D37"/>
<path d="M291.53 285.301C288.849 285.301 286.581 284.435 284.921 282.734C282.387 280.129 281.867 276.215 282.22 273.423C282.26 273.029 282.633 272.744 283.026 272.803C283.418 272.842 283.703 273.216 283.644 273.609C283.33 276.068 283.772 279.48 285.952 281.741C287.563 283.393 289.831 284.101 292.708 283.806C293.101 283.767 293.455 284.052 293.494 284.445C293.533 284.839 293.248 285.193 292.856 285.232C292.424 285.271 291.972 285.291 291.53 285.291V285.301Z" fill="#202D37"/>
<path d="M256.038 294.141C255.93 294.141 255.812 294.121 255.704 294.062C255.35 293.875 255.213 293.443 255.389 293.089C258.836 286.432 259.209 285.537 259.681 282.538C259.926 280.965 260.015 279.293 260.113 277.494C260.398 271.869 260.732 265.478 266.349 259.952C266.633 259.686 267.095 259.686 267.36 259.971C267.645 260.257 267.625 260.719 267.34 260.984C262.116 266.117 261.812 272.194 261.537 277.553C261.429 279.372 261.35 281.112 261.085 282.744C260.574 286.029 260.034 287.189 256.646 293.728C256.538 293.993 256.293 294.141 256.028 294.141H256.038Z" fill="#202D37"/>
<path d="M244.138 279.105C243.971 279.105 243.823 279.066 243.686 278.958C243.372 278.712 243.313 278.25 243.558 277.945C255.735 262.428 274.57 243.421 278.979 239.675C279.785 226.745 280.894 207.699 280.855 204.739C280.521 204.611 280.01 204.454 279.49 204.287C271.212 201.533 265.761 199.173 266.027 196.548C266.105 195.86 266.213 194.808 279.755 189.39C286.256 186.784 292.826 184.404 292.885 184.385C293.258 184.237 293.67 184.444 293.818 184.817C293.965 185.191 293.759 185.604 293.385 185.752C281.454 190.078 268.609 195.348 267.46 196.794C267.5 197.128 267.971 198.161 271.919 199.94C274.668 201.179 277.968 202.281 279.952 202.92C281.67 203.5 281.876 203.559 282.063 203.746C282.348 204.031 282.416 204.1 282.122 210.039C281.974 213.018 281.749 217.158 281.464 222.32C280.963 231.13 280.413 240.009 280.413 240.088C280.393 240.295 280.305 240.481 280.148 240.609C276.269 243.775 257.071 263.117 244.697 278.849C244.57 279.017 244.363 279.095 244.138 279.095V279.105Z" fill="#202D37"/>
<path d="M290.822 208.939C290.468 208.939 290.164 208.919 289.849 208.88C289.457 208.821 289.191 208.447 289.25 208.054C289.309 207.661 289.682 207.395 290.075 207.454C293.07 207.956 299.719 205.203 301.722 202.656C301.967 202.341 302.419 202.282 302.733 202.528C303.048 202.774 303.107 203.236 302.861 203.541C300.73 206.255 294.543 208.939 290.822 208.939Z" fill="#202D37"/>
<path d="M292.774 206.391C292.695 206.391 292.627 206.372 292.548 206.352C292.175 206.224 291.969 205.811 292.096 205.437C292.529 204.11 293.648 203.038 295.072 202.566C296.643 202.025 298.372 202.301 299.845 203.294C300.178 203.52 300.257 203.982 300.031 204.307C299.805 204.641 299.354 204.72 299.02 204.493C297.949 203.746 296.663 203.559 295.534 203.933C294.542 204.267 293.756 205.005 293.471 205.9C293.393 206.185 293.098 206.401 292.794 206.401L292.774 206.391Z" fill="#202D37"/>
<path d="M297.344 212.173C295.88 212.173 294.368 211.652 293.15 210.688C292.836 210.442 292.797 209.99 293.042 209.675C293.288 209.36 293.74 209.321 294.054 209.567C295.458 210.708 297.373 211.052 298.944 210.432C300.555 209.813 301.605 208.259 301.939 205.988C301.998 205.594 302.371 205.329 302.764 205.388C303.157 205.447 303.422 205.821 303.363 206.214C302.951 209.006 301.566 210.993 299.465 211.799C298.787 212.045 298.06 212.173 297.334 212.173H297.344Z" fill="#202D37"/>
<path d="M287.413 257.588C287 257.588 286.588 257.461 286.175 257.234C283.22 255.582 280.234 248.385 279.134 244.039C279.026 243.645 279.282 243.252 279.655 243.154C280.048 243.055 280.44 243.301 280.539 243.675C281.756 248.473 284.712 254.737 286.873 255.966C287.157 256.133 287.383 256.172 287.57 256.113C288.316 255.887 289.819 255.101 291.743 254.127C296.182 251.856 303.616 248.07 311.767 245.75C312.159 245.651 312.552 245.877 312.65 246.251C312.758 246.644 312.523 247.038 312.159 247.136C304.146 249.407 296.781 253.154 292.401 255.405C290.339 256.458 288.846 257.225 288.002 257.47C287.796 257.579 287.609 257.598 287.403 257.598L287.413 257.588Z" fill="#202D37"/>
<path d="M303.147 240.354C306.073 239.981 307.085 244.307 303.481 244.661C300.466 244.976 299.435 240.836 303.147 240.354Z" fill="white"/>
<path d="M303.195 245.408C301.418 245.408 300.22 244.13 300.082 242.783C299.935 241.416 300.809 239.931 303.077 239.636C304.236 239.489 305.287 239.921 305.945 240.816C306.563 241.662 306.711 242.743 306.298 243.648C306.053 244.228 305.346 245.202 303.578 245.388C303.451 245.408 303.333 245.408 303.205 245.408H303.195ZM303.234 241.082C302.076 241.229 301.398 241.809 301.496 242.616C301.575 243.343 302.282 244.061 303.421 243.943C304.207 243.864 304.766 243.55 304.973 243.078C305.159 242.645 305.081 242.104 304.766 241.691C304.58 241.426 304.108 240.993 303.244 241.091L303.234 241.082Z" fill="#202D37"/>
<path d="M297.343 241.387C300.279 241.013 301.291 245.34 297.677 245.694C294.682 246.008 293.651 241.869 297.343 241.387Z" fill="#F3F5F8"/>
<path d="M297.379 246.441C295.601 246.441 294.403 245.162 294.266 243.815C294.118 242.449 294.992 240.964 297.261 240.669C298.42 240.521 299.47 240.954 300.128 241.849C300.747 242.694 300.894 243.776 300.482 244.681C300.236 245.261 299.529 246.234 297.762 246.421C297.634 246.441 297.516 246.441 297.389 246.441H297.379ZM297.438 242.114C296.279 242.262 295.601 242.842 295.7 243.648C295.778 244.376 296.485 245.094 297.624 244.976C298.41 244.897 298.97 244.582 299.176 244.11C299.362 243.678 299.284 243.137 298.97 242.724C298.763 242.458 298.312 242.016 297.448 242.124L297.438 242.114Z" fill="#202D37"/>
<path d="M291.477 241.06C294.364 240.647 295.336 245.632 291.811 246.045C288.835 246.379 287.824 241.601 291.477 241.06Z" fill="#F3F5F8"/>
<path d="M291.505 246.789C289.748 246.789 288.638 245.382 288.451 243.957C288.265 242.452 289.09 240.692 291.387 240.358C292.438 240.21 293.43 240.604 294.088 241.449C294.834 242.423 295.021 243.809 294.559 244.901C294.127 245.953 293.175 246.621 291.898 246.759C291.751 246.759 291.633 246.779 291.505 246.779V246.789ZM291.82 241.764C291.741 241.764 291.672 241.764 291.594 241.784C290.17 241.99 289.777 242.944 289.885 243.77C289.983 244.635 290.671 245.442 291.741 245.324C292.487 245.245 292.998 244.891 293.224 244.33C293.489 243.711 293.371 242.885 292.939 242.324C292.733 242.079 292.379 241.764 291.82 241.764Z" fill="#202D37"/>
<path d="M286.675 239.586C289.464 241.139 287.352 245.771 284.014 243.804C281.205 242.152 283.149 237.639 286.675 239.586Z" fill="#F3F5F8"/>
<path d="M285.608 245.016C285.048 245.016 284.39 244.869 283.664 244.436C281.808 243.345 281.621 241.29 282.407 239.923C283.173 238.576 284.901 237.77 287.052 238.969C288.102 239.549 288.701 240.562 288.721 241.722C288.741 242.922 288.102 244.063 287.111 244.643C286.757 244.81 286.246 245.016 285.598 245.016H285.608ZM285.029 239.844C284.371 239.844 283.89 240.198 283.644 240.651C283.212 241.418 283.31 242.578 284.39 243.197C285.137 243.63 285.814 243.689 286.374 243.384C286.914 243.069 287.258 242.411 287.258 241.752C287.258 241.378 287.13 240.7 286.354 240.257C285.834 239.972 285.402 239.844 285.029 239.844Z" fill="#202D37"/>
<path d="M279.205 235.923C282.073 234.458 284.715 238.529 281.15 240.23C278.174 241.655 275.552 237.791 279.205 235.923Z" fill="#F3F5F8"/>
<path d="M279.861 241.249C278.584 241.249 277.485 240.502 276.994 239.509C276.355 238.211 276.679 236.382 278.869 235.251C279.989 234.671 281.206 234.73 282.169 235.379C283.102 235.999 283.632 237.051 283.573 238.113C283.534 238.771 283.18 240.01 281.452 240.846C280.912 241.131 280.362 241.259 279.861 241.259V241.249ZM280.44 236.323C280.175 236.323 279.861 236.382 279.527 236.549C278.349 237.149 277.877 238.034 278.29 238.87C278.663 239.617 279.675 240.109 280.833 239.548C281.639 239.155 282.09 238.614 282.139 238.014C282.179 237.474 281.874 236.923 281.373 236.589C281.187 236.461 280.853 236.323 280.44 236.323Z" fill="#202D37"/>
<path d="M309.528 239.265C312.848 238.852 313.987 243.729 309.902 244.122C306.494 244.457 305.316 239.776 309.528 239.265Z" fill="white"/>
<path d="M309.567 244.846C307.602 244.846 306.287 243.44 306.139 241.946C305.972 240.461 306.945 238.819 309.439 238.514C310.715 238.347 311.874 238.829 312.601 239.822C313.279 240.756 313.426 241.936 312.994 242.929C312.729 243.548 311.963 244.63 309.979 244.827C309.832 244.846 309.694 244.846 309.567 244.846ZM309.606 239.969C308.241 240.136 307.436 240.834 307.563 241.808C307.671 242.673 308.496 243.529 309.832 243.401C310.765 243.322 311.403 242.949 311.668 242.349C311.894 241.828 311.815 241.188 311.442 240.697C311.197 240.362 310.637 239.851 309.606 239.969Z" fill="#202D37"/>
<path d="M315.361 238.672C318.317 237.846 320.006 241.966 316.372 242.891C313.338 243.658 311.62 239.724 315.361 238.672Z" fill="white"/>
<path d="M315.615 243.708C314.093 243.708 312.935 242.715 312.601 241.535C312.247 240.208 312.915 238.615 315.183 237.976C316.342 237.642 317.521 237.936 318.326 238.723C319.053 239.451 319.357 240.483 319.092 241.437C318.925 242.037 318.365 243.128 316.568 243.61C316.234 243.669 315.91 243.708 315.615 243.708ZM316.156 239.284C315.969 239.284 315.782 239.303 315.576 239.362C314.398 239.697 313.799 240.375 314.005 241.162C314.192 241.889 315.036 242.489 316.214 242.174C317.02 241.968 317.56 241.555 317.697 241.034C317.825 240.601 317.658 240.1 317.305 239.736C316.99 239.451 316.578 239.284 316.146 239.284H316.156Z" fill="#202D37"/>
<path d="M325.901 180.217C325.901 180.217 327.904 174.779 331.744 174.966C341.093 175.379 337.44 186.382 337.44 186.382C341.957 184.622 344.353 189.155 342.369 192.302C340.405 195.448 337.233 194.514 337.233 194.514C339.649 196.412 335.132 202.125 330.713 202.203C326.294 202.282 326.147 199.991 326.147 199.991C324.202 201.476 322.042 200.758 321.109 198.87C321.069 205.094 315.786 209.873 311.534 206.422C306.909 202.656 308.215 193.413 308.215 193.413C306.87 194.091 305.947 192.626 307.351 191.367C303.099 194.239 298.64 191.407 301.469 187.562C298.66 190.128 289.802 190.168 288.398 186.077C287.632 183.826 289.969 182.665 289.969 182.665C289.969 182.665 285.845 180.246 287.18 176.559C288.545 172.882 297.835 173.039 303.099 179.479C303.099 179.479 303.57 177.061 306.958 177.887C310.346 178.712 310.631 184.671 310.631 184.671C310.631 184.671 313.537 183.157 316.385 185.969C316.385 185.969 314.834 182.292 317.976 179.578C321.482 176.559 325.901 180.217 325.901 180.217Z" fill="#202D37"/>
<path d="M314.568 208.319C313.35 208.319 312.152 207.867 311.062 206.991C307.055 203.727 307.183 196.873 307.389 194.307C306.918 194.268 306.476 194.042 306.191 193.629C306.044 193.422 305.965 193.176 305.926 192.901C303.756 193.668 301.772 193.166 300.721 192.075C300.122 191.436 299.71 190.462 299.896 189.282C297.687 190.128 294.633 190.335 292.07 189.676C289.801 189.096 288.25 187.896 287.719 186.303C287.16 184.671 287.906 183.402 288.731 182.645C287.199 181.406 285.49 179.086 286.521 176.293C287.042 174.867 288.485 173.894 290.547 173.54C293.975 172.96 299.179 174.199 302.931 178.171C303.117 177.925 303.363 177.699 303.697 177.493C304.58 176.932 305.739 176.814 307.143 177.158C310.158 177.886 311.022 181.829 311.268 183.678C312.201 183.452 313.684 183.343 315.294 184.238C315.216 182.645 315.667 180.62 317.523 179.027C320.244 176.687 323.631 177.847 325.576 179.125C326.361 177.493 328.404 174.1 331.753 174.268C334.414 174.395 336.378 175.32 337.556 177.06C339.373 179.686 338.882 183.432 338.44 185.379C340.129 185.084 341.681 185.605 342.692 186.824C344.018 188.417 344.116 190.836 342.957 192.694C341.72 194.681 339.923 195.32 338.519 195.389C338.646 195.949 338.578 196.588 338.352 197.267C337.468 199.912 334.08 202.891 330.653 202.96C327.54 202.999 326.253 201.947 325.723 201.102C324.879 201.534 323.946 201.662 323.082 201.456C322.541 201.328 322.05 201.082 321.599 200.757C321.078 203.924 319.262 206.696 316.846 207.827C316.149 208.142 315.363 208.319 314.577 208.319H314.568ZM308.204 192.685C308.351 192.685 308.489 192.724 308.616 192.812C308.842 192.98 308.95 193.225 308.911 193.491C308.891 193.57 307.713 202.39 311.965 205.841C313.654 207.227 315.245 206.942 316.276 206.441C318.653 205.32 320.342 202.203 320.342 198.85C320.342 198.516 320.568 198.23 320.901 198.142C321.235 198.063 321.559 198.221 321.707 198.516C322.08 199.263 322.718 199.794 323.445 199.961C324.191 200.128 324.947 199.922 325.674 199.361C325.9 199.194 326.195 199.135 326.44 199.253C326.686 199.381 326.833 199.607 326.852 199.872C326.872 200.02 327.206 201.485 330.673 201.426C333.373 201.387 336.309 198.86 337.006 196.726C337.272 195.939 337.193 195.359 336.761 195.035C336.496 194.828 336.407 194.435 336.574 194.12C336.741 193.806 337.085 193.668 337.419 193.747C337.527 193.766 340.1 194.474 341.75 191.849C342.594 190.502 342.516 188.791 341.583 187.65C340.718 186.598 339.295 186.342 337.684 186.991C337.419 187.1 337.124 187.031 336.918 186.844C336.712 186.657 336.653 186.342 336.732 186.097C336.751 186.038 338.44 180.826 336.358 177.778C335.425 176.431 333.864 175.713 331.674 175.605H331.527C328.345 175.605 326.548 180.344 326.528 180.403C326.45 180.629 326.263 180.797 326.037 180.856C325.812 180.915 325.566 180.856 325.399 180.708C325.232 180.561 321.412 177.463 318.437 180.03C315.736 182.34 316.993 185.467 317.032 185.595C317.16 185.91 317.052 186.274 316.767 186.46C316.482 186.647 316.109 186.628 315.864 186.382C313.448 184.002 311.052 185.162 310.954 185.202C310.728 185.31 310.482 185.31 310.276 185.182C310.07 185.054 309.923 184.828 309.923 184.602C309.844 183.088 309.137 179.056 306.8 178.476C305.808 178.23 305.022 178.289 304.492 178.624C303.932 178.958 303.814 179.509 303.814 179.538C303.756 179.804 303.549 180.04 303.274 180.099C303.009 180.158 302.715 180.059 302.548 179.853C299.12 175.674 294.043 174.346 290.783 174.907C289.251 175.153 288.2 175.841 287.876 176.746C286.737 179.823 290.312 181.957 290.351 181.977C290.577 182.124 290.724 182.37 290.705 182.616C290.685 182.862 290.538 183.107 290.312 183.235C290.125 183.314 288.554 184.189 289.094 185.782C289.615 187.296 291.402 187.955 292.443 188.22C295.438 188.987 299.415 188.407 300.986 186.982C301.251 186.736 301.693 186.736 301.958 186.982C302.224 187.227 302.273 187.64 302.066 187.955C301.183 189.174 301.075 190.295 301.782 191.033C302.685 191.967 304.796 192.193 306.947 190.718C307.261 190.512 307.693 190.571 307.919 190.885C308.145 191.2 308.106 191.613 307.821 191.878C307.32 192.311 307.32 192.665 307.389 192.763C307.448 192.842 307.634 192.842 307.89 192.724C308.017 192.685 308.116 192.665 308.243 192.665L308.204 192.685Z" fill="#202D37"/>
<path d="M232.037 248.488C231.959 248.488 231.871 248.468 231.772 248.448C226.381 246.364 224.034 241.191 225.497 234.82C222.915 234.898 217.219 234.78 216.846 231.988C216.659 230.582 217.504 229.195 219.242 228.104C222.237 226.196 227.412 225.39 230.574 227.425C230.908 227.632 231.006 228.084 230.8 228.419C230.594 228.753 230.142 228.851 229.808 228.645C227.245 227.012 222.6 227.691 220.027 229.323C219.33 229.775 218.152 230.71 218.289 231.801C218.476 233.148 223.121 233.561 226.42 233.335C226.646 233.315 226.872 233.414 227.039 233.6C227.186 233.787 227.245 234.033 227.167 234.259C225.409 240.385 227.334 245.184 232.332 247.101C232.705 247.249 232.892 247.662 232.745 248.035C232.597 248.301 232.332 248.488 232.047 248.488H232.037Z" fill="#202D37"/>
<path d="M151.533 118.74C151.209 116.026 209.147 105.927 210.807 109.054C213.291 113.754 212.231 123.105 214.627 124.453C217.023 125.8 255.155 148.936 252.827 153.607C250.5 158.278 191.54 181.011 187.484 181.414C183.428 181.818 156.747 145.495 154.979 142.643C153.212 139.792 152.122 123.597 151.542 118.74H151.533Z" stroke="#202D37" stroke-width="1.5" stroke-linecap="round" stroke-linejoin="round"/>
<path d="M203.945 113.255C196.011 112.852 157.506 120.315 157.496 122.095C157.496 124.74 158.154 135.035 160.177 139.991C161.807 144.003 187.83 172.97 187.83 172.97" stroke="#202D37" stroke-width="1.5" stroke-linecap="round" stroke-linejoin="round"/>
<path d="M160.176 139.989L207.754 126.253" stroke="#202D37" stroke-width="1.5" stroke-linecap="round" stroke-linejoin="round"/>
<path d="M175.977 148.387C178.667 145.585 212.232 135.811 215.797 135.958" stroke="#202D37" stroke-width="1.5" stroke-linecap="round" stroke-linejoin="round"/>
<path d="M183.898 155.693C185.696 152.861 218.2 141.71 223.984 141.828" stroke="#202D37" stroke-width="1.5" stroke-linecap="round" stroke-linejoin="round"/>
<path d="M205.406 156.097C205.406 156.097 226.755 147.523 232.618 147.827" stroke="#202D37" stroke-width="1.5" stroke-linecap="round" stroke-linejoin="round"/>
<path d="M184.992 139.097C189.068 139.953 208.099 158.252 210.426 162.991" stroke="#202D37" stroke-width="1.5" stroke-linecap="round" stroke-linejoin="round"/>
<path d="M201.379 135.077C204.639 134.998 225.33 152.746 226.607 156.099" stroke="#202D37" stroke-width="1.5" stroke-linecap="round" stroke-linejoin="round"/>
<path d="M218.641 99.6869C218.563 99.6672 218.484 99.6377 218.386 99.5984C218.042 99.3919 217.944 98.9494 218.15 98.6052C219.682 96.1372 221.283 94.1608 221.361 94.0919C221.607 93.7773 222.078 93.738 222.392 93.9936C222.707 94.2394 222.746 94.7114 222.491 95.0261C222.471 95.0457 220.87 96.973 219.417 99.3722C219.221 99.6279 218.926 99.7459 218.641 99.6869Z" fill="#202D37"/>
<path d="M206.204 92.9111C205.861 92.8422 205.605 92.5276 205.605 92.1736C205.605 92.0458 205.763 89.0664 207.059 84.327C207.167 83.9435 207.569 83.7075 207.952 83.8157C208.335 83.9238 208.571 84.327 208.463 84.7104C207.196 89.2729 207.078 92.1933 207.069 92.2326C207.059 92.6259 206.705 92.9406 206.313 92.9308L206.214 92.9111H206.204Z" fill="#202D37"/>
<path d="M192.591 95.6155C192.345 95.5663 192.129 95.3992 192.041 95.1534C192.031 95.1042 190.371 90.4631 189.144 87.5427C188.977 87.1789 189.163 86.7462 189.527 86.6086C189.89 86.4414 190.322 86.6283 190.46 86.9921C191.697 89.9518 193.366 94.6224 193.386 94.6716C193.524 95.055 193.327 95.4582 192.944 95.5959C192.836 95.6155 192.708 95.6352 192.581 95.6155H192.591Z" fill="#202D37"/>
</svg>
