<svg width="384" height="326" viewBox="0 0 384 326" fill="none" xmlns="http://www.w3.org/2000/svg">
<path d="M288.971 242.13C283.067 250.37 275.56 257.63 266.928 263.962C220.125 298.311 151.111 311.434 102.85 292.929C91.7086 288.652 82.275 283.03 75.4029 276.041C33.2848 233.42 -0.878254 114.996 86.4087 72.3126C271.937 -18.4375 334.411 179.022 288.971 242.13Z" fill="#F3F5F8"/>
<path d="M336.633 193.549C336.581 193.549 336.518 193.549 336.466 193.528C335.945 193.466 336.529 185.799 336.591 185.278C336.726 184.37 347.93 100.077 349.2 89.8127C350.606 78.6619 350.981 73.2169 344.9 71.4853C341.797 70.6091 328.417 71.2454 311.591 73.0709C294.473 74.938 279.594 77.3893 273.763 79.2982C273.252 79.4546 272.711 79.2043 272.555 78.6827C272.399 78.1716 272.659 77.6396 273.169 77.4832C280.416 75.1049 298.305 72.6015 311.403 71.1828C325.158 69.6808 341.339 68.4812 345.421 69.6495C353.386 71.913 352.428 79.5277 351.116 90.063C349.846 100.358 337.643 191.807 337.549 192.746C337.455 193.195 337.06 193.528 336.622 193.549H336.633Z" fill="#202D37"/>
<path d="M319.422 192.966H319.256C318.735 192.903 318.36 192.423 318.423 191.902C318.527 190.963 329.855 98.9402 330.501 85.9535C330.563 84.7123 330.418 82.9911 329.314 81.9585C328.408 81.0823 326.909 80.7276 324.878 80.8841C323.15 81.0301 321.401 81.1761 319.62 81.3222C301.253 82.9077 280.418 84.6705 274.473 86.3708C273.952 86.5273 273.421 86.2143 273.296 85.7032C273.14 85.1921 273.452 84.6497 273.963 84.5245C280.106 82.7825 300.108 81.0614 319.495 79.4029C321.276 79.2568 323.025 79.1108 324.753 78.9647C327.356 78.7353 329.356 79.2881 330.688 80.5607C331.969 81.7811 332.563 83.6796 332.458 86.0474C331.813 99.1175 320.484 191.192 320.38 192.131C320.255 192.6 319.86 192.945 319.422 192.966Z" fill="#202D37"/>
<path d="M301.636 265.553H301.584C301.282 265.543 294.16 265.303 267.296 262.1C240.651 258.908 234.31 258.157 233.862 246.057C233.039 224.476 246.398 133.59 249.616 115.012C249.71 114.491 250.22 114.136 250.709 114.23C251.23 114.324 251.584 114.824 251.49 115.325C247.461 138.628 235.018 226.155 235.778 245.953C236.153 256.05 239.724 256.854 267.525 260.16C294.254 263.352 301.563 263.602 301.647 263.592C302.167 263.592 302.594 264.051 302.584 264.572C302.552 265.094 302.126 265.522 301.626 265.543L301.636 265.553Z" fill="#202D37"/>
<path d="M280.191 257.26C275.422 257.438 260.262 254.454 258.762 253.985C257.065 253.443 256.555 250.605 256.753 248.728C256.93 246.882 257.773 245.755 259.023 245.619C265.145 244.983 280.441 246.996 282.877 249.155C284.241 250.345 284.803 252.347 284.324 254.131C283.887 255.737 282.669 256.833 281.034 257.167C280.784 257.198 280.514 257.24 280.191 257.25V257.26ZM260.751 247.455C260.199 247.476 259.679 247.518 259.221 247.57C259.054 247.57 258.846 247.945 258.742 248.582C258.44 250.188 259.002 251.982 259.398 252.18C260.928 252.671 275.974 255.518 280.087 255.372C280.337 255.372 280.524 255.352 280.691 255.32C281.867 255.08 282.325 254.298 282.502 253.683C282.794 252.598 282.44 251.346 281.648 250.637C280.149 249.322 267.904 247.184 260.772 247.455H260.751Z" fill="#202D37"/>
<path d="M291.823 245.36H291.687C291.521 245.339 294.301 245.673 278.63 243.618C269.416 242.418 261.961 241.24 256.452 240.123C246.967 238.194 245.134 236.858 244.572 235.815C242.979 232.77 244.01 214.63 245.176 199.953C246.467 183.671 254.516 122.482 255.776 115.024C255.869 114.502 256.348 114.148 256.869 114.242C257.39 114.336 257.744 114.815 257.65 115.337C256.411 122.774 248.341 183.879 247.071 200.1C245.239 223.402 245.436 233.364 246.238 234.908C246.353 235.127 247.446 236.347 256.848 238.256C262.294 239.341 269.728 240.53 278.891 241.73C294.54 243.764 291.698 243.461 291.864 243.482C292.385 243.513 292.791 243.993 292.729 244.525C292.687 244.995 292.291 245.37 291.823 245.381V245.36Z" fill="#202D37"/>
<path d="M321.962 241.289C321.91 241.289 321.858 241.289 321.795 241.268C321.275 241.205 320.9 240.726 320.983 240.204C321.202 238.66 321.66 235.51 322.295 231.171C325.898 206.679 341.683 91.52 339.579 82.1529C339.454 81.6314 339.788 81.1307 340.308 80.9951C340.829 80.8699 341.329 81.2037 341.464 81.7253C343.401 90.3309 330.375 189.593 324.201 231.432C323.565 235.771 323.107 238.89 322.889 240.434C322.826 240.934 322.42 241.278 321.962 241.289Z" fill="#202D37"/>
<path d="M263.347 123.277C264.731 122.818 316.647 119.418 317.761 122.808C318.875 126.188 315.22 142.324 314.71 144.254C314.2 146.184 262.878 143.055 260.577 142.7C258.276 142.345 261.962 123.747 263.336 123.288L263.347 123.277Z" fill="#9BCFAF"/>
<path d="M256.811 170.927C256.967 168.727 257.467 155.615 258.821 153.226C260.174 150.837 313.516 155.093 314.12 156.449C314.724 157.805 313.693 176.435 311.913 177.28C310.132 178.125 256.655 173.128 256.811 170.927Z" fill="#9BCFAF"/>
<path d="M303.424 246.365C303.258 246.365 303.102 246.365 302.935 246.355C295.272 245.99 285.141 244.738 275.884 243.215C275.312 243.121 274.947 242.694 275.041 242.109C275.134 241.536 275.603 241.244 276.186 241.338C285.359 242.85 295.449 243.872 303.039 244.227C307.069 244.415 310.755 241.525 311.525 237.499C314.857 220.183 317.252 202.023 319.064 186.533C319.136 185.949 319.543 185.521 320.136 185.594C320.719 185.667 321.084 186.168 321.021 186.752C319.209 202.273 316.95 220.517 313.608 237.906C312.671 242.798 308.339 246.365 303.424 246.365Z" fill="#202D37"/>
<path d="M308.499 265.813C304.053 265.813 298.305 265.437 290.309 264.624C289.726 264.561 289.247 264.133 289.309 263.56C289.372 262.975 289.892 262.663 290.475 262.704C305.885 264.269 313.007 263.758 317.932 263.142C322.014 262.631 325.263 259.575 326.002 255.528C329.688 235.573 334.769 201.255 336.903 182.938C336.976 182.354 337.362 181.947 337.945 182.02C338.528 182.093 338.882 182.563 338.819 183.147C336.674 201.495 331.77 235.928 328.084 255.924C327.168 260.879 323.191 264.634 318.193 265.249C315.725 265.552 312.737 265.813 308.499 265.813Z" fill="#202D37"/>
<path d="M318.804 249.461C318.804 249.461 309.225 255.845 299.105 256.074C297.595 288.609 315.014 292.406 315.014 292.406C315.014 292.406 332.736 292.802 336.953 260.601C327.051 257.983 318.804 249.461 318.804 249.461Z" fill="#9BCFAF"/>
<path d="M315.034 293.262H314.982C314.982 293.262 314.878 293.262 314.805 293.241C314.607 293.189 310.109 292.157 305.809 286.983C301.915 282.278 297.438 273.11 298.219 256.013C298.239 255.565 298.625 255.189 299.072 255.189C308.829 254.991 318.22 248.805 318.304 248.732C318.658 248.503 319.137 248.555 319.439 248.857C319.512 248.93 327.654 257.234 337.16 259.747C337.587 259.852 337.868 260.279 337.816 260.707C336.036 274.309 331.704 283.916 324.947 289.267C320.043 293.168 315.628 293.294 315.045 293.294L315.034 293.262ZM299.926 256.91C299.322 272.922 303.498 281.475 307.142 285.877C310.765 290.227 314.482 291.354 315.086 291.51C315.69 291.489 319.636 291.26 323.937 287.786C328.206 284.344 333.735 276.948 335.952 261.208C327.581 258.746 320.594 252.414 318.689 250.547C316.45 251.955 308.558 256.451 299.937 256.91H299.926Z" fill="#202D37"/>
<path d="M306.736 270.245C306.632 271.173 312.765 277.641 314.347 278.465C315.909 279.32 329.632 268.232 329.726 266.751C329.83 265.269 327.435 263.486 326.707 264.059C325.978 264.633 316.534 273.385 315.326 272.905C314.118 272.425 311.307 267.345 310.401 267.147C309.516 266.99 306.934 268.534 306.736 270.234V270.245Z" fill="#202D37"/>
<path d="M187.403 45.7836C212.725 42.31 264.381 39.0138 266.828 41.5486C269.296 44.0833 277.147 113.867 274.554 121.492C271.972 129.117 211.153 133.363 198.71 133.863C186.247 134.364 184.195 129.983 182.977 122.4C181.738 114.816 177.875 63.7875 177.552 57.6541C177.23 51.5206 177.49 47.1292 187.392 45.7836H187.403Z" fill="white"/>
<path d="M201.658 134.529C200.513 134.591 199.565 134.644 198.784 134.654C192.651 134.884 188.653 133.976 186.123 131.754C183.77 129.658 182.853 126.549 182.197 122.512C180.948 114.773 177.033 63.1076 176.741 57.673C176.398 51.1432 176.939 46.3866 187.289 44.9784C199.471 43.299 218.432 41.5884 235.634 40.5974C244.193 40.0967 251.565 39.8464 256.937 39.8359C266.288 39.8359 267.027 40.587 267.423 40.9834C267.745 41.3171 268.506 42.0995 270.255 53.9283C271.306 61.0005 272.421 70.086 273.41 79.5365C274.305 88.1421 277.085 116.619 275.346 121.761C274.899 123.076 273.181 125.099 263.56 127.373C257.874 128.708 250.086 129.981 240.423 131.16C225.44 132.985 209.53 134.112 201.627 134.539L201.658 134.529ZM187.414 45.7921L187.528 46.6057C178.313 47.8678 178.053 51.4144 178.386 57.5896C178.751 64.4741 182.624 114.919 183.811 122.272C184.957 129.293 186.539 133.538 198.711 133.058C204.896 132.818 223.18 131.64 240.257 129.564C269.182 126.059 273.368 122.585 273.805 121.25C274.878 118.11 274.087 101.963 271.837 80.1206C269.588 58.4658 267.214 43.6224 266.267 42.1308C265.299 41.5466 257.76 40.9416 235.248 42.2664C218.235 43.2677 199.503 44.968 187.528 46.5848L187.414 45.7921Z" fill="#202D37" stroke="#202D37" stroke-width="0.5" stroke-miterlimit="10"/>
<path d="M249.72 40.3189C249.439 49.5713 255.78 55.4335 263.839 55.6839C271.888 55.9342 279.708 50.4788 279.989 41.2264C280.27 31.9741 272.856 24.2551 264.808 24.0048C256.759 23.7858 250.012 31.0875 249.72 40.3085V40.3189Z" fill="#FBA420"/>
<path d="M264.529 32.4844C264.842 37.8042 265.041 41.2256 265.072 46.4724" stroke="#202D37" stroke-width="3" stroke-linecap="round" stroke-linejoin="round"/>
<path d="M258.178 40.2798C263.478 39.8208 266.601 39.6226 271.839 39.4453" stroke="#202D37" stroke-width="3" stroke-linecap="round" stroke-linejoin="round"/>
<path d="M237.438 78.9966C237.438 85.5264 235.199 90.5437 226.88 90.5437C218.56 90.5437 216.29 85.7037 216.29 79.1739C216.29 72.6441 219.862 66.1038 226.88 66.907C233.897 67.7102 237.438 72.4772 237.438 78.9966Z" stroke="#202D37" stroke-width="2" stroke-linecap="round" stroke-linejoin="round"/>
<path d="M210.802 108.154C216.289 90.8278 242.799 91.9439 251.004 106.537" stroke="#202D37" stroke-width="2" stroke-linecap="round" stroke-linejoin="round"/>
<path d="M226.281 118.315C243.895 118.315 258.174 104.01 258.174 86.3643C258.174 68.7187 243.895 54.4141 226.281 54.4141C208.667 54.4141 194.388 68.7187 194.388 86.3643C194.388 104.01 208.667 118.315 226.281 118.315Z" stroke="#202D37" stroke-width="2" stroke-linecap="round" stroke-linejoin="round"/>
<path d="M137.516 192.535C149.396 225.81 161.974 255.591 173.428 300.142C129.883 307.256 85.0372 293.549 66.8259 266.189C68.2004 246.349 73.5003 215.744 92.9922 205.751C93.492 203.164 94.2209 200.87 96.1888 200.192L94.6478 196.489C107.944 196.04 122.938 194.966 137.516 192.535Z" fill="white"/>
<path d="M141.569 205.656C144.995 204.529 152.929 208.107 162.206 213.093C167.787 207.533 169.849 213.051 172.91 213.093C174.431 213.114 174.785 208.921 176.732 208.159C178.679 207.398 181.657 210.068 184.135 209.369C186.613 208.67 185.02 205.468 191.434 201.212C201.086 194.807 218.017 187.547 221.547 191.157L226.742 186.223C232.24 190.061 236.499 196.581 239.633 205.541C237.457 208.681 235.145 210.548 232.667 210.902C235.353 218.674 196.682 253.993 182.885 255.234C174.149 256.956 166.132 255.391 158.531 251.938L141.569 205.635V205.656Z" fill="white"/>
<path d="M134.973 187.508C133.14 180.384 129.631 166.427 127.174 156.664C125.633 150.489 124.488 145.961 124.488 145.961C124.488 145.961 141.981 133.173 142.303 131.525C142.626 129.877 127.549 128.103 111.441 127.645C106.474 134.164 93.2402 134.832 93.2402 134.832C94.3647 144.626 87.9403 156.862 83.8482 153.409C82.682 152.429 81.6408 150.77 80.9223 148.82C74.779 146.639 70.0726 146.765 68.5732 150.77C68.5003 150.979 68.4275 151.187 68.3858 151.396C66.9177 156.831 72.28 159.96 85.2955 161.712C85.3163 161.775 90.1373 179.341 93.2402 190.69C93.8337 192.828 94.3439 194.758 94.7708 196.302C104.309 197.47 132.547 192.275 136.108 191.827C135.983 191.326 135.598 189.772 134.994 187.498L134.973 187.508ZM104.725 147.662C103.944 147.797 103.194 147.265 103.028 146.483L102.413 142.822C102.278 142.039 102.809 141.288 103.6 141.121C103.767 141.09 103.955 141.101 104.1 141.121C104.683 141.236 105.152 141.706 105.256 142.331L105.87 145.993C106.037 146.785 105.506 147.537 104.725 147.662ZM112.503 143.907C111.722 144.042 110.972 143.51 110.806 142.728L110.192 139.067C110.056 138.284 110.587 137.533 111.379 137.366C111.545 137.335 111.733 137.345 111.91 137.366C112.482 137.481 112.961 137.95 113.076 138.545L113.69 142.206C113.815 143.02 113.294 143.771 112.503 143.907Z" fill="#CE8080"/>
<path d="M104.71 147.642C103.929 147.778 103.179 147.246 103.013 146.453L102.398 142.792C102.263 142.009 102.794 141.258 103.585 141.091C104.366 140.956 105.116 141.488 105.282 142.27L105.897 145.931C106.053 146.755 105.532 147.507 104.71 147.632V147.642Z" fill="#202D37"/>
<path d="M112.495 143.893C111.714 144.029 110.965 143.497 110.798 142.715L110.184 139.053C110.048 138.271 110.579 137.52 111.371 137.353C112.152 137.218 112.901 137.75 113.068 138.542L113.682 142.204C113.807 143.017 113.287 143.768 112.495 143.904V143.893Z" fill="#202D37"/>
<path d="M93.1593 206.833C92.7012 206.739 92.3367 206.353 92.2743 205.873C91.9723 202.556 93.6383 200.636 94.6274 199.792L89.5983 181.339C86.0582 168.384 84.8608 164.107 84.5068 162.709C75.344 161.426 70.1483 159.403 68.1179 156.346C67.1184 154.855 66.8581 153.071 67.3995 151.12C67.9305 149.201 69.0134 147.835 70.6585 147.052C73.6885 145.623 78.5614 146.385 85.069 149.295C85.6209 149.524 85.8812 150.182 85.6105 150.724C85.371 151.277 84.7254 151.527 84.1736 151.266C78.3323 148.638 73.9696 147.855 71.5748 148.992C70.5336 149.483 69.8568 150.359 69.5028 151.684C69.1487 153.04 69.2737 154.166 69.9297 155.147C71.6164 157.692 76.6976 159.476 85.5376 160.654C85.9645 160.706 86.3185 161.03 86.4538 161.468C86.5267 161.739 96.5641 198.321 97.0014 199.927C97.0014 199.958 97.0222 199.969 97.0222 199.969C97.1368 200.501 96.9077 200.866 96.7515 201.022C96.6266 201.158 96.46 201.252 96.283 201.314C95.7207 201.742 94.263 203.067 94.5129 205.675C94.5545 206.28 94.1381 206.801 93.5237 206.843C93.3363 206.843 93.2426 206.843 93.1489 206.833H93.1593Z" fill="#202D37"/>
<path d="M100.584 123.068C108.883 111.416 116.411 121.107 111.444 127.626C106.477 134.145 93.2436 134.813 93.2436 134.813C94.3681 144.608 87.9438 156.843 83.8518 153.391C80.5927 150.668 78.3541 142.522 80.5927 137.807C86.7255 124.82 97.7416 114.775 100.584 123.068Z" fill="#202D37"/>
<path d="M84.7901 155.005C84.207 154.89 83.6968 154.63 83.1762 154.212C79.5319 151.166 77.1371 142.571 79.6464 137.314C84.0404 128.03 91.8704 118.632 97.3992 118.945C98.4613 118.997 99.8253 119.446 100.856 120.979C104.365 116.765 107.405 116.379 108.988 116.535C110.998 116.744 112.726 118.09 113.601 120.124C114.704 122.711 114.236 125.809 112.393 128.26C107.988 134.007 97.9094 135.478 94.5047 135.791C94.9628 143.687 91.1207 152.512 87.3202 154.546C86.4456 155.005 85.5918 155.151 84.8005 155.005H84.7901ZM97.5971 121.167C97.4409 121.135 97.3472 121.146 97.2535 121.135C93.6925 120.948 86.5497 127.77 81.6039 138.274C79.6152 142.467 81.6664 150.102 84.6026 152.575C84.9567 152.867 85.446 153.117 86.2894 152.679C89.2569 151.083 93.099 142.509 92.2348 134.946C92.1931 134.654 92.2869 134.362 92.4951 134.112C92.6929 133.893 92.9845 133.736 93.2656 133.726C93.3905 133.726 106.073 132.975 110.664 126.946C112.32 124.776 112.237 122.45 111.602 120.969C111.039 119.654 109.998 118.82 108.759 118.705C106.593 118.476 103.959 120.301 101.533 123.681C101.314 124.014 100.898 124.192 100.502 124.108C100.096 124.056 99.7732 123.775 99.6275 123.399C98.9819 121.657 98.1177 121.271 97.5971 121.167Z" fill="#202D37"/>
<path d="M104.401 157.918C102.214 157.491 99.1219 156.322 96.4668 153.871C96.0399 153.475 95.9878 152.765 96.4147 152.348C96.8104 151.92 97.5184 151.868 97.9453 152.296C101.319 155.415 105.421 156.093 106.483 155.957C107.066 155.884 107.618 156.301 107.691 156.917C107.764 157.501 107.348 158.054 106.733 158.116C106.223 158.148 105.411 158.116 104.401 157.918Z" fill="#202D37"/>
<path d="M80.3926 156.6C80.1843 156.559 79.9761 156.454 79.8303 156.266C79.2472 155.839 75.7071 154.097 73.1561 154.201C72.5522 154.243 72.042 153.763 72.0316 153.158C71.9899 152.553 72.4689 152.042 73.0728 152.031C76.3214 151.875 80.9548 154.045 81.5171 154.91C81.8607 155.422 81.7253 156.089 81.2256 156.433C80.9757 156.6 80.6841 156.642 80.403 156.59L80.3926 156.6Z" fill="#202D37"/>
<path d="M135.91 192.905C135.514 192.832 135.191 192.539 135.077 192.143C134.119 188.92 123.873 147.936 123.457 146.205C123.353 145.777 123.498 145.329 123.873 145.057C131.12 139.779 138.908 133.708 140.887 131.664C138.18 130.631 127.32 129.171 111.451 128.722C110.858 128.702 110.379 128.201 110.41 127.606C110.441 127.012 110.931 126.542 111.535 126.563C119.042 126.761 126.403 127.283 132.265 127.961C141.938 129.056 142.771 130.141 143.125 130.59C143.406 130.934 143.521 131.33 143.438 131.758C143.323 132.363 143.157 133.187 134.015 140.249C130.589 142.898 127.132 145.443 125.799 146.445C127.205 152.025 136.347 188.67 137.232 191.59C137.409 192.164 137.065 192.759 136.493 192.936C136.274 192.925 136.107 192.957 135.93 192.915L135.91 192.905Z" fill="#202D37"/>
<path d="M143.357 210.224C143.055 210.161 142.774 209.984 142.639 209.702C140.462 205.926 139.359 201.733 138.484 198.405C137.87 196.037 137.037 192.845 136.298 192.918C135.714 192.991 134.382 193.21 132.518 193.503C123.553 194.942 102.708 198.363 94.6487 197.383C94.0656 197.299 93.6283 196.778 93.7116 196.194C93.7949 195.61 94.3259 195.172 94.909 195.255C102.624 196.194 123.272 192.835 132.112 191.395C133.996 191.103 135.34 190.863 135.985 190.79C138.609 190.446 139.494 193.722 140.577 197.884C141.431 201.117 142.482 205.144 144.513 208.669C144.815 209.201 144.627 209.858 144.128 210.14C143.857 210.213 143.597 210.255 143.357 210.213V210.224Z" fill="#202D37"/>
<path d="M115.406 213.105C111.814 212.406 108.43 211.3 105.869 210.007C105.317 209.746 105.098 209.099 105.39 208.557C105.65 208.015 106.296 207.785 106.837 208.088C114.209 211.77 126.995 213.261 131.878 209.6C132.357 209.256 133.034 209.319 133.388 209.798C133.742 210.278 133.669 210.956 133.19 211.311C129.234 214.294 122.008 214.398 115.406 213.115V213.105Z" fill="#202D37"/>
<path d="M173.357 300.54C172.992 300.467 172.69 300.217 172.545 299.841C172.315 299.226 158.009 249.292 148.669 225.572C148.461 225.03 148.711 224.383 149.284 224.174C149.825 223.966 150.471 224.216 150.679 224.79C160.05 248.552 174.356 298.475 174.585 299.09C174.794 299.632 174.512 300.279 173.94 300.477C173.742 300.53 173.544 300.561 173.357 300.519V300.54Z" fill="#202D37"/>
<path d="M93.6998 205.387C67.1071 218.551 66.8259 266.189 66.8259 266.189" stroke="#202D37" stroke-width="2.38" stroke-linecap="round" stroke-linejoin="round"/>
<path d="M228.349 187.232L251.152 161.822L267.51 158.484C271.05 161.958 265.792 167.758 258.264 167.351L254.453 171.002C257.514 171.096 259.763 172.034 259.232 175.894C262.606 176.853 264.396 179.096 262.033 182.757C267.801 184.155 266.062 191.728 257.785 193.251C254.078 201.22 247.872 204.423 240.198 204.819C237.929 198.195 234.191 192.239 228.349 187.232Z" fill="#CE8080"/>
<path d="M242.998 200.084C243.123 200.136 243.269 200.146 243.415 200.125C245.914 199.698 248.236 197.288 249.37 193.982C249.995 192.135 250.131 190.372 249.766 188.839C252.817 190.331 257.794 192.271 259.512 189.82C261.751 186.628 256.388 182.434 251.203 178.356C250.87 178.095 250.537 177.824 250.224 177.574C253.275 173.432 256.93 169.041 257.919 168.78C258.273 168.665 258.835 168.592 259.481 168.467C262.23 167.946 266.842 167.09 268.466 164.17C269.518 162.261 269.633 160.362 268.768 159.069C268.081 158.078 266.925 157.629 265.707 157.911C265.103 158.047 263.666 158.287 261.969 158.568C254.951 159.747 251.474 160.414 250.61 161.092C249.412 162.042 230.066 184.229 227.88 186.774C227.578 187.118 227.599 187.639 227.921 187.942C228.244 188.255 228.733 188.224 229.025 187.879C237.563 178.074 250.61 163.179 251.526 162.417C252.338 161.875 258.971 160.748 262.157 160.216C263.937 159.914 265.343 159.684 265.999 159.549C266.603 159.413 267.155 159.611 267.467 160.07C267.956 160.811 267.831 162.042 267.102 163.356C265.843 165.609 261.699 166.391 259.21 166.84C258.533 166.976 257.94 167.069 257.513 167.205C255.462 167.779 250.068 175.07 248.465 177.292C248.329 177.469 248.288 177.709 248.298 177.918C248.34 178.137 248.433 178.335 248.59 178.471C249.11 178.888 249.652 179.305 250.224 179.754C253.921 182.664 259.533 187.034 258.231 188.891C257.18 190.414 251.692 188.213 248.329 186.263C247.986 186.075 247.569 186.158 247.33 186.471C247.09 186.784 247.111 187.254 247.351 187.556C248.475 188.86 248.673 191.092 247.871 193.481C246.955 196.162 245.081 198.196 243.175 198.519C242.738 198.602 242.457 199.02 242.498 199.479C242.509 199.76 242.707 200 242.967 200.105L242.998 200.084Z" fill="#202D37" stroke="#202D37" stroke-width="0.59" stroke-linecap="round" stroke-linejoin="round"/>
<path d="M239.499 205.525C239.499 205.525 239.582 205.556 239.635 205.556C241.332 205.911 245.122 205.316 248.756 203.543C251.983 201.957 256.273 198.88 258.324 193.227C258.481 192.809 258.283 192.309 257.887 192.152C257.491 191.996 257.023 192.215 256.867 192.632C255.013 197.743 251.088 200.56 248.12 202.03C244.57 203.772 241.238 204.19 239.989 203.929C239.562 203.835 239.145 204.127 239.051 204.576C238.968 205.003 239.176 205.4 239.51 205.535L239.499 205.525Z" fill="#202D37" stroke="#202D37" stroke-width="0.59" stroke-linecap="round" stroke-linejoin="round"/>
<path d="M254.46 183.115C254.731 183.23 255.043 183.167 255.293 182.938C258.146 180.153 260.801 176.127 259.749 173.164C259.281 171.902 257.969 170.421 254.168 170.442C253.731 170.442 253.377 170.817 253.377 171.276C253.377 171.735 253.721 172.1 254.148 172.1C255.741 172.079 257.761 172.361 258.26 173.769C258.885 175.511 257.24 178.786 254.231 181.718C253.919 182.031 253.887 182.552 254.168 182.896C254.252 183.001 254.345 183.074 254.45 183.115H254.46Z" fill="#202D37" stroke="#202D37" stroke-width="0.59" stroke-linecap="round" stroke-linejoin="round"/>
<path d="M258.153 187.003C258.382 187.097 258.684 187.065 258.892 186.888C261.589 184.854 264.13 181.172 263.505 178.355C263.255 177.177 262.339 175.706 259.434 175.299C259.007 175.226 258.611 175.56 258.538 176.008C258.466 176.457 258.768 176.874 259.194 176.937C260.819 177.156 261.745 177.771 261.974 178.752C262.401 180.692 260.256 183.821 258.007 185.522C257.643 185.782 257.56 186.314 257.81 186.669C257.872 186.825 257.997 186.93 258.153 186.982V187.003Z" fill="#202D37" stroke="#202D37" stroke-width="0.59" stroke-linecap="round" stroke-linejoin="round"/>
<path d="M254.658 193.44C255.991 193.982 257.938 193.951 260.281 193.283C263.592 192.344 266.32 188.944 266.112 185.992C266.029 184.99 265.477 182.633 261.78 182.341C261.343 182.289 260.968 182.654 260.906 183.113C260.875 183.582 261.187 183.968 261.624 184.02C262.884 184.125 264.425 184.563 264.55 186.18C264.696 188.109 262.686 190.936 259.917 191.708C256.793 192.595 255.075 192.104 254.565 191.405C254.304 191.072 254.315 190.592 254.596 190.039C254.794 189.632 254.648 189.142 254.263 188.933C253.878 188.725 253.409 188.892 253.211 189.298C252.659 190.456 252.701 191.604 253.336 192.48C253.617 192.876 254.075 193.21 254.658 193.45V193.44Z" fill="#202D37" stroke="#202D37" stroke-width="0.59" stroke-linecap="round" stroke-linejoin="round"/>
<path d="M240.57 204.762C240.872 200.319 232.938 188.761 227.523 185.747C227.065 185.486 226.232 185.402 224.046 187.051C223.088 187.76 222.005 188.72 221.505 189.439C217.819 188.605 212.811 189.877 210.208 191.338C209.656 191.651 208.25 192.256 206.49 193.007C197.38 196.918 187.477 201.466 185.728 205.785C184.749 208.205 183.76 208.58 181.959 208.403C181.553 208.361 180.512 207.944 179.668 207.673L179.533 207.641C177.086 206.911 175.222 207.819 174.535 210.103C174.191 211.271 173.858 211.845 173.431 212.012C172.942 212.221 172.14 211.981 171.057 211.334C169.662 210.489 165.434 207.954 162.738 212.064C162.561 212.346 161.28 211.96 157.105 210.239C154.501 209.164 150.42 207.057 148.587 206.348L148.171 206.181C145.651 205.211 144.526 204.116 141.559 204.679L141.84 206.358C144.027 205.931 143.61 206.254 147.629 207.787L148.046 207.954C154.658 210.479 162.238 215.715 164.029 213.013C164.997 211.532 166.434 210.479 170.255 212.794C171.807 213.733 172.994 213.983 173.993 213.566C175.139 213.086 175.67 211.793 176.034 210.573C176.18 210.072 176.638 208.518 179.064 209.237L179.2 209.269C181.574 209.999 185.02 211.72 187.165 206.411C188.8 202.384 201.138 197.085 207.053 194.54C208.927 193.737 210.27 193.153 210.916 192.798C212.8 191.734 217.361 190.159 221.536 191.171C222.848 192.078 230.564 206.431 232.001 210.604C230.991 215.183 230.002 217.405 227.888 219.814C227.669 220.086 204.127 246.434 188.467 252.516C174.587 257.909 163.123 252.286 159.458 251.347C159.041 251.233 158.604 251.514 158.5 251.963C158.396 252.359 158.625 252.787 158.979 252.923L159.062 252.954C162.769 253.913 174.66 259.609 188.987 254.06C204.981 247.863 228.804 221.191 229.023 220.92C231.241 218.385 232.376 215.965 233.417 211.397C235.114 210.917 240.383 207.349 240.539 204.762H240.57ZM233.417 209.717C233.417 209.717 233.365 209.655 233.334 209.634C231.793 205.701 225.337 193.069 222.89 190.253C223.681 189.293 226.107 187.405 226.867 187.301C232.063 190.274 239.248 201.205 239.008 204.721C238.904 206.129 234.979 209.102 233.427 209.728L233.417 209.717Z" fill="#202D37" stroke="#202D37" stroke-width="0.59" stroke-linecap="round" stroke-linejoin="round"/>
<path d="M101.904 245.887C99.7276 258.863 99.6443 276.439 99.8109 292.566" stroke="#202D37" stroke-width="2.38" stroke-linecap="round" stroke-linejoin="round"/>
</svg>
