<svg width="384" height="326" viewBox="0 0 384 326" fill="none" xmlns="http://www.w3.org/2000/svg">
<path d="M105.231 77.5144C31.2019 85.5087 22.6668 148.068 24.1466 164.152C25.6168 180.246 29.3307 240.092 135.065 246.73C240.8 253.368 327.116 164.773 317.473 132.089C308.26 100.857 250.166 109.377 220.188 106.941C190.21 104.506 156.432 71.9939 105.231 77.524V77.5144Z" fill="#F3F5F8"/>
<path d="M186.813 236.492C185.839 240.198 184.76 243.866 183.414 247.457C183.233 247.935 183.109 248.412 183.166 248.928C181.801 249.587 180.283 249.558 178.841 249.778C174.535 250.437 170.163 250.466 165.866 251.172C164.826 251.344 163.804 251.077 162.745 251.144C155.231 251.64 147.708 251.526 140.185 251.402C137.874 251.363 135.535 251.373 133.244 251.125C130.79 250.857 128.327 250.618 125.873 250.361C119.028 249.654 112.297 248.355 105.605 246.779C96.5064 244.64 87.723 241.602 79.2165 237.696C72.7531 234.725 58.4133 226.311 55.9883 224.391C56.1219 223.952 56.2365 223.513 56.3988 223.083C60.59 211.851 66.0414 201.268 72.438 191.154C76.6101 184.554 81.3455 178.336 85.594 171.794C86.2527 170.781 86.6155 170.905 87.427 171.536C92.573 175.585 98.1008 178.966 104.211 181.412C108.268 183.026 111.515 182.424 114.445 179.1C116.565 176.693 118.809 174.382 120.794 171.86C121.396 171.106 121.768 171.135 122.341 171.86C123.391 173.198 124.499 174.478 125.606 175.767C125.998 176.225 126.131 176.703 126.045 177.285C125.835 178.737 125.663 180.199 125.444 181.65C124.881 185.366 124.795 185.433 121.31 183.895C119.716 183.188 118.198 182.328 116.651 181.526C116.107 181.24 115.562 181.125 115.209 181.736C114.856 182.367 115.286 182.768 115.801 183.064C117.682 184.124 119.544 185.213 121.606 185.901C122.341 186.149 123.095 186.397 123.859 186.521C125.577 186.798 126.427 186.168 126.733 184.42C126.981 182.978 127.162 181.517 127.401 180.065C127.458 179.692 127.344 179.224 127.84 178.938C127.983 179.11 128.146 179.263 128.27 179.444C130.637 182.787 132.661 186.34 134.475 189.998C140.137 201.411 143.822 213.522 146.791 225.862C147.545 228.985 148.185 232.137 148.873 235.27C149.016 235.929 149.197 236.617 150.095 236.378C150.916 236.158 150.725 235.47 150.61 234.897C150.4 233.77 150.152 232.653 149.913 231.526C151.622 232.806 152.968 231.975 154.267 230.79C155.126 231.65 155.689 231.325 156.128 230.351C156.739 229.014 157.331 227.667 158.019 226.368C159.88 222.834 161.866 219.377 164.463 216.302C165.217 215.423 165.819 215.194 166.859 215.958C168.855 217.438 171.079 218.556 173.38 219.482C176.149 220.599 178.984 221.507 181.867 222.271C182.498 222.433 182.984 222.328 183.166 221.65C183.328 221.02 182.918 220.724 182.373 220.571C181.934 220.447 181.486 220.332 181.046 220.217C176.406 218.976 171.986 217.238 167.948 214.611C167.423 214.267 166.869 214.028 167.117 213.131C168.043 209.769 168.874 206.388 169.733 203.006C169.934 202.233 170.096 201.87 170.946 202.558C175.662 206.33 180.98 208.976 186.775 210.628C187.749 210.905 187.71 211.345 187.453 212.109C186.88 213.751 186.364 215.423 185.849 217.085C184.98 219.893 185.037 222.586 186.708 225.146C187.567 226.473 187.739 227.982 187.462 229.53C187.137 231.335 186.784 233.14 186.364 234.926C186.211 235.595 186.23 236.091 186.813 236.492ZM113.214 231.86C113.214 231.86 113.157 231.86 113.138 231.86C113.138 232.959 113.138 234.057 113.138 235.165C113.138 235.805 113.204 236.435 114.045 236.416C114.789 236.397 114.827 235.795 114.866 235.213C114.999 233.15 114.951 231.077 114.799 229.024C114.627 226.779 114.255 224.601 113.023 222.596C111.963 220.867 111.81 218.842 112.794 217.047C114.665 213.646 114.264 210.303 112.822 206.98C112.116 205.346 111.772 203.665 111.61 201.927C111.209 197.515 111.476 193.121 111.81 188.718C111.868 188.021 112.106 187.056 111.009 187.018C110.054 186.98 110.111 187.878 110.063 188.556C109.939 190.437 109.748 192.309 109.71 194.191C109.615 199.148 109.462 204.095 111.581 208.804C112.651 211.182 112.546 213.637 111.257 216.101C109.882 218.728 110.216 221.459 111.715 223.99C112.383 225.127 112.794 226.321 112.899 227.61C113.023 229.024 113.109 230.447 113.204 231.87L113.214 231.86ZM93.3176 190.561C94.2628 190.619 95.1698 190.189 96.0386 189.645C98.2631 188.26 100.287 186.598 102.263 184.898C102.712 184.516 103.275 184.067 102.741 183.408C102.177 182.72 101.614 183.121 101.089 183.58C99.5424 184.945 97.9289 186.244 96.22 187.4C92.9071 189.635 91.9238 189.339 90.2625 185.643C88.9259 182.663 88.124 179.501 86.9783 176.455C86.7683 175.891 86.4628 175.414 85.7754 175.643C85.0784 175.882 85.1453 176.464 85.3458 177.018C86.4055 179.998 87.2075 183.073 88.4963 185.967C88.8878 186.846 89.3078 187.715 89.8329 188.527C90.6062 189.731 91.666 190.581 93.3176 190.571V190.561ZM114.827 195.719C115.792 195.614 116.441 195.136 116.45 194.086C116.45 193.045 115.82 192.453 114.827 192.453C113.892 192.453 113.29 193.016 113.252 193.99C113.214 195.031 113.796 195.576 114.827 195.719ZM118.961 230.294C118.856 229.673 118.446 228.976 117.462 228.938C116.68 228.909 116.317 229.472 116.384 230.217C116.46 231.125 116.928 231.803 117.911 231.851C118.732 231.889 118.99 231.316 118.961 230.294ZM116.527 209.921C115.782 210.065 115.066 210.313 115.114 211.249C115.162 212.204 115.887 212.376 116.68 212.366C117.501 212.357 118.169 212.042 118.112 211.115C118.054 210.208 117.319 209.998 116.527 209.921Z" fill="white"/>
<path d="M231.436 236.652C230.358 233.73 229.317 230.798 228.716 227.722C226.911 218.4 227.818 209.298 230.778 200.33C233.193 193.014 236.773 186.242 240.172 179.384C241.394 176.92 242.511 174.399 243.676 171.906C245.528 172.488 247.418 172.737 249.366 172.612C253.214 172.355 254.617 169.957 252.86 166.567C252.708 166.271 252.488 165.955 252.698 165.669C253.987 163.902 252.803 161.113 255.152 159.785C255.333 159.68 255.343 159.289 255.438 159.031C255.934 157.598 255.285 156.318 254.751 155.019C257.472 154.819 257.5 154.809 258.016 157.312C258.808 161.17 260.508 164.475 263.82 166.786C264.002 166.911 264.193 167.063 264.097 167.34C264.937 170.769 266.303 174.007 267.611 177.273C267.028 178.611 267.114 178.773 268.661 179.069C268.995 179.718 269.31 180.387 269.663 181.027C272.174 185.621 275.258 189.852 278.065 194.255C282.924 201.877 285.435 210.158 285.55 219.203C285.578 221.686 285.12 224.131 285.149 226.605C284.395 226.977 284.719 227.674 284.633 228.257C283.688 230.167 283.173 232.259 282.094 234.112C281.416 235.286 280.776 236.48 280.117 237.665C279.44 237.865 279.268 238.515 278.934 239.021C274.886 243.882 270.026 247.703 264.011 249.718C255.963 252.421 248.077 251.915 240.659 247.531C236.964 245.353 234.367 242.096 232.343 238.352C232.038 237.789 231.732 237.225 231.427 236.662L231.436 236.652ZM256.488 229.164C256.67 229.164 256.851 229.164 257.042 229.164C260.403 229.155 260.517 229.556 260.403 225.821C260.374 225.067 260.641 224.666 261.31 224.331C262.398 223.797 263.238 222.985 263.792 221.848C265.911 217.493 263.687 212.335 258.961 210.683C258.359 210.473 257.748 210.263 257.176 209.986C256.746 209.776 256.431 209.394 256.545 208.868C256.67 208.324 257.147 208.209 257.615 208.171C258.865 208.076 260.078 208.314 261.29 208.591C262.455 208.859 263.038 208.343 263.171 207.216C263.305 206.032 263.439 204.847 263.591 203.663C263.715 202.641 263.19 201.877 262.283 201.934C260.403 202.039 260.278 200.998 260.441 199.613C260.603 198.286 259.887 197.77 258.684 197.722C257.815 197.694 256.937 197.713 256.068 197.713C252.765 197.713 252.679 197.76 252.736 201.122C252.755 202.135 252.459 202.746 251.571 203.185C250.607 203.673 249.853 204.418 249.414 205.42C247.772 209.193 248.965 214.14 253.452 216.012C254.254 216.347 255.094 216.586 255.887 216.939C256.421 217.168 256.841 217.617 256.67 218.228C256.517 218.782 255.973 218.945 255.438 218.887C254.254 218.782 253.07 218.658 251.896 218.486C250.913 218.343 250.273 218.62 250.158 219.69C250.053 220.645 249.977 221.609 249.872 222.565C249.633 224.742 249.757 224.952 251.858 225.22C252.507 225.306 252.679 225.544 252.717 226.165C252.908 229.145 252.927 229.145 255.925 229.145C256.106 229.145 256.288 229.145 256.479 229.145L256.488 229.164Z" fill="#9BCFAF"/>
<path d="M278.941 239.012C279.284 238.515 279.447 237.866 280.125 237.656C280.535 237.837 280.936 238.019 281.347 238.191C296.231 244.724 311.115 251.247 326.409 256.758C330.934 258.391 335.45 260.101 340.377 260.244C345.236 260.387 348.883 258.706 351.079 254.093C352.607 250.874 352.941 247.474 353.218 244.065C354.382 229.824 355.156 215.564 355.833 201.305C356.674 183.549 357.38 165.794 357.762 148.029C357.924 140.455 358.048 132.871 358.163 125.297C358.354 113.167 358.163 101.047 357.428 88.9364C357.141 84.1514 354.974 80.9517 350.917 78.7073C347.766 76.969 344.491 75.5554 341.083 74.4188C330.982 71.0569 320.585 69.0511 310.074 67.4943C301.243 66.1858 292.393 65.3358 283.457 65.842C279.447 66.0617 275.494 66.6061 271.828 68.3731C268.611 69.9203 266.988 72.4036 267.179 76.0807C267.513 82.3653 267.771 88.6499 267.99 94.9345C268.506 110.035 269.088 125.135 269.184 140.245C269.193 141.792 269.594 142.537 271.055 142.986C272.678 143.483 272.649 143.588 272.649 141.83C272.649 126.157 272.649 110.493 272.649 94.8199C272.649 92.2889 272.611 89.7674 272.668 87.2364C272.716 84.7436 273.928 83.2058 276.315 82.5086C277.012 82.308 277.747 82.1457 278.473 82.0788C282.597 81.6872 286.626 82.4131 290.646 83.1581C300.03 84.9155 309.291 87.2459 318.59 89.414C323.02 90.4455 327.459 91.4197 331.622 93.3299C335.059 94.9058 337.417 97.4273 338.639 101.038C339.966 104.954 340.319 109.032 340.606 113.101C341.236 122.136 341.15 131.181 340.969 140.235C340.778 149.738 340.539 159.242 340.205 168.745C339.517 188.115 338.629 207.475 336.94 226.787C336.548 231.266 336.3 235.774 335.364 240.187C334.677 243.406 332.615 244.819 329.35 244.475C326.953 244.217 324.681 243.501 322.457 242.613C314.618 239.461 306.761 236.367 298.847 233.425C294.121 231.667 289.376 229.977 284.64 228.258C284.726 227.675 284.392 226.978 285.156 226.605C295.725 230.321 306.207 234.256 316.623 238.401C320.585 239.977 324.452 241.82 328.691 242.622C331.775 243.205 333.283 242.298 333.77 239.203C334.801 232.718 335.355 226.176 335.832 219.623C336.691 207.943 337.379 196.262 337.856 184.562C338.706 163.683 339.546 142.804 339.269 121.897C339.183 115.775 338.84 109.681 337.589 103.674C336.672 99.2611 334.19 96.157 329.922 94.4952C325.321 92.7091 320.528 91.6394 315.745 90.5506C306.036 88.3443 296.402 85.775 286.55 84.2564C283.686 83.8171 280.802 83.4637 277.91 83.9126C275.389 84.3042 274.425 85.2975 274.415 87.542C274.396 106.147 274.415 124.762 274.396 143.368C274.396 144.113 274.635 144.495 275.322 144.829C278.635 146.415 281.919 148.096 284.984 150.101C291.008 154.036 297.615 156.147 304.728 156.778C310.924 157.332 317.11 157.102 323.278 156.376C323.917 156.3 324.805 155.994 324.958 157.007C325.111 158.029 324.232 157.952 323.555 158.048C317.387 158.86 311.201 159.06 305.004 158.516C298.216 157.924 291.724 156.338 285.834 152.68C279.943 149.022 273.881 145.632 267.274 143.406C264.945 142.623 262.653 141.63 260.133 141.563C260.238 140.913 260.343 140.264 260.448 139.614C262.395 140.14 264.362 140.589 266.272 141.209C267.322 141.553 267.618 141.419 267.58 140.273C267.293 130.885 267.064 121.496 266.797 112.117C266.701 108.87 266.548 105.622 266.424 102.375C266.539 97.8762 266.157 93.3872 266.043 88.8887C265.937 84.8009 265.842 80.713 265.556 76.6442C265.145 70.8659 267.79 68.0865 272.601 66.1668C276.936 64.4476 281.538 64.1324 286.139 64.0273C297.491 63.7694 308.671 65.374 319.803 67.3702C327.498 68.7551 335.097 70.4838 342.477 73.0817C346.983 74.6768 351.375 76.5105 355.117 79.6337C357.285 81.4389 358.478 83.6739 358.812 86.4628C359.585 92.862 359.805 99.2802 359.91 105.708C360.111 118.659 359.958 131.62 359.624 144.562C359.022 167.417 358.211 190.273 356.97 213.11C356.349 224.485 355.776 235.86 354.64 247.197C354.354 250.024 353.714 252.708 352.454 255.249C350.42 259.337 347.203 261.619 342.611 261.944C338.018 262.269 333.675 261.132 329.397 259.671C315.755 254.991 302.513 249.299 289.28 243.578C285.824 242.088 282.397 240.54 278.95 239.022L278.941 239.012Z" fill="#202D37"/>
<path d="M149.931 231.513C150.16 232.64 150.408 233.758 150.628 234.885C150.743 235.467 150.934 236.155 150.112 236.365C149.215 236.604 149.034 235.916 148.89 235.257C148.193 232.125 147.563 228.973 146.809 225.849C143.84 213.509 140.155 201.399 134.493 189.985C132.679 186.327 130.646 182.774 128.288 179.431C128.164 179.25 128.001 179.097 127.858 178.925C127.362 179.212 127.486 179.67 127.419 180.052C127.18 181.504 126.999 182.956 126.751 184.407C126.445 186.155 125.605 186.786 123.877 186.509C123.113 186.385 122.368 186.136 121.624 185.888C119.571 185.2 117.7 184.102 115.819 183.051C115.304 182.755 114.874 182.354 115.227 181.724C115.571 181.112 116.125 181.227 116.669 181.513C118.215 182.316 119.733 183.185 121.328 183.882C124.813 185.42 124.898 185.353 125.462 181.638C125.681 180.186 125.853 178.725 126.063 177.273C126.149 176.69 126.015 176.203 125.624 175.754C124.517 174.465 123.409 173.175 122.359 171.848C121.786 171.122 121.414 171.093 120.812 171.848C118.817 174.369 116.583 176.681 114.463 179.088C111.542 182.411 108.286 183.013 104.229 181.399C98.1091 178.963 92.5909 175.573 87.445 171.523C86.6335 170.893 86.2707 170.769 85.6119 171.781C81.3634 178.323 76.6281 184.541 72.456 191.141C66.0498 201.256 60.5984 211.848 56.4167 223.07C56.2544 223.5 53.839 230.587 52.8557 233.729C52.6552 234.379 52.5692 235.248 51.5859 234.913C50.7171 234.617 51.0799 233.853 51.2422 233.261C52.111 230.128 53.1134 227.034 54.24 223.987C54.4309 223.481 54.555 222.946 54.7078 222.421C56.4549 218.027 58.2689 213.662 60.2929 209.393C64.9805 199.536 70.642 190.253 76.8954 181.322C79.1103 178.161 81.268 174.961 83.5402 171.848C85.1441 169.651 85.822 167.216 86.1275 164.56C87.0917 156.022 87.8841 147.474 87.4354 138.859C87.3495 137.273 87.34 137.283 85.7169 137.731C83.5688 138.324 81.4016 138.572 79.1771 138.171C76.0648 137.617 73.8594 135.63 73.3534 132.889C72.9047 130.473 74.3367 127.569 77.0099 126.184C78.5184 125.401 79.75 124.914 78.6234 122.87C78.1938 122.087 78.5948 121.055 78.9862 120.215C79.1867 119.795 79.3013 119.527 78.8144 119.202C75.8834 117.292 76.017 113.5 78.5184 110.798C80.1987 108.983 82.2609 107.827 84.8004 107.77C85.5928 107.751 85.8792 107.541 86.0034 106.71C86.6717 102.335 90.9679 99.6132 95.2164 100.874C95.9324 101.084 96.2952 101.055 96.7725 100.377C97.9755 98.6486 100.773 98.1328 102.892 99.2217C103.58 99.575 103.971 99.5273 104.592 99.0975C106.625 97.6744 109.413 97.8081 111.571 99.3171C113.585 100.731 114.311 102.927 113.614 105.535C113.48 106.032 113.136 106.461 113.929 106.882C116.23 108.104 116.65 110.005 114.96 112.077C114.11 113.128 114.454 113.395 115.418 113.902C122.139 117.493 128.851 121.113 135.2 125.353C135.849 125.783 136.479 126.261 137.042 126.796C137.94 127.646 137.873 128.305 136.851 129.05C135.057 130.368 132.994 131.17 130.999 132.106C128.755 133.166 126.493 134.178 124.173 135.057C123.027 135.487 122.655 136.156 122.645 137.292C122.569 143.214 122.426 149.145 122.349 155.067C122.292 159.431 122.321 163.796 122.292 168.161C122.292 168.791 122.426 169.298 122.874 169.775C131.515 179.107 137.205 190.138 141.577 201.962C145.129 211.59 147.707 221.494 149.96 231.485L149.931 231.513ZM95.0159 121.237C94.9013 122.612 95.0159 124.159 93.7461 125.019C92.104 126.117 91.3689 127.588 91.0824 129.46C90.901 130.645 90.395 131.724 89.0584 131.963C87.7314 132.201 86.7862 131.428 86.0224 130.444C85.8029 130.158 85.6501 129.814 85.4783 129.489C84.1321 127.006 81.8981 126.136 79.2058 127.025C76.7904 127.827 74.7664 130.434 75.005 132.421C75.2724 134.627 77.325 136.27 80.1891 136.557C82.5759 136.795 84.8482 136.28 87.0726 135.497C88.6766 134.933 88.8866 135.038 89.0394 136.767C89.3258 139.966 89.3067 143.185 89.2208 146.394C89.0394 153.653 88.6002 160.883 87.2731 168.037C87.1395 168.772 87.2636 169.202 87.8555 169.67C90.3187 171.59 92.8296 173.433 95.4932 175.076C99.1021 177.301 102.845 179.221 106.95 180.367C108.668 180.845 110.129 180.663 111.523 179.393C114.721 176.461 117.49 173.166 120.211 169.813C120.574 169.374 120.574 168.877 120.535 168.381C120.278 165.219 120.488 162.048 120.535 158.887C120.679 151.179 120.85 143.462 120.965 135.754C120.975 134.828 121.328 134.389 122.178 134.045C126.216 132.402 130.207 130.645 134.102 128.677C135.668 127.884 135.687 127.779 134.226 126.834C127.409 122.402 120.278 118.505 113.098 114.685C112.64 114.446 112.201 114.255 111.666 114.417C110.224 114.838 108.84 114.647 107.551 113.902C107.093 113.634 106.797 113.586 106.396 114.045C104.706 115.993 102.51 116.557 100.047 116.127C99.3598 116.003 99.083 116.175 98.8538 116.805C98.3574 118.171 97.4027 119.193 96.0088 119.594C95.0254 119.881 94.739 120.339 95.0159 121.246V121.237Z" fill="#202D37"/>
<path d="M224.599 117.982C222.928 121.382 221.257 124.782 219.587 128.192C219.405 128.564 219.214 128.927 219.052 129.3C218.813 129.873 218.451 130.283 217.792 129.978C217.133 129.672 217.238 129.07 217.477 128.555C218.307 126.769 219.186 125.011 220.026 123.235C220.723 121.754 221.401 120.245 222.078 118.755C224.16 114.925 225.935 110.962 227.807 107.036C228.122 106.377 228.427 105.708 228.733 105.04C228.981 104.505 229.306 104.018 229.983 104.304C230.738 104.62 230.595 105.202 230.318 105.804C228.59 109.395 226.871 112.996 225.153 116.597C224.933 117.046 224.78 117.523 224.589 117.991L224.599 117.982Z" fill="#202D37"/>
<path d="M222.509 111.44C222.509 114.038 220.466 116.263 218.041 116.302C215.969 116.33 214.375 114.668 214.375 112.472C214.375 109.931 216.504 107.639 218.891 107.601C220.982 107.562 222.509 109.196 222.509 111.44ZM220.819 111.44C220.819 110.246 219.989 109.329 218.929 109.32C217.516 109.32 216.055 110.962 216.093 112.51C216.122 113.704 216.934 114.611 218.003 114.63C219.406 114.649 220.838 113.045 220.829 111.44H220.819Z" fill="#202D37"/>
<path d="M210.343 120.483C209.914 121.668 210.41 122.088 211.575 121.973C211.842 121.945 212.129 121.973 212.396 122.002C212.902 122.078 213.274 122.336 213.255 122.89C213.236 123.435 212.873 123.645 212.358 123.75C211.613 123.912 210.572 123.253 210.152 124.17C209.856 124.829 209.971 125.307 209.933 125.947C209.904 126.52 209.646 126.95 209.035 126.95C208.424 126.95 208.157 126.51 208.157 125.937C208.157 124.743 208.138 126.004 208.243 124.82C208.319 123.97 208.081 123.607 207.212 123.702C206.897 123.74 206.572 123.74 206.257 123.712C205.799 123.674 205.474 123.406 205.427 122.938C205.379 122.394 205.703 122.078 206.209 121.983C206.563 121.916 206.945 121.887 207.307 121.926C208.262 122.012 208.529 121.534 208.405 120.684C208.453 120.56 208.529 120.436 208.539 120.312C208.606 119.691 208.768 119.099 209.532 119.146C210.334 119.204 210.276 119.891 210.343 120.464V120.483Z" fill="#202D37"/>
<path d="M186.812 236.49C186.239 236.089 186.21 235.583 186.363 234.924C186.783 233.137 187.136 231.332 187.461 229.527C187.738 227.989 187.576 226.471 186.707 225.143C185.046 222.584 184.979 219.89 185.848 217.082C186.363 215.42 186.879 213.749 187.452 212.106C187.719 211.342 187.757 210.903 186.774 210.626C180.979 208.964 175.661 206.318 170.944 202.555C170.095 201.877 169.923 202.23 169.732 203.004C168.873 206.385 168.042 209.766 167.116 213.128C166.868 214.026 167.422 214.274 167.947 214.608C171.985 217.245 176.415 218.973 181.045 220.215C181.485 220.33 181.933 220.444 182.372 220.568C182.917 220.721 183.327 221.017 183.165 221.648C182.993 222.326 182.497 222.431 181.866 222.268C178.983 221.504 176.148 220.597 173.379 219.479C171.069 218.543 168.854 217.436 166.858 215.955C165.818 215.182 165.216 215.411 164.462 216.299C161.856 219.365 159.879 222.822 158.018 226.366C157.33 227.665 156.738 229.011 156.127 230.349C155.679 231.323 155.125 231.648 154.266 230.788C154.332 229.26 155.249 228.037 155.87 226.738C157.55 223.214 159.545 219.852 161.865 216.71C162.323 216.089 162.782 215.373 163.412 214.962C165.054 213.883 165.522 212.288 165.951 210.502C167.488 204.112 169.159 197.751 171.871 191.753C175.546 183.634 180.463 176.442 188.053 171.466C193.428 167.952 199.357 165.812 205.763 165.067C206.832 164.943 207.882 165.029 208.914 165.249C211.453 165.803 212.303 167.789 210.985 170.043C209.983 171.753 208.474 172.956 206.918 174.102C206.049 174.742 205.133 175.325 203.901 176.175C206.393 176.156 208.474 175.908 210.546 176.175C211.825 176.337 213.095 176.528 214.203 177.254C216.045 178.458 216.141 180.301 214.46 181.696C213.496 182.498 212.265 182.794 210.918 183.52C212.198 183.73 213.2 183.854 214.193 184.074C214.9 184.236 215.625 184.446 216.265 184.8C218.136 185.831 218.155 187.837 216.313 188.935C214.46 190.034 212.341 190.311 210.279 190.779C209.658 190.922 209.028 191.046 208.302 191.199C209.42 191.533 210.451 191.781 211.424 192.154C212.494 192.565 213.458 193.252 213.42 194.523C213.382 195.774 212.417 196.452 211.358 196.872C209.019 197.789 206.536 198.162 204.064 198.095C201.629 198.028 200.025 198.63 198.555 200.807C196.445 203.94 193.103 205.697 189.39 206.461C188.024 206.738 187.967 207.741 187.662 208.63C187.461 209.212 188.101 209.231 188.473 209.298C189.762 209.527 189.991 210.205 189.581 211.38C188.807 213.587 188.101 215.821 187.413 218.056C186.755 220.224 186.907 222.287 188.215 224.245C189.37 225.965 189.466 227.932 189.218 229.947C188.989 231.829 188.464 233.634 188.043 235.468C187.891 236.127 187.499 236.509 186.793 236.519L186.812 236.49ZM206.498 166.748C206.049 166.786 205.534 166.786 205.037 166.863C204.178 166.997 203.319 167.149 202.469 167.35C194.555 169.222 187.566 172.718 182.096 178.916C176.883 184.838 173.331 191.667 170.906 199.136C170.649 199.919 170.964 200.311 171.508 200.75C175.489 204.026 179.957 206.404 184.788 208.152C185.666 208.477 186 208.314 186.21 207.455C186.583 205.907 187.423 205.086 189.151 204.694C193.304 203.758 196.617 201.438 198.689 197.617C199.166 196.738 199.72 196.547 200.636 196.509C203.701 196.385 206.794 196.328 209.792 195.535C210.479 195.354 211.472 195.229 211.491 194.427C211.51 193.653 210.489 193.577 209.868 193.415C206.861 192.622 203.787 192.603 200.703 192.603C200.436 192.603 200.13 192.574 199.996 192.889C199.758 193.482 199.452 194.055 198.698 193.72C197.972 193.396 198.259 192.717 198.316 192.135C198.345 191.858 198.335 191.581 198.345 191.313C198.431 187.894 198.049 184.532 197.171 181.228C196.999 180.559 197.008 179.986 197.772 179.804C198.478 179.642 198.727 180.196 198.87 180.769C199.051 181.524 199.271 182.278 199.366 183.052C199.452 183.768 199.729 183.969 200.436 183.835C202.641 183.405 204.866 183.08 207.071 182.622C209.143 182.192 211.186 181.648 213.019 180.54C213.41 180.301 213.868 180.043 213.849 179.527C213.84 178.954 213.362 178.639 212.876 178.477C212.14 178.238 211.377 177.99 210.613 177.923C206.078 177.493 201.639 178.162 197.256 179.279C196.894 179.375 196.579 179.489 196.435 179.909C195.519 182.479 193.524 184.102 191.328 185.478C190.392 186.06 190.344 186.452 190.917 187.369C192.206 189.47 193.018 191.762 192.874 194.284C192.636 198.372 190.335 201.151 187.127 203.348C186.678 203.653 186.144 203.739 185.79 203.205C185.437 202.67 185.743 202.249 186.182 201.915C186.506 201.667 186.841 201.418 187.165 201.161C189.332 199.384 190.955 197.273 191.118 194.341C191.27 191.59 190.22 189.222 188.654 187.054C187.948 186.07 188.053 185.44 189.122 184.847C190.698 183.969 192.13 182.88 193.371 181.59C194.087 180.846 195.137 179.976 194.641 178.888C194.135 177.77 192.788 178.095 191.776 178.171C188.473 178.439 185.618 179.881 182.964 181.772C182.43 182.154 181.866 182.689 181.313 181.973C180.769 181.275 181.351 180.807 181.895 180.406C184.673 178.343 187.738 176.949 191.184 176.49C192.645 176.29 194.201 176.185 195.433 177.13C196.235 177.741 196.913 177.703 197.686 177.34C201.486 175.573 205.19 173.654 208.217 170.683C209.009 169.9 210.221 169.05 209.725 167.827C209.2 166.528 207.72 166.844 206.498 166.739V166.748ZM199.958 187.569C199.987 188.162 200.025 188.763 200.044 189.356C200.063 189.881 200.207 190.234 200.846 190.167C205.362 189.728 209.887 189.394 214.231 187.932C214.861 187.722 215.854 187.531 215.797 186.824C215.74 186.041 214.728 185.946 214.021 185.802C209.935 184.991 205.811 185.172 201.696 185.459C199.834 185.592 199.844 185.669 199.958 187.569Z" fill="#202D37"/>
<path d="M260.436 139.605C260.331 140.255 260.226 140.904 260.121 141.554C260.131 142.089 260.14 142.614 260.159 143.149C256.78 144.371 253.295 144.505 249.782 143.999C248.961 143.875 248.025 143.884 247.395 143.159C247.261 142.232 247.586 141.239 246.956 140.398C246.965 139.787 246.851 139.233 246.326 138.841C245.867 137.275 244.579 136.282 243.652 135.05C242.469 133.464 241.342 131.86 240.788 129.921C240.12 127.609 240.54 126.32 242.488 124.906C246.135 122.242 250.307 121.707 254.66 122.003C257.143 122.175 259.577 122.662 261.802 123.856C264.618 125.365 265.506 127.6 264.551 130.666C264.083 132.165 263.32 133.531 262.46 134.83C261.487 136.301 260.751 137.867 260.446 139.605H260.436ZM253.763 130.971C256.302 131.067 258.899 130.628 261.305 129.357C262.183 128.899 262.346 128.087 261.706 127.657C261.171 127.294 260.751 127.686 260.303 127.858C255.52 129.73 250.794 129.997 246.173 127.371C245.648 127.075 245.142 126.864 244.712 127.418C244.235 128.02 244.693 128.44 245.123 128.794C245.476 129.08 245.858 129.338 246.268 129.548C248.569 130.761 251.061 131 253.753 130.971H253.763Z" fill="#9BCFAF"/>
<path d="M246.326 138.841C246.841 139.233 246.965 139.786 246.956 140.398C246.364 140.484 245.772 140.57 245.19 140.646C242.812 140.98 240.483 141.439 238.487 142.919C236.473 144.409 236.397 146.358 238.344 147.943C239.461 148.86 240.769 149.395 242.163 149.777C244.139 150.321 245.982 150.856 247.299 148.459C247.949 147.294 249.467 146.883 250.67 145.995C248.884 145.651 247.261 145.355 245.791 144.562C245.314 144.304 244.922 143.941 245.19 143.359C245.447 142.795 245.925 142.757 246.469 142.977C246.755 143.091 247.08 143.101 247.395 143.158C248.035 143.884 248.961 143.874 249.782 143.999C253.295 144.514 256.78 144.371 260.159 143.148C260.57 143.148 260.981 143.206 261.382 143.158C262.002 143.091 262.518 143.187 262.594 143.913C262.67 144.591 262.174 144.743 261.639 144.839C260.828 144.982 260.007 145.116 259.205 145.297C255.711 146.09 252.235 146.959 249.218 149.032C248.426 149.576 247.471 150.264 247.662 151.286C247.853 152.298 249.028 152.384 249.906 152.585C252.522 153.196 255.195 153.177 257.849 153.12C258.823 153.101 259.291 153.416 259.377 154.419C259.463 155.422 259.634 156.424 259.854 157.408C260.885 162.04 263.396 165.393 268.045 166.94C269.754 167.513 271.501 167.857 273.268 168.134C273.869 168.229 274.423 168.373 274.347 169.089C274.261 169.891 273.64 169.901 272.991 169.825C270.423 169.519 267.931 168.946 265.592 167.8C265.134 167.57 264.713 167.131 264.102 167.332C264.188 167.055 264.007 166.902 263.826 166.778C260.513 164.466 258.813 161.171 258.021 157.303C257.505 154.81 257.486 154.81 254.756 155.011C255.29 156.31 255.94 157.59 255.443 159.022C255.357 159.28 255.338 159.672 255.157 159.777C252.799 161.104 253.982 163.893 252.703 165.66C252.493 165.947 252.713 166.262 252.865 166.558C254.622 169.949 253.219 172.336 249.371 172.604C247.424 172.738 245.533 172.48 243.681 171.897C242.383 171.219 240.989 170.722 239.843 169.767C237.628 167.924 237.475 166.357 239.356 164.132C239.022 163.826 238.678 163.53 238.354 163.215C236.74 161.649 236.568 159.385 238.001 157.637C238.373 157.179 238.554 156.931 238.077 156.405C236.32 154.486 235.423 152.413 237.208 149.997C237.571 149.509 237.141 149.271 236.874 148.965C234.249 145.985 234.783 142.891 238.268 140.904C240.76 139.481 243.509 139.041 246.326 138.831V138.841ZM249.142 160.226C252.14 160.388 253.543 159.662 253.811 158.316C254.068 157.017 252.818 155.059 251.405 154.696C249.505 154.218 247.71 153.76 246.02 152.489C244.464 151.315 242.096 151.926 240.254 151.038C240.168 150.999 240.082 150.971 240.005 150.933C239.28 150.541 238.793 150.875 238.382 151.467C237.695 152.432 237.876 153.721 239.223 155.02C242.239 157.943 245.829 159.748 249.152 160.235L249.142 160.226ZM249.142 165.183C249.448 165.145 249.963 165.135 250.431 165.001C251.577 164.667 251.806 163.76 251.71 162.719C251.605 161.611 250.736 161.964 250.125 161.954C246.784 161.888 243.91 160.512 241.161 158.803C239.948 158.058 239.098 158.392 238.879 159.815C238.678 161.085 239.356 161.916 240.34 162.556C242.956 164.247 245.906 164.858 249.152 165.183H249.142ZM248.235 170.904C249.218 170.923 250.164 170.799 251.042 170.359C251.748 170.006 252.264 169.462 251.92 168.602C251.586 167.781 251.357 166.768 250.164 166.816C247.366 166.94 244.712 166.319 242.106 165.374C241.6 165.192 241.17 165.106 240.683 165.431C239.547 166.186 239.509 167.208 240.741 168.23C242.898 170.016 245.466 170.77 248.226 170.904H248.235Z" fill="#202D37"/>
<path d="M231.695 122.86C231.714 125.458 229.766 127.645 227.417 127.664C225.279 127.674 223.723 125.964 223.723 123.586C223.723 120.959 225.68 118.734 227.971 118.753C230.072 118.772 231.685 120.549 231.695 122.869V122.86ZM227.456 125.945C228.725 125.916 230.024 124.283 229.966 122.783C229.909 121.494 228.945 120.453 227.857 120.51C226.625 120.577 225.422 122.105 225.432 123.586C225.432 124.866 226.377 125.954 227.456 125.935V125.945Z" fill="#202D37"/>
<path d="M113.213 231.86C113.108 230.437 113.022 229.024 112.907 227.6C112.802 226.301 112.392 225.108 111.723 223.981C110.225 221.45 109.89 218.718 111.265 216.091C112.554 213.637 112.659 211.173 111.59 208.794C109.47 204.076 109.613 199.138 109.718 194.181C109.757 192.3 109.948 190.428 110.072 188.546C110.119 187.868 110.062 186.97 111.017 187.008C112.115 187.047 111.876 188.011 111.819 188.709C111.475 193.112 111.217 197.505 111.618 201.918C111.781 203.665 112.124 205.337 112.831 206.97C114.263 210.303 114.664 213.637 112.802 217.037C111.819 218.833 111.972 220.857 113.031 222.586C114.263 224.592 114.635 226.77 114.807 229.014C114.969 231.067 115.008 233.14 114.874 235.203C114.836 235.776 114.798 236.378 114.053 236.407C113.222 236.426 113.146 235.795 113.146 235.155C113.146 234.057 113.146 232.959 113.146 231.851C113.175 231.851 113.203 231.851 113.222 231.851L113.213 231.86Z" fill="#202D37"/>
<path d="M93.3151 190.56C91.6539 190.57 90.6037 189.719 89.8304 188.516C89.3149 187.714 88.8852 186.835 88.4938 185.956C87.2145 183.053 86.403 179.987 85.3432 177.007C85.1427 176.453 85.0759 175.87 85.7729 175.632C86.4603 175.402 86.7658 175.88 86.9758 176.443C88.1215 179.49 88.9234 182.661 90.26 185.632C91.9212 189.328 92.9141 189.624 96.2174 187.389C97.9264 186.233 99.5303 184.934 101.086 183.569C101.612 183.11 102.165 182.719 102.738 183.397C103.282 184.046 102.71 184.495 102.261 184.887C100.275 186.587 98.251 188.249 96.036 189.633C95.1673 190.168 94.2603 190.608 93.3151 190.55V190.56Z" fill="#202D37"/>
<path d="M114.823 195.717C113.792 195.574 113.21 195.03 113.248 193.989C113.286 193.014 113.888 192.451 114.823 192.451C115.816 192.451 116.446 193.034 116.446 194.084C116.446 195.144 115.787 195.612 114.823 195.717Z" fill="#202D37"/>
<path d="M118.961 230.292C118.989 231.314 118.731 231.887 117.91 231.849C116.937 231.801 116.469 231.123 116.383 230.215C116.316 229.47 116.679 228.907 117.462 228.936C118.435 228.964 118.846 229.671 118.961 230.292Z" fill="#202D37"/>
<path d="M116.517 209.911C117.309 209.988 118.035 210.207 118.102 211.105C118.159 212.04 117.5 212.346 116.67 212.355C115.877 212.365 115.161 212.193 115.104 211.238C115.056 210.303 115.772 210.054 116.517 209.911Z" fill="#202D37"/>
<path d="M284.641 228.248C289.376 229.967 294.121 231.668 298.847 233.415C306.762 236.357 314.629 239.452 322.457 242.604C324.672 243.501 326.954 244.218 329.35 244.466C332.606 244.81 334.678 243.396 335.365 240.178C336.301 235.765 336.549 231.257 336.94 226.777C338.63 207.465 339.518 188.105 340.205 168.736C340.539 159.232 340.778 149.739 340.969 140.226C341.15 131.171 341.246 122.127 340.606 113.091C340.32 109.013 339.967 104.944 338.64 101.028C337.418 97.4276 335.059 94.9061 331.622 93.3206C327.46 91.4009 323.011 90.4266 318.591 89.4047C309.292 87.2461 300.031 84.9061 290.646 83.1487C286.627 82.3942 282.598 81.6683 278.473 82.0695C277.748 82.1363 277.022 82.2891 276.316 82.4993C273.929 83.1965 272.717 84.7342 272.669 87.227C272.621 89.7581 272.65 92.2796 272.65 94.8106C272.65 110.484 272.65 126.148 272.65 141.821C272.65 143.588 272.678 143.483 271.055 142.977C269.604 142.528 269.194 141.783 269.184 140.235C269.089 125.126 268.506 110.025 267.991 94.9252C267.771 88.6406 267.513 82.356 267.179 76.0714C266.988 72.3943 268.611 69.911 271.829 68.3637C275.495 66.5968 279.457 66.0523 283.457 65.8327C292.393 65.336 301.243 66.1765 310.075 67.485C320.576 69.0418 330.983 71.0475 341.084 74.4095C344.482 75.5461 347.767 76.9597 350.917 78.698C354.975 80.9425 357.142 84.1325 357.428 88.9271C358.163 101.047 358.345 113.158 358.164 125.288C358.049 132.862 357.925 140.445 357.763 148.019C357.381 165.784 356.674 183.549 355.834 201.295C355.156 215.565 354.383 229.824 353.218 244.055C352.941 247.475 352.617 250.875 351.08 254.084C348.884 258.697 345.237 260.368 340.377 260.235C335.46 260.091 330.935 258.382 326.41 256.749C311.115 251.228 296.222 244.714 281.347 238.181C280.937 238 280.536 237.818 280.125 237.647C280.784 236.462 281.414 235.259 282.101 234.094C283.18 232.241 283.696 230.149 284.641 228.239V228.248ZM348.626 131.248C348.626 124.954 348.626 118.66 348.416 112.375C348.177 105.126 348.044 97.8669 347.012 90.6654C346.602 87.8096 345.179 85.9281 342.659 84.5909C337.79 82.0122 332.577 80.3789 327.336 78.8603C315.908 75.5461 304.279 73.0819 292.536 71.1622C287.324 70.3121 282.092 69.6054 276.812 69.3857C276.115 69.357 275.141 69.1087 275.056 70.1688C274.97 71.2767 275.943 71.0666 276.659 71.1239C278.397 71.2481 280.144 71.3341 281.872 71.5156C293.997 72.8049 305.912 75.2022 317.731 78.1153C325.398 80.0064 332.988 82.1459 340.272 85.2882C343.642 86.7399 345.246 89.0035 345.59 92.6807C346.287 100.054 346.602 107.437 346.755 114.82C347.022 128 346.936 141.19 346.631 154.371C346.22 172.088 345.552 189.805 344.54 207.503C343.728 221.677 342.697 235.822 341.408 249.958C341.275 251.467 341.141 252.976 341.026 254.485C340.988 255.01 341.017 255.545 341.685 255.65C342.43 255.765 342.621 255.259 342.697 254.647C342.754 254.189 342.84 253.74 342.879 253.282C343.575 245.049 344.339 236.816 344.941 228.573C345.981 214.189 346.802 199.796 347.394 185.383C348.139 167.351 348.597 149.299 348.626 131.248Z" fill="white"/>
<path d="M256.486 229.165C256.305 229.165 256.124 229.165 255.933 229.165C252.925 229.165 252.906 229.165 252.725 226.185C252.687 225.565 252.505 225.326 251.866 225.24C249.765 224.972 249.632 224.753 249.88 222.585C249.985 221.629 250.061 220.665 250.166 219.71C250.281 218.64 250.92 218.363 251.904 218.506C253.078 218.678 254.262 218.802 255.446 218.907C255.98 218.955 256.525 218.802 256.677 218.248C256.849 217.628 256.42 217.188 255.894 216.959C255.102 216.615 254.262 216.367 253.46 216.033C248.973 214.161 247.77 209.213 249.421 205.44C249.861 204.438 250.615 203.683 251.579 203.206C252.467 202.766 252.763 202.145 252.744 201.142C252.687 197.78 252.773 197.733 256.076 197.733C256.945 197.733 257.823 197.714 258.692 197.742C259.895 197.78 260.611 198.306 260.448 199.633C260.277 201.018 260.41 202.05 262.291 201.954C263.198 201.907 263.723 202.671 263.599 203.683C263.446 204.867 263.322 206.052 263.179 207.236C263.045 208.373 262.463 208.879 261.298 208.611C260.086 208.334 258.873 208.096 257.622 208.191C257.155 208.229 256.677 208.344 256.553 208.888C256.439 209.414 256.754 209.796 257.183 210.006C257.756 210.292 258.367 210.493 258.969 210.703C263.694 212.355 265.909 217.513 263.8 221.868C263.246 223.005 262.406 223.807 261.317 224.352C260.649 224.686 260.382 225.077 260.41 225.842C260.534 229.576 260.41 229.175 257.05 229.184C256.868 229.184 256.687 229.184 256.496 229.184L256.486 229.165Z" fill="#202D37"/>
<path d="M267.62 177.264C272.021 177.493 276.126 176.185 279.955 174.313C283.325 172.67 286.17 172.813 289.511 174.456C296.576 177.914 304.128 179.872 312.014 180.425C314.955 180.626 317.886 180.559 320.807 180.168C321.17 180.12 321.533 180.082 321.905 180.043C322.44 179.996 322.831 180.244 322.907 180.769C322.984 181.304 322.659 181.658 322.144 181.734C321.103 181.887 320.053 182.04 319.003 182.126C309.207 182.871 299.937 180.722 290.934 177.073C289.273 176.405 287.631 175.688 286.036 174.886C285.12 174.427 284.327 174.466 283.42 174.857C280.384 176.156 277.339 177.446 274.121 178.276C272.336 178.735 270.513 178.955 268.68 179.06C267.133 178.764 267.037 178.611 267.629 177.264H267.62Z" fill="#202D37"/>
<path d="M95.0143 121.239C94.7374 120.331 95.0238 119.863 96.0072 119.586C97.4011 119.185 98.3558 118.163 98.8522 116.797C99.0814 116.167 99.3487 115.995 100.046 116.119C102.509 116.549 104.705 115.986 106.394 114.037C106.795 113.579 107.091 113.627 107.55 113.894C108.839 114.648 110.223 114.83 111.665 114.41C112.209 114.247 112.648 114.438 113.097 114.677C120.276 118.488 127.398 122.385 134.224 126.826C135.685 127.772 135.666 127.886 134.1 128.669C130.205 130.637 126.214 132.385 122.176 134.037C121.326 134.381 120.983 134.82 120.963 135.747C120.849 143.454 120.677 151.172 120.534 158.879C120.477 162.041 120.266 165.212 120.534 168.373C120.572 168.87 120.572 169.366 120.209 169.806C117.488 173.158 114.72 176.453 111.521 179.386C110.127 180.656 108.667 180.837 106.948 180.36C102.833 179.214 99.1005 177.284 95.4916 175.068C92.828 173.426 90.3171 171.582 87.8539 169.663C87.2525 169.195 87.1283 168.774 87.2716 168.029C88.5986 160.876 89.0378 153.645 89.2192 146.387C89.2955 143.177 89.3146 139.959 89.0378 136.759C88.885 135.03 88.675 134.925 87.0711 135.489C84.8466 136.272 82.5744 136.788 80.1876 136.549C77.3234 136.262 75.2708 134.62 75.0035 132.413C74.7648 130.427 76.7983 127.81 79.2042 127.017C81.8965 126.129 84.1305 126.998 85.4767 129.481C85.6485 129.806 85.8013 130.15 86.0209 130.436C86.7846 131.42 87.7298 132.184 89.0569 131.955C90.3935 131.716 90.8995 130.646 91.0809 129.453C91.3673 127.59 92.1024 126.11 93.7445 125.011C95.0238 124.161 94.8997 122.614 95.0143 121.229V121.239ZM103.807 138.899C104.18 138.908 104.848 139.042 104.991 138.201C105.106 137.581 104.762 137.275 104.151 137.218C100.934 136.931 98.9668 135.212 98.2221 132.07C98.0885 131.525 97.7543 131.134 97.1433 131.286C96.5514 131.439 96.4464 131.907 96.5132 132.48C96.9237 135.804 100.141 138.736 103.807 138.899ZM84.331 131.038C84.226 130.284 83.6914 130.217 83.109 130.217C81.3523 130.236 79.672 130.666 78.0395 131.277C77.4857 131.487 76.9893 131.812 77.2184 132.48C77.4762 133.225 78.0776 133.13 78.6982 132.901C80.1589 132.356 81.6578 131.965 83.2331 131.974C83.8632 131.974 84.2833 131.716 84.3215 131.048L84.331 131.038ZM111.149 123.359C111.369 124.171 110.643 125.584 112.151 125.613C113.593 125.642 113.249 124.295 113.24 123.397C113.24 122.499 113.603 121.172 112.142 121.191C110.719 121.21 111.311 122.528 111.149 123.369V123.359ZM102.891 126.052C102.891 126.606 102.891 127.017 102.891 127.428C102.91 128.039 103.101 128.507 103.826 128.507C104.495 128.507 104.848 128.154 104.924 127.533C104.972 127.084 104.982 126.616 104.953 126.167C104.905 125.307 105.249 124.066 103.884 124.075C102.442 124.085 103.043 125.393 102.9 126.052H102.891Z" fill="#CE8080"/>
<path d="M206.496 166.749C207.718 166.854 209.197 166.539 209.723 167.838C210.219 169.06 209.006 169.91 208.214 170.694C205.188 173.664 201.474 175.584 197.684 177.351C196.91 177.714 196.232 177.752 195.43 177.141C194.189 176.195 192.643 176.3 191.182 176.501C187.735 176.959 184.671 178.354 181.893 180.417C181.348 180.818 180.766 181.286 181.31 181.983C181.864 182.709 182.427 182.164 182.962 181.782C185.616 179.891 188.461 178.439 191.774 178.182C192.786 178.105 194.132 177.78 194.638 178.898C195.125 179.977 194.084 180.856 193.368 181.601C192.118 182.89 190.685 183.979 189.12 184.858C188.06 185.45 187.945 186.08 188.652 187.064C190.208 189.232 191.268 191.601 191.115 194.352C190.953 197.284 189.33 199.385 187.163 201.171C186.848 201.429 186.513 201.677 186.179 201.926C185.74 202.26 185.435 202.68 185.788 203.215C186.141 203.759 186.676 203.664 187.124 203.358C190.332 201.161 192.633 198.382 192.872 194.294C193.015 191.763 192.203 189.471 190.915 187.379C190.351 186.453 190.39 186.071 191.325 185.488C193.521 184.113 195.526 182.489 196.433 179.92C196.586 179.5 196.901 179.385 197.254 179.29C201.636 178.172 206.076 177.513 210.61 177.933C211.374 178.01 212.138 178.248 212.873 178.487C213.36 178.64 213.828 178.955 213.847 179.538C213.856 180.054 213.408 180.311 213.016 180.55C211.174 181.658 209.131 182.203 207.068 182.632C204.873 183.091 202.639 183.416 200.433 183.845C199.727 183.979 199.45 183.779 199.364 183.062C199.268 182.289 199.049 181.534 198.867 180.78C198.724 180.216 198.476 179.662 197.769 179.815C197.006 179.987 196.996 180.569 197.168 181.238C198.037 184.543 198.428 187.905 198.342 191.324C198.342 191.601 198.342 191.878 198.314 192.145C198.256 192.718 197.96 193.406 198.696 193.731C199.45 194.065 199.755 193.492 199.994 192.9C200.128 192.585 200.433 192.613 200.7 192.613C203.784 192.613 206.858 192.642 209.866 193.425C210.486 193.587 211.508 193.664 211.489 194.438C211.47 195.24 210.477 195.364 209.789 195.545C206.792 196.338 203.708 196.395 200.634 196.52C199.717 196.558 199.163 196.749 198.686 197.628C196.624 201.448 193.301 203.769 189.148 204.705C187.43 205.096 186.58 205.918 186.208 207.465C186.007 208.325 185.673 208.487 184.785 208.162C179.955 206.415 175.486 204.036 171.505 200.76C170.961 200.311 170.656 199.92 170.904 199.146C173.329 191.687 176.88 184.848 182.093 178.927C187.554 172.728 194.552 169.232 202.467 167.36C203.316 167.16 204.176 167.007 205.035 166.873C205.531 166.797 206.037 166.787 206.496 166.759V166.749Z" fill="#CE8080"/>
<path d="M199.959 187.57C199.844 185.67 199.844 185.593 201.697 185.46C205.811 185.164 209.936 184.992 214.022 185.803C214.728 185.947 215.731 186.042 215.798 186.825C215.855 187.542 214.862 187.723 214.232 187.933C209.898 189.404 205.363 189.729 200.847 190.168C200.198 190.235 200.064 189.882 200.045 189.357C200.026 188.764 199.988 188.163 199.959 187.57Z" fill="#CE8080"/>
<path d="M247.388 143.159C247.082 143.101 246.748 143.092 246.462 142.977C245.908 142.757 245.431 142.796 245.182 143.359C244.915 143.951 245.307 144.305 245.784 144.563C247.254 145.346 248.868 145.651 250.663 145.995C249.46 146.884 247.932 147.294 247.292 148.459C245.965 150.857 244.123 150.322 242.156 149.778C240.762 149.395 239.464 148.861 238.337 147.944C236.39 146.358 236.466 144.4 238.48 142.92C240.476 141.449 242.805 140.981 245.182 140.647C245.774 140.561 246.366 140.475 246.949 140.398C247.569 141.248 247.254 142.242 247.388 143.159Z" fill="white"/>
<path d="M253.766 130.963C251.064 130.992 248.572 130.753 246.281 129.54C245.88 129.33 245.498 129.072 245.135 128.786C244.696 128.432 244.238 128.012 244.725 127.41C245.154 126.866 245.66 127.066 246.185 127.363C250.806 129.989 255.532 129.722 260.315 127.85C260.773 127.668 261.184 127.286 261.719 127.649C262.358 128.079 262.196 128.891 261.318 129.349C258.912 130.619 256.315 131.059 253.775 130.963H253.766Z" fill="#202D37"/>
<path d="M249.137 160.226C245.815 159.748 242.225 157.933 239.208 155.011C237.862 153.712 237.68 152.423 238.368 151.458C238.788 150.866 239.265 150.541 239.991 150.923C240.067 150.971 240.163 150.99 240.239 151.028C242.082 151.926 244.449 151.315 246.005 152.48C247.686 153.75 249.49 154.199 251.39 154.686C252.803 155.04 254.054 156.997 253.796 158.306C253.529 159.653 252.125 160.388 249.127 160.216L249.137 160.226Z" fill="white"/>
<path d="M249.136 165.183C245.89 164.849 242.95 164.247 240.324 162.556C239.341 161.926 238.663 161.085 238.863 159.815C239.092 158.392 239.942 158.058 241.145 158.803C243.904 160.503 246.778 161.888 250.11 161.955C250.721 161.964 251.599 161.611 251.695 162.719C251.79 163.769 251.561 164.667 250.415 165.001C249.938 165.135 249.422 165.145 249.127 165.183H249.136Z" fill="white"/>
<path d="M248.221 170.905C245.453 170.771 242.894 170.016 240.737 168.23C239.495 167.208 239.543 166.177 240.679 165.432C241.166 165.107 241.605 165.193 242.102 165.375C244.699 166.32 247.362 166.941 250.16 166.817C251.353 166.769 251.582 167.781 251.916 168.603C252.26 169.462 251.754 170.007 251.038 170.36C250.16 170.8 249.205 170.924 248.231 170.905H248.221Z" fill="white"/>
<path d="M348.626 131.246C348.598 149.297 348.149 167.339 347.395 185.381C346.793 199.784 345.982 214.187 344.941 228.571C344.34 236.813 343.576 245.046 342.879 253.279C342.841 253.738 342.755 254.187 342.698 254.645C342.631 255.247 342.44 255.763 341.686 255.648C341.017 255.543 340.989 255.008 341.027 254.483C341.151 252.974 341.275 251.465 341.409 249.956C342.698 235.82 343.729 221.675 344.54 207.501C345.552 189.803 346.221 172.095 346.631 154.369C346.937 141.188 347.032 127.998 346.755 114.818C346.602 107.425 346.287 100.042 345.59 92.6785C345.247 89.0013 343.643 86.7473 340.273 85.286C332.988 82.1437 325.398 80.0042 317.732 78.1131C305.912 75.2 293.988 72.8028 281.873 71.5134C280.135 71.3319 278.398 71.2459 276.66 71.1217C275.954 71.074 274.97 71.2841 275.056 70.1666C275.142 69.1065 276.116 69.3548 276.813 69.3835C282.092 69.6032 287.324 70.3004 292.537 71.16C304.28 73.0797 315.908 75.5439 327.336 78.8581C332.578 80.3767 337.79 82.0004 342.659 84.5888C345.18 85.9259 346.602 87.817 347.013 90.6632C348.044 97.8647 348.178 105.123 348.416 112.373C348.617 118.667 348.617 124.961 348.626 131.246Z" fill="#202D37"/>
<path d="M103.801 138.9C100.144 138.728 96.9171 135.805 96.5066 132.481C96.4398 131.908 96.5353 131.44 97.1367 131.287C97.7477 131.135 98.0819 131.526 98.2156 132.071C98.9602 135.213 100.927 136.942 104.144 137.219C104.755 137.276 105.089 137.582 104.984 138.202C104.841 139.033 104.173 138.909 103.801 138.9Z" fill="#202D37"/>
<path d="M84.3244 131.045C84.2862 131.724 83.8661 131.981 83.236 131.972C81.6607 131.962 80.1618 132.354 78.7011 132.898C78.0805 133.128 77.4886 133.223 77.2213 132.478C76.9922 131.81 77.4886 131.485 78.0424 131.275C79.6749 130.663 81.3457 130.234 83.1119 130.215C83.6943 130.215 84.2289 130.281 84.3339 131.036L84.3244 131.045Z" fill="#202D37"/>
<path d="M111.141 123.357C111.312 122.517 110.711 121.199 112.134 121.18C113.594 121.161 113.222 122.498 113.231 123.386C113.231 124.284 113.585 125.631 112.143 125.602C110.625 125.573 111.36 124.16 111.141 123.348V123.357Z" fill="#202D37"/>
<path d="M102.873 126.064C103.026 125.405 102.424 124.097 103.857 124.087C105.231 124.078 104.878 125.319 104.926 126.179C104.954 126.637 104.954 127.096 104.897 127.545C104.83 128.175 104.468 128.528 103.799 128.519C103.074 128.519 102.873 128.051 102.864 127.44C102.854 127.029 102.864 126.618 102.864 126.064H102.873Z" fill="#202D37"/>
</svg>
